<?xml version="1.0" encoding="utf-8" ?>	<!-- Generator: Assembly 1.8 - http://assemblyapp.co -->	<svg version="1.1" xmlns="http://www.w3.org/2000/svg" xmlns:xlink="http://www.w3.org/1999/xlink" width="2048.00" height="1365.33" viewBox="0 0 2048.0 1365.3333333333335">		<rect x="0" y="0" width="2048.00" height="1365.33" fill="#ffffff" />		<g id="document" transform="matrix(1,0,0,1,1024.0,682.6666666666667)">			<path d="M-101.694,-18.731 C-80.8979,-18.731 -64.0628,-35.5661 -64.0628,-56.3625 C-64.0628,-77.1588 -80.8979,-93.9939 -101.694,-93.9939 C-122.491,-93.9939 -139.326,-77.1588 -139.326,-56.3625 C-139.326,-35.5661 -122.491,-18.731 -101.694,-18.731 Z " fill="#000000" fill-opacity="1.00" />			<path d="M-94.07,-18.731 C-73.2737,-18.731 -56.4386,-35.5661 -56.4386,-56.3625 C-56.4386,-77.1588 -73.2737,-93.9939 -94.07,-93.9939 C-114.866,-93.9939 -131.701,-77.1588 -131.701,-56.3625 C-131.701,-35.5661 -114.866,-18.731 -94.07,-18.731 Z " fill="#000000" fill-opacity="1.00" />			<path d="M-94.4333,-18.731 C-73.637,-18.731 -56.8019,-35.5661 -56.8019,-56.3625 C-56.8019,-77.1588 -73.637,-93.9939 -94.4333,-93.9939 C-115.23,-93.9939 -132.065,-77.1588 -132.065,-56.3625 C-132.065,-35.5661 -115.23,-18.731 -94.4333,-18.731 Z " fill="#000000" fill-opacity="1.00" />			<path d="M-64.0628,-18.731 C-43.2665,-18.731 -26.4314,-35.5661 -26.4314,-56.3625 C-26.4314,-77.1588 -43.2665,-93.9939 -64.0628,-93.9939 C-84.8591,-93.9939 -101.694,-77.1588 -101.694,-56.3625 C-101.694,-35.5661 -84.8591,-18.731 -64.0628,-18.731 Z " fill="#000000" fill-opacity="1.00" />			<path d="M-55.4425,-18.731 C-34.6462,-18.731 -17.8111,-35.5661 -17.8111,-56.3625 C-17.8111,-77.1588 -34.6462,-93.9939 -55.4425,-93.9939 C-76.2388,-93.9939 -93.0739,-77.1588 -93.0739,-56.3625 C-93.0739,-35.5661 -76.2388,-18.731 -55.4425,-18.731 Z " fill="#000000" fill-opacity="1.00" />			<path d="M-880.972,-112.725 C-943.267,-112.725 -993.696,-62.2953 -993.696,3.72677e-07 C-993.696,62.2953 -943.267,112.725 -880.972,112.725 L-880.972,-112.725 Z " fill="#000000" fill-opacity="1.00" />			<path d="M-732.442,111.96 C-670.57,104.77 -626.302,48.8633 -633.492,-13.0091 C-640.681,-74.8815 -696.588,-119.149 -758.46,-111.96 C-820.333,-104.77 -864.6,-48.8633 -857.411,13.0091 C-850.221,74.8815 -794.314,119.149 -732.442,111.96 Z " fill="#000000" fill-opacity="1.00" />			<path d="M-378.185,112.725 L-603.635,112.725 L-603.635,-112.725 L-378.185,112.725 Z " fill="#000000" fill-opacity="1.00" />			<path d="M-294.349,112.451 C-232.205,116.754 -178.414,69.9307 -174.111,7.78697 C-169.808,-54.3567 -216.631,-108.147 -278.775,-112.451 C-340.918,-116.754 -394.709,-69.9307 -399.012,-7.78697 C-403.315,54.3567 -356.492,108.147 -294.349,112.451 Z " fill="#000000" fill-opacity="1.00" />			<path d="M-56.3625,-90.1799 L-112.725,-90.1799 L-112.725,-112.725 L-56.3625,-112.725 C-25.2504,-112.725 1.65955e-06,-87.4745 1.68784e-06,-56.3625 C1.71613e-06,-25.2504 -25.2504,-5.07852e-07 -56.3625,-4.79564e-07 L-112.725,-4.28319e-07 L-112.725,-22.545 L-56.3625,-22.545 C-37.6501,-22.545 -22.545,-37.6501 -22.545,-56.3625 C-22.545,-75.0748 -37.6501,-90.1799 -56.3625,-90.1799 Z " fill="#000000" fill-opacity="1.00" />			<path d="M-151.405,112.725 L-112.725,112.725 L-112.725,-112.725 L-151.405,-112.725 L-151.405,112.725 Z " fill="#000000" fill-opacity="1.00" />			<path d="M-56.3625,112.725 L1.49214e-13,112.725 L-112.725,6.0791e-09 L-112.725,56.3625 L-56.3625,112.725 Z " fill="#000000" fill-opacity="1.00" />			<path d="M65.6825,-110.971 L65.6825,114.478 L291.132,114.478 L65.6825,-110.971 Z " fill="#000000" fill-opacity="1.00" />			<path d="M617.81,-78.0414 L685.471,-78.0414 L685.471,-105.106 L617.81,-105.106 C580.461,-105.106 550.149,-74.7937 550.149,-37.4449 C550.149,-0.0960419 580.461,30.216 617.81,30.216 L685.471,30.216 L685.471,3.15168 L617.81,3.15168 C595.346,3.15168 577.213,-14.9814 577.213,-37.4449 C577.213,-59.9083 595.346,-78.0414 617.81,-78.0414 Z " fill="#000000" fill-opacity="1.00" />			<path d="M703.982,30.1138 L636.321,30.1138 L636.321,3.0494 L703.982,3.0494 C741.331,3.0494 771.643,33.3615 771.643,70.7103 C771.643,108.059 741.331,138.371 703.982,138.371 L636.321,138.371 L636.321,111.307 L703.982,111.307 C726.446,111.307 744.579,93.1737 744.579,70.7103 C744.579,48.2469 726.446,30.1138 703.982,30.1138 Z " fill="#000000" fill-opacity="1.00" />			<path d="M685.471,10.0894 L685.471,-84.9791 L590.402,-84.9791 L590.402,10.0894 L685.471,10.0894 Z " fill="#000000" fill-opacity="1.00" />			<path d="M731.39,120.344 L731.39,25.2755 L636.321,25.2755 L636.321,120.344 L731.39,120.344 Z " fill="#000000" fill-opacity="1.00" />			<path d="M617.81,13.7688 C645.095,13.7688 667.184,-8.31959 667.184,-35.6052 C667.184,-62.8908 645.095,-84.9791 617.81,-84.9791 C590.524,-84.9791 568.436,-62.8908 568.436,-35.6052 C568.436,-8.31959 590.524,13.7688 617.81,13.7688 Z " fill="#000000" fill-opacity="1.00" />			<path d="M703.982,108.837 C731.268,108.837 753.356,86.749 753.356,59.4634 C753.356,32.1778 731.268,10.0894 703.982,10.0894 C676.696,10.0894 654.608,32.1778 654.608,59.4634 C654.608,86.749 676.696,108.837 703.982,108.837 Z " fill="#000000" fill-opacity="1.00" />			<path d="M843.735,-94.4887 L911.396,-94.4887 L911.396,-121.553 L843.735,-121.553 C806.386,-121.553 776.074,-91.241 776.074,-53.8922 C776.074,-16.5433 806.386,13.7688 843.735,13.7688 L911.396,13.7688 L911.396,-13.2956 L843.735,-13.2956 C821.272,-13.2956 803.139,-31.4287 803.139,-53.8922 C803.139,-76.3556 821.272,-94.4887 843.735,-94.4887 Z " fill="#000000" fill-opacity="1.00" />			<path d="M929.908,13.6665 L862.247,13.6665 L862.247,-13.3979 L929.908,-13.3979 C967.257,-13.3979 997.569,16.9142 997.569,54.263 C997.569,91.6119 967.257,121.924 929.908,121.924 L862.247,121.924 L862.247,94.8596 L929.908,94.8596 C952.371,94.8596 970.504,76.7264 970.504,54.263 C970.504,31.7996 952.371,13.6665 929.908,13.6665 Z " fill="#000000" fill-opacity="1.00" />			<path d="M911.396,-6.35789 L911.396,-101.426 L816.328,-101.426 L816.328,-6.35789 L911.396,-6.35789 Z " fill="#000000" fill-opacity="1.00" />			<path d="M957.315,103.897 L957.315,8.82817 L862.247,8.82817 L862.247,103.897 L957.315,103.897 Z " fill="#000000" fill-opacity="1.00" />			<path d="M843.735,-2.67854 C871.021,-2.67854 893.109,-24.7669 893.109,-52.0525 C893.109,-79.3381 871.021,-101.426 843.735,-101.426 C816.45,-101.426 794.361,-79.3381 794.361,-52.0525 C794.361,-24.7669 816.45,-2.67854 843.735,-2.67854 Z " fill="#000000" fill-opacity="1.00" />			<path d="M929.908,92.39 C957.193,92.39 979.282,70.3017 979.282,43.0161 C979.282,15.7305 957.193,-6.35789 929.908,-6.35789 C902.622,-6.35789 880.534,15.7305 880.534,43.0161 C880.534,70.3017 902.622,92.39 929.908,92.39 Z " fill="#000000" fill-opacity="1.00" />			<path d="M-26.4314,112.725 L-88.3366,50.8197 L-150.242,112.725 L-26.4314,112.725 Z " fill="#000000" fill-opacity="1.00" />			<path d="M-111.454,91.3136 C-100.265,91.3136 -91.2075,82.2558 -91.2075,71.0666 C-91.2075,59.8775 -100.265,50.8197 -111.454,50.8197 C-122.644,50.8197 -131.701,59.8775 -131.701,71.0666 C-131.701,82.2558 -122.644,91.3136 -111.454,91.3136 Z " fill="#000000" fill-opacity="1.00" />			<path d="M525.582,114.478 L525.582,72.1323 L313.851,72.1323 L313.851,114.478 L525.582,114.478 Z M525.582,29.7861 L525.582,-12.5601 L313.851,-12.5601 L313.851,29.7861 L525.582,29.7861 Z M525.582,-54.9063 L525.582,-97.2526 L313.851,-97.2525 L313.851,-54.9063 L525.582,-54.9063 Z " fill="#000000" fill-opacity="1.00" />			<path d="M-1024,219.688 L1026.81,219.688 L1026.81,144.425 L-1024,144.425 L-1024,219.688 Z " fill="#000000" fill-opacity="1.00" />			<path d="M-1025.41,732.391 L-512.703,732.391 L-512.703,219.688 L-1025.41,219.688 L-1025.41,732.391 Z " fill="#fe4040" fill-opacity="1.00" />			<path d="M-512.703,732.391 L-1.7053e-13,732.391 L-1.7053e-13,219.688 L-512.703,219.688 L-512.703,732.391 Z " fill="#82fe65" fill-opacity="1.00" />			<path d="M-1.7053e-13,732.391 L512.703,732.391 L512.703,219.688 L-1.7053e-13,219.688 L-1.7053e-13,732.391 Z " fill="#658cfe" fill-opacity="1.00" />			<path d="M512.703,732.391 L1025.41,732.391 L1025.41,219.688 L512.703,219.688 L512.703,732.391 Z " fill="#fef865" fill-opacity="1.00" />			<path d="M-1224.95,-178.883 L1114.06,-178.883 L1114.06,-1582.83 L-1224.95,-1582.83 L-1224.95,-178.883 Z " fill="#000000" fill-opacity="1.00" />		</g>	</svg>