<svg id="svg" version="1.1" width="400" height="400" xmlns="http://www.w3.org/2000/svg" xmlns:xlink="http://www.w3.org/1999/xlink" style="display: block;"><g id="svgg"><path id="path0" d="M196.600 59.850 C 194.840 60.864,192.815 62.033,192.100 62.447 C 189.002 64.242,187.725 64.978,179.000 70.000 C 173.940 72.913,169.215 75.634,168.500 76.048 C 167.785 76.462,166.615 77.138,165.900 77.552 C 165.185 77.966,160.460 80.687,155.400 83.600 C 150.340 86.513,145.615 89.234,144.900 89.648 C 141.692 91.504,140.555 92.160,133.200 96.400 C 128.910 98.873,124.815 101.235,124.100 101.648 C 123.385 102.062,122.215 102.738,121.500 103.152 C 120.785 103.565,116.690 105.927,112.400 108.400 C 108.110 110.873,104.015 113.235,103.300 113.648 C 102.585 114.062,101.370 114.760,100.600 115.200 C 99.830 115.640,98.615 116.338,97.900 116.752 C 96.849 117.360,81.527 126.171,77.600 128.426 C 75.018 129.908,75.200 128.608,75.200 145.582 C 75.200 161.885,75.213 162.000,77.031 162.000 C 78.735 162.000,78.785 161.574,78.895 146.226 L 79.000 131.522 80.600 130.609 C 82.885 129.305,97.568 120.840,99.000 120.001 C 99.660 119.614,103.080 117.634,106.600 115.600 C 113.873 111.398,115.081 110.700,116.900 109.648 C 117.615 109.235,121.710 106.873,126.000 104.400 C 130.290 101.927,134.385 99.565,135.100 99.152 C 135.815 98.738,136.985 98.062,137.700 97.648 C 138.415 97.235,142.510 94.873,146.800 92.400 C 151.090 89.927,155.185 87.565,155.900 87.152 C 156.615 86.738,157.785 86.062,158.500 85.648 C 159.215 85.235,163.310 82.873,167.600 80.400 C 171.890 77.927,175.940 75.587,176.600 75.201 C 177.260 74.814,180.680 72.834,184.200 70.800 C 193.145 65.632,193.032 65.698,194.700 64.729 C 195.525 64.250,197.103 63.359,198.207 62.749 L 200.214 61.641 203.007 63.273 C 204.543 64.170,206.385 65.241,207.100 65.652 C 207.815 66.063,208.985 66.738,209.700 67.152 C 210.415 67.566,215.140 70.287,220.200 73.200 C 225.260 76.113,229.940 78.813,230.600 79.200 C 231.260 79.587,235.940 82.287,241.000 85.200 C 246.060 88.113,250.740 90.813,251.400 91.200 C 252.060 91.587,256.740 94.287,261.800 97.200 C 266.860 100.113,271.585 102.834,272.300 103.248 C 275.508 105.104,276.645 105.760,284.000 110.000 C 291.355 114.240,292.492 114.896,295.700 116.752 C 296.415 117.166,301.140 119.887,306.200 122.800 C 311.260 125.713,315.985 128.434,316.700 128.848 C 317.415 129.262,318.675 129.979,319.500 130.443 C 320.325 130.906,321.202 131.449,321.449 131.650 C 322.042 132.130,323.060 131.716,323.361 130.872 C 323.493 130.503,323.698 129.998,323.816 129.752 C 323.939 129.497,322.598 128.483,320.716 127.407 C 318.892 126.363,316.815 125.170,316.100 124.755 C 313.955 123.509,312.548 122.697,304.400 118.000 C 300.110 115.527,296.015 113.165,295.300 112.752 C 294.585 112.338,293.415 111.662,292.700 111.248 C 291.985 110.835,287.890 108.473,283.600 106.000 C 279.310 103.527,275.215 101.165,274.500 100.752 C 273.785 100.338,272.615 99.662,271.900 99.248 C 271.185 98.835,267.090 96.473,262.800 94.000 C 258.510 91.527,254.415 89.165,253.700 88.752 C 252.985 88.338,251.815 87.662,251.100 87.248 C 250.385 86.835,246.290 84.473,242.000 82.000 C 237.710 79.527,233.615 77.165,232.900 76.752 C 231.081 75.700,229.873 75.002,222.600 70.800 C 219.080 68.766,215.615 66.764,214.900 66.351 C 214.185 65.938,213.015 65.262,212.300 64.850 C 211.585 64.437,208.622 62.727,205.716 61.050 C 199.472 57.447,200.529 57.586,196.600 59.850 M159.462 119.931 C 158.008 121.538,158.664 123.076,161.600 124.942 C 163.137 125.919,163.365 126.682,162.318 127.343 C 161.781 127.682,161.424 127.574,160.638 126.836 C 159.710 125.964,158.400 125.895,158.400 126.718 C 158.400 127.640,160.517 128.982,161.972 128.982 C 164.010 128.982,164.800 128.255,164.800 126.378 C 164.800 124.838,164.422 124.408,161.798 122.959 C 161.359 122.717,160.945 122.155,160.879 121.710 C 160.706 120.560,161.860 120.260,162.809 121.209 C 163.803 122.203,164.800 122.230,164.800 121.262 C 164.800 119.353,160.872 118.374,159.462 119.931 M168.680 119.453 C 168.526 119.607,168.400 121.773,168.400 124.267 L 168.400 128.800 169.413 128.800 L 170.425 128.800 170.313 124.105 C 170.202 119.489,169.797 118.336,168.680 119.453 M174.173 119.727 C 173.485 121.520,174.214 128.602,175.100 128.728 C 175.957 128.850,176.001 128.725,176.013 126.128 C 176.027 123.020,176.464 123.184,178.075 126.900 C 178.726 128.403,179.097 128.800,179.849 128.800 C 180.797 128.800,180.800 128.787,180.800 124.000 C 180.800 119.467,180.756 119.200,180.000 119.200 C 179.282 119.200,179.200 119.467,179.200 121.800 C 179.200 123.230,179.043 124.400,178.851 124.400 C 178.658 124.400,177.942 123.230,177.259 121.800 C 176.028 119.222,174.707 118.335,174.173 119.727 M185.229 120.254 C 184.390 121.321,184.078 124.959,184.645 127.073 C 185.250 129.330,189.194 129.610,190.394 127.482 C 191.384 125.726,190.247 125.019,188.975 126.600 C 187.450 128.495,186.631 127.666,186.483 124.081 C 186.340 120.615,187.939 119.050,188.917 121.700 C 189.233 122.558,190.341 122.620,190.657 121.797 C 191.556 119.454,186.900 118.130,185.229 120.254 M194.400 123.600 C 194.400 126.020,194.355 128.135,194.300 128.300 C 194.245 128.465,195.505 128.653,197.100 128.718 C 199.498 128.815,200.000 128.728,200.000 128.218 C 200.000 127.781,199.599 127.600,198.633 127.600 C 195.562 127.600,194.523 124.971,197.497 124.724 C 199.658 124.545,199.836 123.300,197.724 123.126 C 195.110 122.910,195.234 120.892,197.872 120.723 C 201.333 120.501,200.784 119.200,197.229 119.200 L 194.400 119.200 194.400 123.600 M208.565 120.197 C 207.907 121.201,208.026 122.400,208.784 122.400 C 209.009 122.400,209.418 122.040,209.693 121.600 C 209.968 121.160,210.509 120.800,210.896 120.800 C 212.220 120.800,211.731 122.887,209.811 125.430 C 208.827 126.734,208.017 128.025,208.011 128.300 C 207.999 128.832,213.218 129.048,213.730 128.537 C 214.200 128.067,213.192 127.277,212.390 127.487 C 211.234 127.789,210.930 126.545,211.899 125.480 C 214.645 122.464,214.010 119.200,210.678 119.200 C 209.564 119.200,209.064 119.436,208.565 120.197 M217.965 119.841 C 215.919 122.306,217.371 128.933,219.957 128.933 C 222.424 128.933,223.924 123.485,222.306 120.400 C 221.635 119.121,218.860 118.764,217.965 119.841 M227.300 119.612 C 226.191 120.058,226.132 120.805,227.186 121.080 C 227.883 121.263,227.984 121.697,228.086 124.943 C 228.193 128.391,228.252 128.607,229.100 128.728 C 229.991 128.854,230.000 128.806,230.000 124.028 C 230.000 118.730,229.900 118.567,227.300 119.612 M235.700 119.798 C 234.468 121.198,235.544 122.142,237.195 121.110 C 237.776 120.747,238.097 120.737,238.430 121.070 C 239.053 121.693,238.537 123.071,237.587 123.319 C 236.487 123.607,236.606 124.346,237.827 124.810 C 238.632 125.116,238.826 125.431,238.727 126.269 C 238.574 127.558,237.914 127.857,237.075 127.018 C 236.225 126.168,235.200 126.241,235.200 127.151 C 235.200 128.226,236.263 128.960,237.817 128.960 C 240.218 128.960,241.501 126.857,240.379 124.761 C 240.077 124.197,240.096 123.590,240.447 122.621 C 241.406 119.969,237.562 117.684,235.700 119.798 M220.800 124.000 C 220.800 126.933,220.733 127.200,220.000 127.200 C 219.267 127.200,219.200 126.933,219.200 124.000 C 219.200 121.067,219.267 120.800,220.000 120.800 C 220.733 120.800,220.800 121.067,220.800 124.000 M153.231 123.762 C 152.667 124.442,152.967 125.200,153.800 125.200 C 154.666 125.200,154.954 124.382,154.313 123.742 C 153.804 123.233,153.669 123.235,153.231 123.762 M245.075 123.458 C 244.459 124.075,244.816 125.200,245.628 125.200 C 246.250 125.200,246.424 124.984,246.328 124.331 C 246.195 123.429,245.552 122.981,245.075 123.458 M326.764 141.593 C 325.534 142.447,324.249 143.570,323.910 144.089 C 323.106 145.315,313.639 172.970,309.586 185.931 C 307.311 193.204,295.110 202.820,290.209 201.203 C 286.276 199.905,288.829 195.669,296.967 189.992 C 301.449 186.866,298.784 183.506,293.790 185.987 C 289.022 188.356,289.082 186.810,293.946 181.946 C 297.387 178.505,298.400 177.821,298.400 178.938 C 298.400 182.588,304.478 179.767,305.601 175.597 C 307.257 169.445,300.184 169.838,291.142 176.400 C 285.042 180.828,282.585 187.842,286.005 191.070 L 287.135 192.136 285.107 193.960 C 281.515 197.189,280.721 200.458,282.751 203.659 C 285.941 208.689,295.098 208.121,302.520 202.432 L 305.093 200.459 305.924 201.583 C 306.804 202.773,309.193 203.398,310.438 202.763 C 310.837 202.560,311.720 200.183,312.798 196.405 C 314.779 189.470,314.745 189.519,316.233 191.504 C 319.761 196.211,325.292 200.000,328.633 200.000 C 334.430 200.000,341.992 190.874,340.234 186.000 C 339.397 183.679,338.683 184.010,336.034 187.950 C 331.054 195.355,327.774 195.442,322.913 188.297 L 321.890 186.795 324.594 184.317 C 332.657 176.929,337.224 168.024,334.400 165.200 C 332.684 163.484,329.200 164.959,329.200 167.402 C 329.200 169.538,326.987 172.623,321.239 178.500 C 319.357 180.425,317.611 182.000,317.360 182.000 C 317.097 182.000,318.324 177.819,320.266 172.100 C 330.957 140.619,330.936 140.691,329.767 140.243 C 328.994 139.946,329.397 139.765,326.764 141.593 M261.800 151.868 C 259.859 152.293,257.205 154.021,254.151 156.848 C 252.340 158.524,250.441 159.992,249.929 160.109 C 249.418 160.227,247.200 160.963,245.000 161.745 C 237.537 164.398,227.194 166.682,224.200 166.338 C 223.079 166.209,223.008 166.101,223.117 164.700 C 223.256 162.925,222.765 162.793,220.434 163.982 C 217.167 165.650,215.768 169.149,217.424 171.513 C 219.943 175.109,229.444 174.157,242.000 169.050 C 245.801 167.504,246.055 167.620,244.788 170.313 C 242.774 174.593,241.973 176.446,240.000 181.400 C 238.861 184.260,237.495 187.550,236.964 188.712 C 236.434 189.873,236.000 190.910,236.000 191.016 C 236.000 192.173,229.209 205.600,228.624 205.600 C 228.281 205.600,228.000 205.330,228.000 205.000 C 228.000 203.152,226.126 205.160,223.954 209.335 C 220.918 215.171,221.821 219.333,226.125 219.333 C 231.602 219.333,233.507 216.069,244.523 187.800 C 245.699 184.784,247.221 181.272,249.205 177.000 C 249.409 176.560,250.318 174.490,251.224 172.400 C 254.221 165.489,255.225 163.645,256.134 163.375 C 261.001 161.930,268.000 157.236,268.000 155.418 C 268.000 152.838,265.060 151.154,261.800 151.868 M277.281 175.998 C 274.904 177.077,272.380 179.228,270.331 181.921 C 267.023 186.271,266.493 186.516,268.000 183.000 C 269.308 179.948,269.115 177.600,267.554 177.600 C 264.837 177.600,262.364 179.899,261.059 183.638 C 260.288 185.846,259.204 188.831,257.587 193.200 C 256.895 195.070,256.181 197.050,256.000 197.600 C 255.819 198.150,255.102 200.130,254.407 202.000 C 250.811 211.668,250.814 211.800,254.628 211.800 L 256.970 211.800 258.406 209.000 C 263.304 199.450,271.632 186.641,274.782 183.811 L 275.660 183.022 275.375 184.211 C 275.218 184.865,274.934 185.703,274.745 186.074 C 273.672 188.171,275.184 192.000,277.085 192.000 C 279.043 192.000,283.343 183.044,283.381 178.887 C 283.412 175.419,281.036 174.294,277.281 175.998 M118.281 178.577 C 116.114 179.350,113.738 181.009,111.280 183.468 C 108.255 186.493,99.448 189.853,90.000 191.587 C 88.570 191.850,86.536 192.230,85.480 192.432 C 82.001 193.099,78.715 192.441,80.381 191.412 C 81.198 190.907,80.851 189.600,79.900 189.601 C 76.123 189.608,72.989 195.008,75.052 197.953 C 77.511 201.464,89.458 200.079,100.574 194.995 C 103.828 193.506,103.803 193.428,101.600 198.152 C 100.720 200.039,100.000 201.679,100.000 201.796 C 100.000 201.913,99.619 202.862,99.153 203.904 C 97.701 207.157,97.302 208.106,96.000 211.400 C 90.592 225.082,85.600 234.682,85.600 231.400 C 85.600 229.274,83.247 231.819,81.206 236.151 C 78.382 242.147,79.341 245.600,83.832 245.600 C 87.314 245.600,90.609 242.017,93.765 234.800 C 94.390 233.370,95.308 231.295,95.805 230.189 C 96.302 229.082,96.983 227.368,97.318 226.380 C 97.654 225.392,98.771 222.427,99.800 219.792 C 100.830 217.156,101.812 214.640,101.983 214.200 C 102.153 213.760,102.491 212.950,102.733 212.400 C 103.760 210.067,107.939 200.456,108.639 198.817 C 111.721 191.598,112.868 189.923,115.400 188.941 C 122.753 186.088,126.287 183.025,125.215 180.435 C 124.298 178.223,121.429 177.454,118.281 178.577 M185.802 192.695 C 183.637 193.242,180.086 196.367,177.122 200.331 C 175.170 202.942,174.871 202.780,175.963 199.703 C 177.549 195.236,176.966 193.821,173.948 194.817 C 171.021 195.783,170.361 196.817,167.193 205.400 C 162.723 217.507,163.767 215.788,156.312 223.313 C 151.063 228.610,143.200 229.981,143.200 225.599 C 143.200 224.492,148.779 218.865,151.682 217.044 C 156.657 213.923,154.300 210.386,148.842 212.782 C 144.023 214.897,144.073 213.512,148.995 208.591 C 152.348 205.237,153.087 204.850,153.594 206.184 C 153.981 207.203,154.315 207.359,155.800 207.214 C 159.154 206.888,162.375 200.601,160.136 198.749 C 156.844 196.025,144.411 202.567,140.861 208.892 C 138.835 212.503,138.970 216.326,141.185 218.079 L 142.200 218.882 140.633 220.241 C 139.721 221.033,138.635 221.600,138.032 221.600 C 137.240 221.600,136.386 222.308,134.398 224.613 C 129.510 230.283,126.213 232.476,122.211 232.721 C 119.539 232.884,118.000 232.006,118.000 230.316 C 118.000 229.314,123.224 223.979,126.106 222.037 C 131.031 218.720,129.422 214.672,124.197 217.235 C 119.037 219.765,118.817 218.455,123.565 213.476 C 126.823 210.061,128.767 209.326,128.794 211.500 C 128.811 212.908,132.443 211.616,134.142 209.596 C 138.565 204.340,134.207 200.889,127.217 204.112 C 116.824 208.903,111.098 218.624,116.180 222.849 C 116.937 223.478,116.894 223.561,114.721 225.666 C 112.137 228.168,111.347 230.117,111.770 232.942 C 112.847 240.124,125.039 240.301,133.124 233.252 C 137.385 229.538,136.997 229.697,138.223 231.155 C 141.649 235.226,150.843 234.384,157.372 229.401 C 158.721 228.371,159.405 228.072,159.752 228.360 C 162.255 230.438,164.724 229.198,167.027 224.705 C 172.637 213.762,182.728 198.995,183.839 200.105 C 183.993 200.260,183.264 202.391,182.219 204.840 C 176.247 218.827,177.023 226.400,184.426 226.400 C 190.914 226.400,199.363 216.707,197.136 211.819 C 196.394 210.191,195.829 210.562,192.569 214.815 C 184.745 225.022,181.113 221.149,186.777 208.640 C 193.090 194.701,192.858 190.910,185.802 192.695 M321.867 240.267 C 321.720 240.413,321.600 247.599,321.600 256.234 L 321.600 271.935 317.300 274.416 C 312.667 277.090,311.126 277.980,309.100 279.152 C 308.385 279.566,303.660 282.287,298.600 285.200 C 293.540 288.113,288.815 290.834,288.100 291.248 C 284.892 293.104,283.755 293.760,276.400 298.000 C 272.110 300.473,268.015 302.835,267.300 303.248 C 266.585 303.662,265.415 304.338,264.700 304.752 C 263.985 305.165,259.890 307.527,255.600 310.000 C 248.162 314.287,246.891 315.021,243.900 316.752 C 243.185 317.166,237.830 320.248,232.000 323.600 C 226.170 326.952,220.860 330.012,220.200 330.400 C 211.266 335.646,200.582 341.600,200.101 341.600 C 199.601 341.600,194.464 338.777,187.000 334.400 C 186.340 334.013,182.290 331.673,178.000 329.200 C 173.710 326.727,169.615 324.365,168.900 323.952 C 168.185 323.538,167.015 322.862,166.300 322.448 C 165.585 322.035,161.490 319.673,157.200 317.200 C 152.910 314.727,148.860 312.387,148.200 312.000 C 147.540 311.613,143.490 309.273,139.200 306.800 C 134.910 304.327,130.860 301.987,130.200 301.600 C 129.540 301.213,125.490 298.873,121.200 296.400 C 116.910 293.927,112.815 291.565,112.100 291.152 C 110.281 290.100,109.073 289.402,101.800 285.200 C 98.280 283.166,94.860 281.185,94.200 280.798 C 89.413 277.985,78.160 271.602,77.986 271.601 C 77.869 271.601,77.468 272.116,77.095 272.746 C 76.212 274.242,76.144 274.184,84.200 278.817 C 87.720 280.841,91.185 282.836,91.900 283.249 C 92.615 283.662,93.785 284.338,94.500 284.751 C 95.215 285.164,98.680 287.166,102.200 289.200 C 105.720 291.234,109.140 293.214,109.800 293.601 C 110.460 293.987,114.510 296.327,118.800 298.800 C 123.090 301.273,127.185 303.635,127.900 304.048 C 129.719 305.100,130.927 305.798,138.200 310.000 C 141.720 312.034,145.140 314.014,145.800 314.401 C 146.460 314.787,150.510 317.127,154.800 319.600 C 159.090 322.073,163.185 324.435,163.900 324.848 C 165.719 325.900,166.927 326.598,174.200 330.800 C 177.720 332.834,181.140 334.814,181.800 335.201 C 182.460 335.587,186.420 337.872,190.600 340.278 C 194.780 342.684,198.596 344.903,199.080 345.210 C 200.042 345.819,200.510 345.656,204.400 343.353 C 206.617 342.040,206.794 341.937,216.400 336.400 C 220.690 333.927,224.785 331.565,225.500 331.152 C 226.215 330.738,227.385 330.062,228.100 329.648 C 228.815 329.235,232.910 326.873,237.200 324.400 C 241.490 321.927,245.540 319.587,246.200 319.201 C 246.860 318.814,250.280 316.834,253.800 314.800 C 261.073 310.598,262.281 309.900,264.100 308.848 C 264.815 308.435,268.910 306.073,273.200 303.600 C 277.490 301.127,281.585 298.765,282.300 298.352 C 283.015 297.938,284.185 297.262,284.900 296.848 C 285.615 296.435,289.710 294.073,294.000 291.600 C 298.290 289.127,302.340 286.787,303.000 286.401 C 303.660 286.014,307.080 284.034,310.600 282.000 C 314.120 279.966,317.585 277.964,318.300 277.551 C 319.015 277.138,320.185 276.463,320.900 276.051 C 321.615 275.639,322.784 274.964,323.497 274.551 L 324.795 273.800 324.797 256.900 L 324.800 240.000 323.467 240.000 C 322.733 240.000,322.013 240.120,321.867 240.267 M142.800 268.074 C 142.800 268.144,142.260 270.091,141.600 272.400 C 140.940 274.709,140.400 276.824,140.400 277.099 C 140.400 278.053,142.007 277.633,142.410 276.573 C 142.912 275.253,144.795 275.333,145.395 276.700 C 145.773 277.562,146.958 277.929,147.331 277.300 C 147.428 277.135,147.263 276.190,146.963 275.200 C 146.663 274.210,146.090 272.230,145.689 270.800 C 145.042 268.491,144.840 268.186,143.880 268.073 C 143.286 268.004,142.800 268.004,142.800 268.074 M153.773 268.527 C 153.661 268.817,153.622 270.932,153.685 273.227 L 153.800 277.400 156.145 277.521 C 159.400 277.690,161.431 275.191,159.560 273.320 C 159.239 272.999,159.260 272.490,159.637 271.448 C 160.116 270.122,160.085 269.942,159.208 269.008 C 158.123 267.853,154.166 267.503,153.773 268.527 M162.573 268.527 C 161.885 270.320,162.614 277.402,163.500 277.528 C 164.303 277.642,164.400 277.485,164.400 276.077 C 164.400 274.080,165.122 273.390,166.327 274.234 C 166.937 274.661,167.200 275.261,167.200 276.223 C 167.200 277.432,167.324 277.600,168.218 277.600 C 169.322 277.600,169.358 275.861,168.299 273.692 C 167.970 273.016,167.977 272.663,168.328 272.312 C 169.145 271.495,168.898 269.314,167.911 268.623 C 166.789 267.837,162.864 267.767,162.573 268.527 M172.466 272.355 C 171.770 274.772,171.200 276.941,171.200 277.175 C 171.200 277.993,172.714 277.591,173.363 276.600 C 173.724 276.050,174.370 275.600,174.800 275.600 C 175.230 275.600,175.876 276.050,176.237 276.600 C 176.833 277.510,178.408 278.021,178.394 277.300 C 178.351 274.995,175.668 268.186,174.761 268.080 C 173.776 267.965,173.680 268.143,172.466 272.355 M180.573 268.527 C 179.885 270.320,180.614 277.402,181.500 277.528 C 182.357 277.650,182.401 277.525,182.413 274.928 C 182.427 271.820,182.864 271.984,184.475 275.700 C 185.126 277.203,185.497 277.600,186.249 277.600 C 187.197 277.600,187.200 277.587,187.200 272.800 C 187.200 268.267,187.156 268.000,186.400 268.000 C 185.682 268.000,185.600 268.267,185.600 270.600 C 185.600 272.030,185.443 273.200,185.251 273.200 C 185.058 273.200,184.342 272.030,183.659 270.600 C 182.428 268.022,181.107 267.135,180.573 268.527 M190.396 269.300 C 189.331 271.046,189.319 274.535,190.372 276.262 C 191.710 278.456,195.282 278.406,195.840 276.185 C 196.259 274.513,195.322 273.960,194.340 275.300 C 192.841 277.344,191.600 276.212,191.600 272.800 C 191.600 269.516,193.562 268.040,194.540 270.589 C 194.916 271.567,196.000 271.324,196.000 270.262 C 196.000 267.747,191.784 267.023,190.396 269.300 M198.573 268.527 C 197.898 270.285,198.613 277.402,199.477 277.525 C 200.262 277.637,200.367 277.448,200.477 275.725 C 200.669 272.724,203.330 272.702,203.522 275.700 C 203.632 277.422,203.736 277.600,204.635 277.600 L 205.625 277.600 205.513 272.900 C 205.405 268.407,205.361 268.194,204.523 268.075 C 203.738 267.963,203.633 268.152,203.523 269.875 C 203.331 272.876,200.670 272.898,200.478 269.900 C 200.356 267.992,199.120 267.102,198.573 268.527 M212.829 269.054 C 209.600 273.159,214.307 280.550,217.877 276.980 C 219.058 275.799,219.146 270.544,218.008 269.100 C 216.780 267.541,214.039 267.516,212.829 269.054 M221.600 272.400 C 221.600 274.820,221.555 276.935,221.500 277.100 C 221.445 277.265,221.795 277.456,222.277 277.525 C 223.062 277.637,223.167 277.448,223.277 275.725 C 223.399 273.815,223.411 273.799,224.900 273.676 C 227.169 273.488,227.080 272.000,224.800 272.000 C 222.101 272.000,222.376 269.697,225.096 269.522 C 228.537 269.301,227.966 268.000,224.429 268.000 L 221.600 268.000 221.600 272.400 M233.600 272.800 C 233.600 277.333,233.644 277.600,234.400 277.600 C 235.044 277.600,235.200 277.333,235.200 276.233 C 235.200 272.799,238.261 272.115,238.478 275.500 C 238.582 277.121,238.732 277.419,239.500 277.528 C 240.391 277.654,240.400 277.607,240.400 272.800 C 240.400 267.993,240.391 267.946,239.500 268.072 C 238.730 268.182,238.582 268.478,238.477 270.123 L 238.354 272.046 236.877 271.923 C 235.419 271.802,235.398 271.776,235.278 269.900 C 235.177 268.326,235.023 268.000,234.378 268.000 C 233.651 268.000,233.600 268.312,233.600 272.800 M242.938 268.617 C 242.342 270.171,243.043 276.020,243.931 276.909 C 245.175 278.153,247.812 278.120,248.843 276.847 C 250.094 275.302,249.973 267.891,248.700 268.072 C 247.856 268.192,247.787 268.436,247.600 271.958 C 247.251 278.512,244.800 278.331,244.800 271.751 C 244.800 268.247,244.746 268.000,243.987 268.000 C 243.541 268.000,243.068 268.278,242.938 268.617 M252.870 268.926 C 251.838 270.024,251.614 275.258,252.545 276.484 C 254.636 279.236,259.051 277.696,258.727 274.328 C 258.610 273.109,258.477 272.990,257.100 272.876 C 255.525 272.746,255.191 273.163,256.200 274.000 C 257.058 274.712,256.940 275.902,255.981 276.206 C 254.531 276.666,254.000 275.744,254.000 272.765 C 254.000 269.521,254.889 268.489,256.391 269.991 C 257.401 271.001,258.400 271.036,258.400 270.062 C 258.400 267.998,254.495 267.196,252.870 268.926 M216.800 272.987 C 216.800 276.130,216.022 277.180,214.581 275.984 C 213.685 275.241,213.772 270.167,214.690 269.654 C 216.185 268.817,216.800 269.788,216.800 272.987 M157.745 270.200 C 158.096 271.115,157.604 272.000,156.745 272.000 C 155.885 272.000,155.394 271.115,155.745 270.200 C 155.871 269.870,156.321 269.600,156.745 269.600 C 157.168 269.600,157.618 269.870,157.745 270.200 M166.785 270.372 C 167.234 271.210,166.312 272.571,165.482 272.294 C 164.777 272.059,164.257 270.951,164.524 270.254 C 164.868 269.357,166.281 269.430,166.785 270.372 M144.367 272.500 C 144.727 273.449,144.186 274.562,143.555 274.172 C 142.918 273.778,143.193 271.600,143.880 271.600 C 143.960 271.600,144.179 272.005,144.367 272.500 M175.200 272.800 C 175.200 273.600,175.000 274.000,174.600 274.000 C 173.938 274.000,173.897 273.824,174.252 272.500 C 174.600 271.203,175.200 271.393,175.200 272.800 M131.995 272.606 C 131.407 273.314,131.815 274.000,132.824 274.000 C 133.319 274.000,133.600 273.726,133.600 273.243 C 133.600 272.275,132.599 271.878,131.995 272.606 M266.026 272.569 C 265.405 273.317,265.799 274.000,266.851 274.000 C 267.449 274.000,267.623 273.777,267.528 273.131 C 267.368 272.046,266.675 271.787,266.026 272.569 M158.213 274.440 C 158.511 275.380,158.163 275.868,157.053 276.067 C 156.155 276.227,155.375 275.164,155.724 274.254 C 156.096 273.284,157.888 273.417,158.213 274.440 " stroke="none" fill="#2c3036" fill-rule="evenodd"></path></g></svg>