<?xml version="1.0" encoding="utf-8" ?>	<!-- Generator: Assembly 2.2 - http://assemblyapp.co -->	<svg version="1.1" xmlns="http://www.w3.org/2000/svg" xmlns:xlink="http://www.w3.org/1999/xlink" width="2048.00" height="1152.00" viewBox="0 0 2048.0 1151.9999914169312">		<rect x="0" y="0" width="2048.00" height="1152.00" fill="#161616" />		<g id="document" transform="matrix(1,0,0,1,1024.0,575.9999957084656)">			<path d="M-396.389,-98.4767 L-396.389,-109.954 L-403.75,-109.954 L-403.75,-98.4767 L-410.985,-98.4767 L-410.985,-92.2391 L-403.75,-92.2391 L-403.75,-62.2985 C-403.75,-59.5124 -403.1,-57.2045 -401.801,-55.3748 C-400.501,-53.5451 -398.858,-52.1832 -396.873,-51.2891 C-394.887,-50.3951 -392.855,-49.948 -390.776,-49.948 C-389.403,-49.948 -388.27,-50.0468 -387.376,-50.2443 C-386.482,-50.4419 -385.785,-50.6342 -385.286,-50.8213 L-386.783,-57.4332 C-387.095,-57.3708 -387.511,-57.2928 -388.031,-57.1993 C-388.551,-57.1057 -389.216,-57.0589 -390.027,-57.0589 C-391.108,-57.0589 -392.132,-57.2305 -393.099,-57.5735 C-394.066,-57.9166 -394.856,-58.6027 -395.469,-59.6319 C-396.083,-60.6612 -396.389,-62.2154 -396.389,-64.2946 L-396.389,-92.2391 L-386.16,-92.2391 L-386.16,-98.4767 L-396.389,-98.4767 Z " fill="#ffffff" fill-opacity="1.00" />			<path d="M-367.696,-79.3896 C-367.696,-83.5688 -366.506,-86.7968 -364.125,-89.0735 C-361.745,-91.3502 -358.735,-92.4886 -355.096,-92.4886 C-351.624,-92.4886 -348.906,-91.4438 -346.941,-89.3542 C-344.976,-87.2646 -343.993,-84.3173 -343.993,-80.5124 L-343.993,-50.5718 L-336.633,-50.5718 L-336.633,-81.0114 C-336.633,-87.1658 -338.13,-91.7193 -341.124,-94.6717 C-344.118,-97.6242 -348.069,-99.1005 -352.976,-99.1005 C-356.739,-99.1005 -359.749,-98.3675 -362.005,-96.9017 C-364.26,-95.4359 -365.95,-93.4658 -367.073,-90.9916 L-367.696,-90.9916 L-367.696,-114.445 L-375.057,-114.445 L-375.057,-50.5718 L-367.696,-50.5718 L-367.696,-79.3896 Z " fill="#ffffff" fill-opacity="1.00" />			<path d="M-303.075,-49.5738 C-298.209,-49.5738 -294.092,-50.6862 -290.724,-52.9109 C-287.356,-55.1357 -285.11,-58.0569 -283.988,-61.6748 L-291.098,-63.6708 C-292.034,-61.1758 -293.541,-59.3045 -295.621,-58.0569 C-297.7,-56.8094 -300.185,-56.1857 -303.075,-56.1857 C-307.399,-56.1857 -310.929,-57.5475 -313.663,-60.2713 C-316.397,-62.9951 -317.847,-66.9144 -318.014,-72.0292 L-283.239,-72.0292 L-283.239,-75.148 C-283.239,-79.6183 -283.832,-83.3817 -285.017,-86.4381 C-286.202,-89.4945 -287.792,-91.9532 -289.789,-93.8141 C-291.785,-95.675 -293.999,-97.0213 -296.432,-97.8529 C-298.864,-98.6846 -301.328,-99.1005 -303.823,-99.1005 C-308.148,-99.1005 -311.927,-98.0453 -315.16,-95.9349 C-318.393,-93.8245 -320.909,-90.8928 -322.708,-87.1398 C-324.506,-83.3869 -325.405,-79.0569 -325.405,-74.15 C-325.405,-69.2431 -324.506,-64.9443 -322.708,-61.2537 C-320.909,-57.5631 -318.341,-54.6938 -315.004,-52.6458 C-311.667,-50.5978 -307.69,-49.5738 -303.075,-49.5738 Z M-318.014,-78.3916 C-317.847,-80.8658 -317.172,-83.1789 -315.987,-85.3309 C-314.801,-87.4829 -313.18,-89.2138 -311.121,-90.5237 C-309.063,-91.8336 -306.63,-92.4886 -303.823,-92.4886 C-299.831,-92.4886 -296.65,-91.1527 -294.28,-88.4809 C-291.909,-85.8091 -290.724,-82.446 -290.724,-78.3916 L-318.014,-78.3916 Z " fill="#ffffff" fill-opacity="1.00" />			<path d="M-373.357,84.6578 C-363.014,84.6578 -354.079,82.619 -346.554,78.5413 C-339.028,74.4635 -333.235,68.6205 -329.174,61.0121 C-325.113,53.4037 -323.082,44.2951 -323.082,33.6864 C-323.082,23.0778 -325.121,13.9775 -329.199,6.38568 C-333.276,-1.20616 -339.07,-7.03264 -346.579,-11.0938 C-354.088,-15.1549 -363.03,-17.1855 -373.407,-17.1855 L-411.002,-17.1855 L-411.002,84.6578 L-373.357,84.6578 Z M-386.386,3.79981 L-374.65,3.79981 C-365.898,3.79981 -359.226,6.03758 -354.635,10.5131 C-350.043,14.9887 -347.747,22.7131 -347.747,33.6864 C-347.747,44.6929 -350.027,52.4423 -354.585,56.9344 C-359.143,61.4265 -365.716,63.6725 -374.302,63.6725 L-386.386,63.6725 L-386.386,3.79981 Z " fill="#ffffff" fill-opacity="1.00" />			<path d="M-289.562,85.9507 C-279.02,85.9507 -271.627,81.9725 -267.383,74.016 L-266.787,74.016 L-266.787,84.6578 L-243.912,84.6578 L-243.912,32.7416 C-243.912,27.3378 -245.379,22.7462 -248.313,18.9669 C-251.247,15.1876 -255.258,12.295 -260.347,10.2893 C-265.436,8.28364 -271.229,7.28078 -277.727,7.28078 C-288.004,7.28078 -296.018,9.58486 -301.77,14.193 C-307.522,18.8011 -310.879,24.5862 -311.84,31.5481 L-289.413,32.3438 C-288.882,29.8905 -287.639,27.9677 -285.683,26.5753 C-283.727,25.1829 -281.141,24.4867 -277.926,24.4867 C-274.942,24.4867 -272.572,25.1829 -270.815,26.5753 C-269.057,27.9677 -268.179,29.9403 -268.179,32.493 L-268.179,32.7416 C-268.179,35.0623 -269.563,36.637 -272.331,37.4658 C-275.099,38.2946 -279.749,38.9908 -286.28,39.5544 C-291.419,39.9853 -296.143,41.0048 -300.453,42.6126 C-304.762,44.2205 -308.21,46.6904 -310.796,50.0221 C-313.382,53.3539 -314.675,57.8378 -314.675,63.4736 C-314.675,71.0323 -312.313,76.6682 -307.589,80.3812 C-302.864,84.0942 -296.856,85.9507 -289.562,85.9507 Z M-282.053,70.0377 C-284.871,70.0377 -287.175,69.3747 -288.965,68.0486 C-290.756,66.7225 -291.651,64.7997 -291.651,62.2801 C-291.651,57.4068 -288.054,54.4231 -280.86,53.3291 C-278.605,52.9975 -276.243,52.5831 -273.773,52.0859 C-271.304,51.5886 -269.389,50.9753 -268.03,50.2459 L-268.03,57.5062 C-268.03,61.2193 -269.397,64.2361 -272.132,66.5568 C-274.867,68.8774 -278.174,70.0377 -282.053,70.0377 Z " fill="#ffffff" fill-opacity="1.00" />			<path d="M-207.109,84.6578 L-207.109,8.27535 L-231.427,8.27535 L-231.427,84.6578 L-207.109,84.6578 Z M-219.243,-0.625995 C-215.795,-0.625995 -212.853,-1.76145 -210.416,-4.03237 C-207.98,-6.30329 -206.761,-9.04663 -206.761,-12.2624 C-206.761,-15.4781 -207.98,-18.2132 -210.416,-20.4675 C-212.853,-22.7219 -215.795,-23.8491 -219.243,-23.8491 C-222.658,-23.8491 -225.592,-22.7219 -228.045,-20.4675 C-230.498,-18.2132 -231.725,-15.4781 -231.725,-12.2624 C-231.725,-9.04663 -230.498,-6.30329 -228.045,-4.03237 C-225.592,-1.76145 -222.658,-0.625995 -219.243,-0.625995 Z " fill="#ffffff" fill-opacity="1.00" />			<path d="M-194.028,-17.1855 L-194.028,84.6578 L-169.711,84.6578 L-169.711,-17.1855 L-194.028,-17.1855 Z " fill="#ffffff" fill-opacity="1.00" />			<path d="M-142.605,114.445 C-134.052,114.445 -127.239,112.29 -122.167,107.98 C-117.095,103.671 -113.498,98.4159 -111.376,92.2165 L-82.5338,8.27535 L-108.144,8.27535 L-122.416,62.7774 L-123.211,62.7774 L-137.284,8.27535 L-162.745,8.27535 L-135.594,87.4426 L-136.588,89.9787 C-137.914,92.6972 -139.821,94.2305 -142.307,94.5786 C-144.793,94.9267 -147.81,94.504 -151.358,93.3105 L-156.728,111.809 C-155.303,112.373 -153.421,112.953 -151.084,113.55 C-148.747,114.147 -145.921,114.445 -142.605,114.445 Z " fill="#ffffff" fill-opacity="1.00" />			<path d="M-10.1229,84.6578 C0.220549,84.6578 9.15504,82.619 16.6806,78.5413 C24.2061,74.4635 29.9994,68.6205 34.0606,61.0121 C38.1217,53.4037 40.1523,44.2951 40.1523,33.6864 C40.1523,23.0778 38.1134,13.9775 34.0357,6.38568 C29.958,-1.20616 24.1647,-7.03264 16.6557,-11.0938 C9.14676,-15.1549 0.203973,-17.1855 -10.1726,-17.1855 L-47.7671,-17.1855 L-47.7671,84.6578 L-10.1229,84.6578 Z M-23.1517,3.79981 L-11.4158,3.79981 C-2.66369,3.79981 4.00818,6.03758 8.59975,10.5131 C13.1913,14.9887 15.4871,22.7131 15.4871,33.6864 C15.4871,44.6929 13.2079,52.4423 8.64947,56.9344 C4.09106,61.4265 -2.48135,63.6725 -11.0677,63.6725 L-23.1517,63.6725 L-23.1517,3.79981 Z " fill="#ffffff" fill-opacity="1.00" />			<path d="M87.8449,86.0999 C97.8568,86.0999 106.012,83.8539 112.311,79.3618 C118.61,74.8697 122.456,68.8774 123.848,61.385 L101.52,60.7386 C100.592,63.2581 98.9509,65.1892 96.5971,66.5319 C94.2433,67.8746 91.4751,68.5459 88.2925,68.5459 C83.618,68.5459 79.9298,67.1203 77.2279,64.2693 C74.526,61.4182 73.1751,57.6554 73.1751,52.981 L73.1751,52.3345 L124.097,52.3345 L124.097,46.2677 C124.097,37.8802 122.522,30.7856 119.373,24.984 C116.223,19.1824 111.864,14.7814 106.294,11.7812 C100.724,8.78092 94.3261,7.28078 87.099,7.28078 C79.4077,7.28078 72.7275,8.9301 67.0585,12.2287 C61.3895,15.5274 56.9969,20.1355 53.8806,26.0532 C50.7643,31.9708 49.2061,38.8747 49.2061,46.765 C49.2061,58.9981 52.6456,68.6122 59.5247,75.6073 C66.4038,82.6024 75.8438,86.0999 87.8449,86.0999 Z M73.1751,38.2117 C73.3408,34.3992 74.7747,31.2166 77.4766,28.6639 C80.1785,26.1112 83.5517,24.8348 87.5963,24.8348 C91.6077,24.8348 94.9146,26.0863 97.517,28.5893 C100.119,31.0923 101.437,34.2998 101.47,38.2117 L73.1751,38.2117 Z " fill="#ffffff" fill-opacity="1.00" />			<path d="M200.93,31.5979 C200.3,24.0392 197.002,18.0967 191.034,13.7703 C185.067,9.44396 176.911,7.28078 166.568,7.28078 C156.224,7.28078 148.003,9.4191 141.903,13.6957 C135.803,17.9723 132.769,23.9397 132.802,31.5979 C132.703,43.5326 140.262,50.909 155.479,53.7269 L168.806,56.263 C174.906,57.4565 178.005,59.6611 178.105,62.8769 C178.072,64.7997 177.077,66.3413 175.121,67.5016 C173.165,68.6619 170.629,69.2421 167.513,69.2421 C164.065,69.2421 161.23,68.5127 159.009,67.054 C156.788,65.5954 155.412,63.4736 154.882,60.6888 L130.863,61.2856 C131.725,68.8443 135.305,74.8697 141.604,79.3618 C147.903,83.8539 156.506,86.0999 167.413,86.0999 C174.243,86.0999 180.309,85.0308 185.614,82.8925 C190.918,80.7542 195.104,77.7456 198.17,73.8668 C201.237,69.988 202.787,65.4296 202.82,60.1916 C202.72,49.2845 195.162,42.3889 180.144,39.5046 L165.424,36.7199 C162.208,36.0568 159.979,35.17 158.736,34.0594 C157.493,32.9488 156.887,31.6642 156.921,30.2055 C156.887,28.2495 157.857,26.7162 159.83,25.6056 C161.802,24.495 164.198,23.9397 167.015,23.9397 C170.231,23.9397 172.883,24.7105 174.972,26.2521 C177.061,27.7937 178.271,29.7745 178.602,32.1946 L200.93,31.5979 Z " fill="#ffffff" fill-opacity="1.00" />			<path d="M236.738,84.6578 L236.738,8.27535 L212.421,8.27535 L212.421,84.6578 L236.738,84.6578 Z M224.604,-0.625995 C228.052,-0.625995 230.994,-1.76145 233.431,-4.03237 C235.867,-6.30329 237.086,-9.04663 237.086,-12.2624 C237.086,-15.4781 235.867,-18.2132 233.431,-20.4675 C230.994,-22.7219 228.052,-23.8491 224.604,-23.8491 C221.189,-23.8491 218.255,-22.7219 215.802,-20.4675 C213.349,-18.2132 212.122,-15.4781 212.122,-12.2624 C212.122,-9.04663 213.349,-6.30329 215.802,-4.03237 C218.255,-1.76145 221.189,-0.625995 224.604,-0.625995 Z " fill="#ffffff" fill-opacity="1.00" />			<path d="M285.425,114.246 C293.116,114.246 299.863,113.111 305.664,110.84 C311.466,108.569 315.999,105.254 319.265,100.894 C322.53,96.5346 324.163,91.2219 324.163,84.9562 L324.163,8.27535 L299.945,8.27535 L299.945,21.3539 L299.249,21.3539 C297.791,17.8397 295.329,14.6157 291.865,11.6817 C288.4,8.74777 283.651,7.28078 277.618,7.28078 C272.313,7.28078 267.34,8.67317 262.699,11.458 C258.058,14.2427 254.312,18.5194 251.461,24.2878 C248.609,30.0563 247.184,37.4161 247.184,46.3671 C247.184,55.0198 248.568,62.0895 251.336,67.5762 C254.104,73.0629 257.801,77.1074 262.426,79.7099 C267.05,82.3123 272.147,83.6135 277.717,83.6135 C283.353,83.6135 288.011,82.4449 291.691,80.1077 C295.37,77.7705 297.923,74.8448 299.349,71.3307 L300.194,71.3307 L300.194,84.7573 C300.194,89.3323 298.86,92.5812 296.191,94.504 C293.522,96.4268 290.149,97.3882 286.071,97.3882 C282.159,97.3882 279.051,96.7169 276.747,95.3742 C274.443,94.0316 272.96,92.3491 272.297,90.3268 L249.272,91.6198 C250.168,97.985 253.698,103.347 259.865,107.707 C266.031,112.066 274.551,114.246 285.425,114.246 Z M286.171,65.9103 C281.662,65.9103 278.198,64.1781 275.778,60.7137 C273.357,57.2493 272.147,52.4671 272.147,46.3671 C272.147,40.2671 273.357,35.3938 275.778,31.747 C278.198,28.1003 281.662,26.2769 286.171,26.2769 C290.613,26.2769 294.069,28.0754 296.539,31.6725 C299.009,35.2695 300.244,40.1677 300.244,46.3671 C300.244,52.5003 299.009,57.2907 296.539,60.7386 C294.069,64.1864 290.613,65.9103 286.171,65.9103 Z " fill="#ffffff" fill-opacity="1.00" />			<path d="M361.612,41.0959 C361.645,36.753 362.83,33.3549 365.167,30.9017 C367.505,28.4484 370.596,27.2218 374.442,27.2218 C378.287,27.2218 381.296,28.4153 383.467,30.8022 C385.639,33.1892 386.708,36.5044 386.675,40.7478 L386.675,84.6578 L410.992,84.6578 L410.992,35.9739 C411.025,30.2386 409.939,25.2161 407.735,20.9063 C405.53,16.5965 402.447,13.2482 398.485,10.8612 C394.523,8.47426 389.857,7.28078 384.487,7.28078 C378.851,7.28078 373.994,8.62344 369.916,11.3088 C365.839,13.9941 362.954,17.6574 361.264,22.2987 L360.418,22.2987 L360.418,8.27535 L337.295,8.27535 L337.295,84.6578 L361.612,84.6578 L361.612,41.0959 Z " fill="#ffffff" fill-opacity="1.00" />		</g>	</svg>