<?xml version="1.0" encoding="utf-8" ?>	<!-- Generator: Assembly 2.2 - http://assemblyapp.co -->	<svg version="1.1" xmlns="http://www.w3.org/2000/svg" xmlns:xlink="http://www.w3.org/1999/xlink" width="2048.00" height="1152.00" viewBox="0 0 2048.0 1151.9999914169312">		<rect x="0" y="0" width="2048.00" height="1152.00" fill="#161616" />		<g id="document" transform="matrix(1,0,0,1,1024.0,575.9999957084656)">			<path d="M79.5271,68.8351 C86.0349,68.8351 91.6562,67.5523 96.3911,64.9867 C101.126,62.4211 104.771,58.7448 107.326,53.9578 C109.881,49.1708 111.159,43.44 111.159,36.7653 C111.159,30.0906 109.876,24.365 107.31,19.5884 C104.745,14.8118 101.1,11.146 96.3755,8.59083 C91.651,6.03568 86.0245,4.7581 79.4958,4.7581 L55.8424,4.7581 L55.8424,68.8351 L79.5271,68.8351 Z M71.3298,17.9615 L78.7136,17.9615 C84.2202,17.9615 88.418,19.3694 91.3069,22.1853 C94.1958,25.0012 95.6402,29.8612 95.6402,36.7653 C95.6402,43.6903 94.2062,48.5659 91.3382,51.3922 C88.4701,54.2185 84.335,55.6317 78.9326,55.6317 L71.3298,55.6317 L71.3298,17.9615 Z " fill="#ffffff" fill-opacity="1.00" />			<path d="M132.249,69.6485 C138.882,69.6485 143.533,67.1455 146.203,62.1395 L146.578,62.1395 L146.578,68.8351 L160.971,68.8351 L160.971,36.1708 C160.971,32.7709 160.048,29.882 158.202,27.5042 C156.356,25.1263 153.832,23.3064 150.63,22.0445 C147.428,20.7826 143.783,20.1516 139.695,20.1516 C133.229,20.1516 128.187,21.6012 124.568,24.5006 C120.949,27.3999 118.837,31.0397 118.232,35.4199 L132.343,35.9205 C132.676,34.377 133.459,33.1672 134.689,32.2912 C135.92,31.4151 137.547,30.9771 139.57,30.9771 C141.447,30.9771 142.939,31.4151 144.044,32.2912 C145.15,33.1672 145.702,34.4083 145.702,36.0144 L145.702,36.1708 C145.702,37.6309 144.832,38.6217 143.09,39.1431 C141.348,39.6646 138.423,40.1026 134.314,40.4572 C131.081,40.7284 128.108,41.3698 125.397,42.3814 C122.685,43.393 120.516,44.947 118.889,47.0433 C117.262,49.1395 116.449,51.9606 116.449,55.5065 C116.449,60.2623 117.935,63.8082 120.907,66.1443 C123.879,68.4805 127.66,69.6485 132.249,69.6485 Z M136.973,59.6365 C135.2,59.6365 133.751,59.2193 132.624,58.385 C131.498,57.5507 130.935,56.3409 130.935,54.7556 C130.935,51.6895 133.198,49.8122 137.724,49.1239 C139.142,48.9153 140.629,48.6546 142.183,48.3417 C143.737,48.0288 144.941,47.6429 145.796,47.1841 L145.796,51.752 C145.796,54.0882 144.936,55.9863 143.215,57.4464 C141.494,58.9065 139.414,59.6365 136.973,59.6365 Z " fill="#ffffff" fill-opacity="1.00" />			<path d="M184.126,68.8351 L184.126,20.7773 L168.826,20.7773 L168.826,68.8351 L184.126,68.8351 Z M176.491,15.1769 C178.661,15.1769 180.512,14.4625 182.045,13.0337 C183.578,11.6049 184.345,9.87884 184.345,7.85557 C184.345,5.83231 183.578,4.11149 182.045,2.69312 C180.512,1.27475 178.661,0.565567 176.491,0.565567 C174.343,0.565567 172.497,1.27475 170.954,2.69312 C169.41,4.11149 168.638,5.83231 168.638,7.85557 C168.638,9.87884 169.41,11.6049 170.954,13.0337 C172.497,14.4625 174.343,15.1769 176.491,15.1769 Z " fill="#ffffff" fill-opacity="1.00" />			<path d="M192.356,4.7581 L192.356,68.8351 L207.656,68.8351 L207.656,4.7581 L192.356,4.7581 Z " fill="#ffffff" fill-opacity="1.00" />			<path d="M224.71,87.5763 C230.091,87.5763 234.378,86.2205 237.569,83.5089 C240.76,80.7973 243.023,77.4913 244.358,73.5908 L262.505,20.7773 L246.392,20.7773 L237.413,55.0685 L236.912,55.0685 L228.058,20.7773 L212.038,20.7773 L229.121,70.5872 L228.496,72.1828 C227.661,73.8932 226.462,74.8579 224.898,75.0769 C223.333,75.2959 221.435,75.03 219.203,74.2791 L215.824,85.9181 C216.721,86.2727 217.905,86.6377 219.375,87.0131 C220.846,87.3886 222.624,87.5763 224.71,87.5763 Z " fill="#ffffff" fill-opacity="1.00" />			<path d="M308.064,68.8351 C314.572,68.8351 320.193,67.5523 324.928,64.9867 C329.663,62.4211 333.308,58.7448 335.863,53.9578 C338.418,49.1708 339.696,43.44 339.696,36.7653 C339.696,30.0906 338.413,24.365 335.847,19.5884 C333.282,14.8118 329.637,11.146 324.912,8.59083 C320.188,6.03568 314.561,4.7581 308.033,4.7581 L284.379,4.7581 L284.379,68.8351 L308.064,68.8351 Z M299.867,17.9615 L307.251,17.9615 C312.757,17.9615 316.955,19.3694 319.844,22.1853 C322.733,25.0012 324.177,29.8612 324.177,36.7653 C324.177,43.6903 322.743,48.5659 319.875,51.3922 C317.007,54.2185 312.872,55.6317 307.47,55.6317 L299.867,55.6317 L299.867,17.9615 Z " fill="#ffffff" fill-opacity="1.00" />			<path d="M369.703,69.7424 C376.002,69.7424 381.133,68.3292 385.096,65.5029 C389.059,62.6766 391.479,58.9065 392.355,54.1925 L378.307,53.7857 C377.723,55.371 376.69,56.586 375.209,57.4307 C373.728,58.2755 371.987,58.6979 369.984,58.6979 C367.043,58.6979 364.723,57.801 363.023,56.0072 C361.323,54.2133 360.473,51.8459 360.473,48.9049 L360.473,48.4981 L392.511,48.4981 L392.511,44.681 C392.511,39.4039 391.521,34.9402 389.539,31.29 C387.557,27.6397 384.815,24.8708 381.31,22.9831 C377.806,21.0954 373.78,20.1516 369.233,20.1516 C364.394,20.1516 360.191,21.1893 356.624,23.2647 C353.058,25.3401 350.294,28.2394 348.333,31.9626 C346.373,35.6859 345.392,40.0296 345.392,44.9939 C345.392,52.6907 347.556,58.7396 351.884,63.1407 C356.213,67.5418 362.152,69.7424 369.703,69.7424 Z M360.473,39.6125 C360.577,37.2137 361.479,35.2113 363.179,33.6052 C364.879,31.9992 367.002,31.1961 369.546,31.1961 C372.07,31.1961 374.151,31.9835 375.788,33.5583 C377.425,35.1331 378.255,37.1512 378.275,39.6125 L360.473,39.6125 Z " fill="#ffffff" fill-opacity="1.00" />			<path d="M440.853,35.4512 C440.456,30.6955 438.381,26.9566 434.626,24.2346 C430.872,21.5126 425.741,20.1516 419.233,20.1516 C412.725,20.1516 407.552,21.497 403.714,24.1877 C399.876,26.8784 397.968,30.6329 397.989,35.4512 C397.926,42.9602 402.682,47.6012 412.256,49.3742 L420.641,50.9699 C424.479,51.7208 426.429,53.1078 426.492,55.1311 C426.471,56.3409 425.845,57.3108 424.614,58.0408 C423.384,58.7709 421.788,59.1359 419.827,59.1359 C417.658,59.1359 415.875,58.677 414.477,57.7593 C413.08,56.8415 412.214,55.5065 411.88,53.7544 L396.769,54.1299 C397.311,58.8856 399.564,62.6766 403.527,65.5029 C407.49,68.3292 412.902,69.7424 419.765,69.7424 C424.062,69.7424 427.879,69.0697 431.216,67.7243 C434.553,66.379 437.187,64.4861 439.116,62.0457 C441.046,59.6052 442.021,56.7372 442.042,53.4416 C441.979,46.5792 437.223,42.2406 427.775,40.4259 L418.513,38.6738 C416.49,38.2567 415.087,37.6987 414.305,36.9999 C413.523,36.3012 413.142,35.4929 413.163,34.5752 C413.142,33.3445 413.752,32.3798 414.994,31.6811 C416.235,30.9823 417.742,30.6329 419.515,30.6329 C421.538,30.6329 423.207,31.1179 424.521,32.0878 C425.835,33.0577 426.596,34.304 426.805,35.8267 L440.853,35.4512 Z " fill="#ffffff" fill-opacity="1.00" />			<path d="M463.382,68.8351 L463.382,20.7773 L448.082,20.7773 L448.082,68.8351 L463.382,68.8351 Z M455.748,15.1769 C457.917,15.1769 459.768,14.4625 461.301,13.0337 C462.834,11.6049 463.601,9.87884 463.601,7.85557 C463.601,5.83231 462.834,4.11149 461.301,2.69312 C459.768,1.27475 457.917,0.565567 455.748,0.565567 C453.599,0.565567 451.753,1.27475 450.21,2.69312 C448.666,4.11149 447.895,5.83231 447.895,7.85557 C447.895,9.87884 448.666,11.6049 450.21,13.0337 C451.753,14.4625 453.599,15.1769 455.748,15.1769 Z " fill="#ffffff" fill-opacity="1.00" />			<path d="M494.014,87.4512 C498.854,87.4512 503.098,86.7368 506.749,85.308 C510.399,83.8792 513.251,81.7933 515.306,79.0505 C517.36,76.3076 518.387,72.965 518.387,69.0228 L518.387,20.7773 L503.15,20.7773 L503.15,29.006 L502.712,29.006 C501.795,26.795 500.246,24.7665 498.066,22.9205 C495.887,21.0746 492.899,20.1516 489.102,20.1516 C485.765,20.1516 482.636,21.0276 479.716,22.7797 C476.796,24.5318 474.439,27.2226 472.645,30.8519 C470.851,34.4813 469.954,39.1119 469.954,44.7436 C469.954,50.1877 470.825,54.6357 472.567,58.0878 C474.309,61.5398 476.634,64.0846 479.544,65.7219 C482.454,67.3593 485.661,68.178 489.165,68.178 C492.711,68.178 495.641,67.4428 497.957,65.9722 C500.272,64.5017 501.878,62.661 502.775,60.45 L503.307,60.45 L503.307,68.8976 C503.307,71.7761 502.467,73.8202 500.788,75.03 C499.109,76.2398 496.987,76.8447 494.421,76.8447 C491.96,76.8447 490.004,76.4223 488.555,75.5775 C487.105,74.7328 486.172,73.6742 485.755,72.4018 L471.268,73.2153 C471.832,77.2201 474.053,80.594 477.933,83.3368 C481.812,86.0797 487.173,87.4512 494.014,87.4512 Z M494.484,57.0396 C491.647,57.0396 489.467,55.9498 487.945,53.7701 C486.422,51.5904 485.661,48.5816 485.661,44.7436 C485.661,40.9057 486.422,37.8395 487.945,35.5451 C489.467,33.2507 491.647,32.1034 494.484,32.1034 C497.279,32.1034 499.453,33.235 501.007,35.4981 C502.561,37.7613 503.338,40.8431 503.338,44.7436 C503.338,48.6024 502.561,51.6165 501.007,53.7857 C499.453,55.955 497.279,57.0396 494.484,57.0396 Z " fill="#ffffff" fill-opacity="1.00" />			<path d="M541.949,41.4271 C541.97,38.6947 542.716,36.5567 544.186,35.0132 C545.657,33.4697 547.602,32.6979 550.021,32.6979 C552.441,32.6979 554.334,33.4488 555.7,34.9506 C557.066,36.4524 557.739,38.5383 557.718,41.2081 L557.718,68.8351 L573.018,68.8351 L573.018,38.2045 C573.039,34.596 572.355,31.436 570.968,28.7244 C569.581,26.0128 567.641,23.9061 565.149,22.4043 C562.656,20.9025 559.72,20.1516 556.341,20.1516 C552.795,20.1516 549.74,20.9964 547.174,22.6859 C544.609,24.3754 542.794,26.6803 541.73,29.6004 L541.198,29.6004 L541.198,20.7773 L526.65,20.7773 L526.65,68.8351 L541.949,68.8351 L541.949,41.4271 Z " fill="#ffffff" fill-opacity="1.00" />			<path d="M65.036,-46.3881 L65.036,-53.6092 L60.405,-53.6092 L60.405,-46.3881 L55.8526,-46.3881 L55.8526,-42.4635 L60.405,-42.4635 L60.405,-23.6258 C60.405,-21.8728 60.8139,-20.4207 61.6315,-19.2695 C62.4491,-18.1183 63.4825,-17.2615 64.7318,-16.699 C65.9812,-16.1365 67.2599,-15.8552 68.5681,-15.8552 C69.4315,-15.8552 70.1444,-15.9173 70.7069,-16.0416 C71.2695,-16.1659 71.7077,-16.2869 72.0217,-16.4046 L71.0798,-20.5646 C70.8836,-20.5254 70.6219,-20.4763 70.2949,-20.4175 C69.9678,-20.3586 69.5492,-20.3292 69.039,-20.3292 C68.3588,-20.3292 67.7145,-20.4371 67.1062,-20.6529 C66.4979,-20.8688 66.0008,-21.3005 65.6149,-21.948 C65.229,-22.5956 65.036,-23.5734 65.036,-24.8816 L65.036,-42.4635 L71.4722,-42.4635 L71.4722,-46.3881 L65.036,-46.3881 Z " fill="#ffffff" fill-opacity="1.00" />			<path d="M83.0888,-34.379 C83.0888,-37.0084 83.8378,-39.0394 85.3356,-40.4718 C86.8335,-41.9043 88.7271,-42.6205 91.0164,-42.6205 C93.2011,-42.6205 94.9115,-41.9632 96.1477,-40.6484 C97.384,-39.3337 98.0021,-37.4794 98.0021,-35.0854 L98.0021,-16.2476 L102.633,-16.2476 L102.633,-35.3994 C102.633,-39.2716 101.691,-42.1365 99.8074,-43.9941 C97.9236,-45.8517 95.438,-46.7805 92.3507,-46.7805 C89.9829,-46.7805 88.0894,-46.3194 86.67,-45.3971 C85.2506,-44.4749 84.1877,-43.2354 83.4813,-41.6786 L83.0888,-41.6786 L83.0888,-56.4349 L78.4579,-56.4349 L78.4579,-16.2476 L83.0888,-16.2476 L83.0888,-34.379 Z " fill="#ffffff" fill-opacity="1.00" />			<path d="M123.747,-15.6197 C126.808,-15.6197 129.398,-16.3196 131.518,-17.7193 C133.637,-19.1191 135.05,-20.9571 135.756,-23.2333 L131.282,-24.4892 C130.693,-22.9194 129.745,-21.742 128.437,-20.9571 C127.129,-20.1722 125.565,-19.7797 123.747,-19.7797 C121.026,-19.7797 118.805,-20.6366 117.085,-22.3503 C115.365,-24.064 114.452,-26.5299 114.348,-29.748 L136.227,-29.748 L136.227,-31.7103 C136.227,-34.5229 135.854,-36.8907 135.109,-38.8137 C134.363,-40.7367 133.362,-42.2837 132.106,-43.4545 C130.85,-44.6253 129.457,-45.4723 127.927,-45.9956 C126.396,-46.5189 124.846,-46.7805 123.276,-46.7805 C120.555,-46.7805 118.177,-46.1166 116.143,-44.7888 C114.109,-43.461 112.526,-41.6165 111.395,-39.2552 C110.263,-36.894 109.697,-34.1697 109.697,-31.0824 C109.697,-27.9951 110.263,-25.2904 111.395,-22.9684 C112.526,-20.6464 114.142,-18.8411 116.241,-17.5526 C118.341,-16.264 120.843,-15.6197 123.747,-15.6197 Z M114.348,-33.7511 C114.452,-35.3078 114.878,-36.7631 115.623,-38.1171 C116.369,-39.4711 117.389,-40.5601 118.684,-41.3843 C119.979,-42.2084 121.51,-42.6205 123.276,-42.6205 C125.788,-42.6205 127.789,-41.78 129.281,-40.099 C130.772,-38.418 131.518,-36.302 131.518,-33.7511 L114.348,-33.7511 Z " fill="#ffffff" fill-opacity="1.00" />			<g>				<path d="M-229.114,71.2672 C-229.114,75.4759 -225.677,78.9124 -221.469,78.9124 L-140.708,78.9124 C-136.5,78.9124 -133.063,75.4759 -133.063,71.2672 C-133.063,67.0584 -136.5,63.6219 -140.708,63.6219 L-221.469,63.6219 C-225.677,63.6219 -229.114,67.0584 -229.114,71.2672 Z " fill="#ffffff" fill-opacity="1.00" />				<path d="M-272.247,43.5352 C-272.247,47.744 -268.81,51.1805 -264.601,51.1805 L-201.187,51.1805 C-196.978,51.1805 -193.541,47.744 -193.541,43.5352 C-193.541,39.3265 -196.978,35.89 -201.187,35.89 L-264.601,35.89 C-268.81,35.89 -272.247,39.3265 -272.247,43.5352 Z " fill="#ffffff" fill-opacity="1.00" />				<path d="M-383.787,74.4975 C-383.787,78.7062 -380.35,82.1428 -376.141,82.1428 L-312.727,82.1428 C-308.518,82.1428 -305.081,78.7062 -305.081,74.4975 C-305.081,70.2887 -308.518,66.8522 -312.727,66.8522 L-376.141,66.8522 C-380.35,66.8522 -383.787,70.2887 -383.787,74.4975 Z " fill="#ffffff" fill-opacity="1.00" />				<path d="M-279.909,-59.452 C-279.909,-55.2432 -276.473,-51.8067 -272.264,-51.8067 L-228.31,-51.8067 C-224.101,-51.8067 -220.664,-55.2432 -220.664,-59.452 C-220.664,-63.6607 -224.101,-67.0972 -228.31,-67.0972 L-272.264,-67.0972 C-276.473,-67.0972 -279.909,-63.6607 -279.909,-59.452 Z " fill="#ffffff" fill-opacity="1.00" />				<path d="M-297.527,178.645 C-218.035,178.645 -146.797,107.254 -145.727,26.8447 M-145.727,23.7161 C-145.727,-55.7764 -217.117,-127.014 -297.527,-128.084 M-303.201,-128.125 C-344.739,-128.125 -418.507,-108.709 -416.093,-69.5297 " fill="none" stroke-width="6.18" stroke="#ffffff" stroke-linecap="square" stroke-linejoin="miter" />				<path d="M-313.792,185.531 L-300.02,185.531 L-300.02,171.759 L-313.792,171.759 L-313.792,185.531 Z " fill="none" stroke-width="4.99" stroke="#ffffff" stroke-linecap="square" stroke-linejoin="miter" />				<path d="M-396.716,-31.7201 C-396.716,-27.5113 -400.153,-24.0748 -404.362,-24.0748 L-448.316,-24.0748 C-452.525,-24.0748 -455.961,-27.5113 -455.961,-31.7201 C-455.961,-35.9288 -452.525,-39.3653 -448.316,-39.3653 L-404.362,-39.3653 C-400.153,-39.3653 -396.716,-35.9288 -396.716,-31.7201 Z " fill="#ffffff" fill-opacity="1.00" />				<path d="M-310.459,130.354 L-310.317,130.296 C-310.317,130.296 -353.566,14.7582 -392.397,-70.3685 C-431.229,-155.495 -465.643,-210.211 -465.643,-210.211 C-465.643,-210.211 -451.703,-147.121 -419.743,-59.183 C-387.783,28.7546 -337.804,141.539 -337.804,141.539 L-337.662,141.481 L-346.394,162.301 L-306.409,179.07 L-289.639,139.086 L-310.459,130.354 L-310.459,130.354 Z " fill="#ffffff" fill-opacity="1.00" />				<path d="M-313.614,155.118 C-311.986,153.45 -311.409,150.914 -312.348,148.618 C-313.61,145.533 -317.13,144.057 -320.215,145.319 C-323.3,146.581 -324.776,150.1 -323.514,153.185 C-322.575,155.481 -320.386,156.886 -318.056,156.935 L-309.523,177.795 L-306.409,179.07 L-305.081,175.979 L-313.614,155.118 L-313.614,155.118 Z " fill="#161616" fill-opacity="1.00" />				<path d="M-346.394,162.301 L-325.842,132.673 L-289.639,139.086 L-329.624,122.316 L-346.394,162.301 Z " fill="#ffffff" fill-opacity="1.00" />				<path d="M-346.394,162.301 L-327.015,128.694 L-289.639,139.086 L-329.624,122.316 L-346.394,162.301 Z " fill="#ffffff" fill-opacity="1.00" />				<path d="M-212.937,-31.3043 C-212.937,-27.0955 -209.5,-23.659 -205.291,-23.659 L-92.2079,-23.659 C-87.9991,-23.659 -84.5626,-27.0955 -84.5626,-31.3043 C-84.5626,-35.513 -87.9991,-38.9496 -92.2079,-38.9496 L-205.291,-38.9496 C-209.5,-38.9496 -212.937,-35.513 -212.937,-31.3043 Z " fill="#ffffff" fill-opacity="1.00" />				<path d="M-289.639,9.69118 C-289.639,13.8999 -286.203,17.3364 -281.994,17.3364 L-168.911,17.3364 C-164.702,17.3364 -161.265,13.8999 -161.265,9.69118 C-161.265,5.48242 -164.702,2.04592 -168.911,2.04592 L-281.994,2.04592 C-286.203,2.04592 -289.639,5.48242 -289.639,9.69118 Z " fill="#ffffff" fill-opacity="1.00" />				<path d="M-330.232,-18.0407 C-330.232,-13.832 -326.795,-10.3955 -322.587,-10.3955 L-241.827,-10.3955 C-237.618,-10.3955 -234.181,-13.832 -234.181,-18.0407 C-234.181,-22.2495 -237.618,-25.686 -241.827,-25.686 L-322.587,-25.686 C-326.795,-25.686 -330.232,-22.2495 -330.232,-18.0407 Z " fill="#ffffff" fill-opacity="1.00" />				<path d="M-447.512,98.9991 C-447.512,103.208 -450.948,106.644 -455.157,106.644 L-535.917,106.644 C-540.126,106.644 -543.562,103.208 -543.562,98.9991 C-543.562,94.7903 -540.126,91.3538 -535.917,91.3538 L-455.157,91.3538 C-450.948,91.3538 -447.512,94.7903 -447.512,98.9991 Z " fill="#ffffff" fill-opacity="1.00" />				<path d="M-404.379,71.2672 C-404.379,75.4759 -407.816,78.9124 -412.024,78.9124 L-475.439,78.9124 C-479.648,78.9124 -483.084,75.4759 -483.084,71.2672 C-483.084,67.0584 -479.648,63.6219 -475.439,63.6219 L-412.024,63.6219 C-407.816,63.6219 -404.379,67.0584 -404.379,71.2672 Z " fill="#ffffff" fill-opacity="1.00" />				<path d="M-358.609,129.961 C-358.609,134.17 -362.046,137.607 -366.254,137.607 L-429.669,137.607 C-433.878,137.607 -437.314,134.17 -437.314,129.961 C-437.314,125.753 -433.878,122.316 -429.669,122.316 L-366.254,122.316 C-362.046,122.316 -358.609,125.753 -358.609,129.961 Z " fill="#ffffff" fill-opacity="1.00" />				<path d="M-386.986,37.4231 C-386.986,41.6319 -390.423,45.0684 -394.631,45.0684 L-507.715,45.0684 C-511.924,45.0684 -515.36,41.6319 -515.36,37.4231 C-515.36,33.2143 -511.924,29.7778 -507.715,29.7778 L-394.631,29.7778 C-390.423,29.7778 -386.986,33.2143 -386.986,37.4231 Z " fill="#ffffff" fill-opacity="1.00" />				<path d="M-346.394,9.69118 C-346.394,13.8999 -349.83,17.3364 -354.039,17.3364 L-434.799,17.3364 C-439.008,17.3364 -442.444,13.8999 -442.444,9.69118 C-442.444,5.48242 -439.008,2.04592 -434.799,2.04592 L-354.039,2.04592 C-349.83,2.04592 -346.394,5.48242 -346.394,9.69118 Z " fill="#ffffff" fill-opacity="1.00" />				<path d="M-144.731,44.7693 C-140.258,44.2443 -136.791,40.4443 -136.791,35.8287 C-136.791,31.6321 -139.657,28.1099 -143.539,27.1102 L-137.159,-67.4121 L-137.048,-69.0703 L-140.364,-69.2941 L-140.476,-67.6359 L-146.856,26.8881 C-151.33,27.413 -154.796,31.213 -154.796,35.8287 C-154.796,40.0252 -151.931,43.5475 -148.048,44.5471 L-154.428,139.069 L-154.54,140.728 L-151.223,140.951 L-151.111,139.293 L-144.731,44.7693 L-144.731,44.7693 Z " fill="#ffffff" fill-opacity="1.00" />				<path d="M-152.944,151.079 C-150.017,151.079 -147.647,148.709 -147.647,145.782 C-147.647,142.854 -150.017,140.484 -152.944,140.484 C-155.872,140.484 -158.242,142.854 -158.242,145.782 C-158.242,148.709 -155.872,151.079 -152.944,151.079 Z " fill="none" stroke-width="3.06" stroke="#ffffff" stroke-linecap="square" stroke-linejoin="miter" />				<path d="M-138.361,-68.628 C-135.433,-68.628 -133.063,-70.9979 -133.063,-73.9254 C-133.063,-76.8529 -135.433,-79.2228 -138.361,-79.2228 C-141.288,-79.2228 -143.658,-76.8529 -143.658,-73.9254 C-143.658,-70.9979 -141.288,-68.628 -138.361,-68.628 Z " fill="none" stroke-width="3.06" stroke="#ffffff" stroke-linecap="square" stroke-linejoin="miter" />				<path d="M-330.828,102.229 C-330.828,106.438 -327.392,109.875 -323.183,109.875 L-259.768,109.875 C-255.559,109.875 -252.123,106.438 -252.123,102.229 C-252.123,98.0206 -255.559,94.5841 -259.768,94.5841 L-323.183,94.5841 C-327.392,94.5841 -330.828,98.0206 -330.828,102.229 Z " fill="#ffffff" fill-opacity="1.00" />				<path d="M65.036,-46.3881 L65.036,-53.6092 L60.405,-53.6092 L60.405,-46.3881 L55.8526,-46.3881 L55.8526,-42.4635 L60.405,-42.4635 L60.405,-23.6258 C60.405,-21.8728 60.8139,-20.4207 61.6315,-19.2695 C62.4491,-18.1183 63.4825,-17.2615 64.7318,-16.699 C65.9812,-16.1365 67.2599,-15.8552 68.5681,-15.8552 C69.4315,-15.8552 70.1444,-15.9173 70.7069,-16.0416 C71.2695,-16.1659 71.7077,-16.2869 72.0217,-16.4046 L71.0798,-20.5646 C70.8836,-20.5254 70.6219,-20.4763 70.2949,-20.4175 C69.9678,-20.3586 69.5492,-20.3292 69.039,-20.3292 C68.3588,-20.3292 67.7145,-20.4371 67.1062,-20.6529 C66.4979,-20.8688 66.0008,-21.3005 65.6149,-21.948 C65.229,-22.5956 65.036,-23.5734 65.036,-24.8816 L65.036,-42.4635 L71.4722,-42.4635 L71.4722,-46.3881 L65.036,-46.3881 Z M83.0888,-34.379 C83.0888,-37.0084 83.8378,-39.0394 85.3356,-40.4718 C86.8335,-41.9043 88.7271,-42.6205 91.0164,-42.6205 C93.2011,-42.6205 94.9115,-41.9632 96.1477,-40.6484 C97.384,-39.3337 98.0021,-37.4794 98.0021,-35.0854 L98.0021,-16.2476 L102.633,-16.2476 L102.633,-35.3994 C102.633,-39.2716 101.691,-42.1365 99.8074,-43.9941 C97.9236,-45.8517 95.438,-46.7805 92.3507,-46.7805 C89.9829,-46.7805 88.0894,-46.3194 86.67,-45.3971 C85.2506,-44.4749 84.1877,-43.2354 83.4813,-41.6786 L83.0888,-41.6786 L83.0888,-56.4349 L78.4579,-56.4349 L78.4579,-16.2476 L83.0888,-16.2476 L83.0888,-34.379 Z M123.747,-15.6197 C126.808,-15.6197 129.398,-16.3196 131.518,-17.7193 C133.637,-19.1191 135.05,-20.9571 135.756,-23.2333 L131.282,-24.4892 C130.693,-22.9194 129.745,-21.742 128.437,-20.9571 C127.129,-20.1722 125.565,-19.7797 123.747,-19.7797 C121.026,-19.7797 118.805,-20.6366 117.085,-22.3503 C115.365,-24.064 114.452,-26.5299 114.348,-29.748 L136.227,-29.748 L136.227,-31.7103 C136.227,-34.5229 135.854,-36.8907 135.109,-38.8137 C134.363,-40.7367 133.362,-42.2837 132.106,-43.4545 C130.85,-44.6253 129.457,-45.4723 127.927,-45.9956 C126.396,-46.5189 124.846,-46.7805 123.276,-46.7805 C120.555,-46.7805 118.177,-46.1166 116.143,-44.7888 C114.109,-43.461 112.526,-41.6165 111.395,-39.2552 C110.263,-36.894 109.697,-34.1697 109.697,-31.0824 C109.697,-27.9951 110.263,-25.2904 111.395,-22.9684 C112.526,-20.6464 114.142,-18.8411 116.241,-17.5526 C118.341,-16.264 120.843,-15.6197 123.747,-15.6197 Z M114.348,-33.7511 C114.452,-35.3078 114.878,-36.7631 115.623,-38.1171 C116.369,-39.4711 117.389,-40.5601 118.684,-41.3843 C119.979,-42.2084 121.51,-42.6205 123.276,-42.6205 C125.788,-42.6205 127.789,-41.78 129.281,-40.099 C130.772,-38.418 131.518,-36.302 131.518,-33.7511 L114.348,-33.7511 Z " fill="#ffffff" fill-opacity="1.00" />				<path d="M79.5271,68.8351 C86.0349,68.8351 91.6562,67.5523 96.3911,64.9867 C101.126,62.4211 104.771,58.7448 107.326,53.9578 C109.881,49.1708 111.159,43.44 111.159,36.7653 C111.159,30.0906 109.876,24.365 107.31,19.5884 C104.745,14.8118 101.1,11.146 96.3755,8.59083 C91.651,6.03568 86.0245,4.7581 79.4958,4.7581 L55.8424,4.7581 L55.8424,68.8351 L79.5271,68.8351 Z M71.3297,17.9615 L78.7136,17.9615 C84.2202,17.9615 88.418,19.3694 91.3069,22.1853 C94.1958,25.0012 95.6402,29.8612 95.6402,36.7653 C95.6402,43.6903 94.2062,48.5659 91.3382,51.3922 C88.4701,54.2185 84.335,55.6317 78.9326,55.6317 L71.3297,55.6317 L71.3297,17.9615 Z M132.249,69.6485 C138.882,69.6485 143.533,67.1455 146.203,62.1395 L146.578,62.1395 L146.578,68.8351 L160.971,68.8351 L160.971,36.1708 C160.971,32.7709 160.048,29.882 158.202,27.5042 C156.356,25.1263 153.832,23.3064 150.63,22.0445 C147.428,20.7826 143.783,20.1516 139.695,20.1516 C133.229,20.1516 128.187,21.6012 124.568,24.5006 C120.949,27.3999 118.837,31.0397 118.232,35.4199 L132.343,35.9205 C132.676,34.377 133.459,33.1672 134.689,32.2912 C135.92,31.4151 137.547,30.9771 139.57,30.9771 C141.447,30.9771 142.939,31.4151 144.044,32.2912 C145.15,33.1672 145.702,34.4083 145.702,36.0144 L145.702,36.1708 C145.702,37.6309 144.832,38.6217 143.09,39.1431 C141.348,39.6646 138.423,40.1026 134.314,40.4572 C131.081,40.7284 128.108,41.3698 125.397,42.3814 C122.685,43.393 120.516,44.947 118.889,47.0433 C117.262,49.1395 116.449,51.9606 116.449,55.5065 C116.449,60.2623 117.935,63.8082 120.907,66.1443 C123.879,68.4805 127.66,69.6485 132.249,69.6485 Z M136.973,59.6365 C135.2,59.6365 133.751,59.2193 132.624,58.385 C131.498,57.5507 130.935,56.3409 130.935,54.7556 C130.935,51.6895 133.198,49.8122 137.724,49.1239 C139.142,48.9153 140.629,48.6546 142.183,48.3417 C143.737,48.0288 144.941,47.6429 145.796,47.1841 L145.796,51.752 C145.796,54.0882 144.936,55.9863 143.215,57.4464 C141.494,58.9065 139.414,59.6365 136.973,59.6365 Z M184.126,68.8351 L184.126,20.7773 L168.826,20.7773 L168.826,68.8351 L184.126,68.8351 Z M176.491,15.1769 C178.661,15.1769 180.512,14.4625 182.045,13.0337 C183.578,11.6049 184.345,9.87884 184.345,7.85557 C184.345,5.83231 183.578,4.11149 182.045,2.69312 C180.512,1.27475 178.661,0.565567 176.491,0.565567 C174.343,0.565567 172.497,1.27475 170.954,2.69312 C169.41,4.11149 168.638,5.83231 168.638,7.85557 C168.638,9.87884 169.41,11.6049 170.954,13.0337 C172.497,14.4625 174.343,15.1769 176.491,15.1769 Z M192.356,4.7581 L192.356,68.8351 L207.656,68.8351 L207.656,4.7581 L192.356,4.7581 Z M224.71,87.5763 C230.091,87.5763 234.378,86.2205 237.569,83.5089 C240.76,80.7973 243.023,77.4913 244.358,73.5908 L262.505,20.7773 L246.392,20.7773 L237.413,55.0685 L236.912,55.0685 L228.058,20.7773 L212.038,20.7773 L229.121,70.5872 L228.496,72.1828 C227.661,73.8932 226.462,74.8579 224.898,75.0769 C223.333,75.2959 221.435,75.03 219.203,74.2791 L215.824,85.9181 C216.721,86.2727 217.905,86.6377 219.375,87.0131 C220.846,87.3886 222.624,87.5763 224.71,87.5763 Z M308.064,68.8351 C314.572,68.8351 320.193,67.5523 324.928,64.9867 C329.663,62.4211 333.308,58.7448 335.863,53.9578 C338.418,49.1708 339.696,43.44 339.696,36.7653 C339.696,30.0906 338.413,24.365 335.847,19.5884 C333.282,14.8118 329.637,11.146 324.912,8.59083 C320.188,6.03568 314.561,4.7581 308.033,4.7581 L284.379,4.7581 L284.379,68.8351 L308.064,68.8351 Z M299.867,17.9615 L307.251,17.9615 C312.757,17.9615 316.955,19.3694 319.844,22.1853 C322.733,25.0012 324.177,29.8612 324.177,36.7653 C324.177,43.6903 322.743,48.5659 319.875,51.3922 C317.007,54.2185 312.872,55.6317 307.47,55.6317 L299.867,55.6317 L299.867,17.9615 Z M369.703,69.7424 C376.002,69.7424 381.133,68.3292 385.096,65.5029 C389.059,62.6766 391.479,58.9065 392.355,54.1925 L378.307,53.7857 C377.723,55.371 376.69,56.586 375.209,57.4307 C373.728,58.2755 371.987,58.6979 369.984,58.6979 C367.043,58.6979 364.723,57.801 363.023,56.0072 C361.323,54.2133 360.473,51.8459 360.473,48.9049 L360.473,48.4981 L392.511,48.4981 L392.511,44.681 C392.511,39.4039 391.521,34.9402 389.539,31.29 C387.557,27.6397 384.815,24.8708 381.31,22.9831 C377.806,21.0954 373.78,20.1516 369.233,20.1516 C364.394,20.1516 360.191,21.1893 356.624,23.2647 C353.058,25.3401 350.294,28.2394 348.333,31.9626 C346.373,35.6859 345.392,40.0296 345.392,44.9939 C345.392,52.6907 347.556,58.7396 351.884,63.1407 C356.213,67.5418 362.152,69.7424 369.703,69.7424 Z M360.473,39.6125 C360.577,37.2137 361.479,35.2113 363.179,33.6052 C364.879,31.9992 367.002,31.1961 369.546,31.1961 C372.07,31.1961 374.151,31.9835 375.788,33.5583 C377.425,35.1331 378.255,37.1512 378.275,39.6125 L360.473,39.6125 Z M440.853,35.4512 C440.456,30.6955 438.381,26.9566 434.626,24.2346 C430.872,21.5126 425.741,20.1516 419.233,20.1516 C412.725,20.1516 407.552,21.497 403.714,24.1877 C399.876,26.8784 397.968,30.6329 397.989,35.4512 C397.926,42.9602 402.682,47.6012 412.256,49.3742 L420.641,50.9699 C424.479,51.7208 426.429,53.1078 426.492,55.1311 C426.471,56.3409 425.845,57.3108 424.614,58.0408 C423.384,58.7709 421.788,59.1359 419.827,59.1359 C417.658,59.1359 415.875,58.677 414.477,57.7593 C413.08,56.8415 412.214,55.5065 411.88,53.7544 L396.769,54.1299 C397.311,58.8856 399.564,62.6766 403.527,65.5029 C407.49,68.3292 412.902,69.7424 419.765,69.7424 C424.062,69.7424 427.879,69.0697 431.216,67.7243 C434.553,66.379 437.187,64.4861 439.116,62.0457 C441.046,59.6052 442.021,56.7372 442.042,53.4416 C441.979,46.5792 437.223,42.2406 427.775,40.4259 L418.513,38.6738 C416.49,38.2567 415.087,37.6987 414.305,36.9999 C413.523,36.3012 413.142,35.4929 413.163,34.5752 C413.142,33.3445 413.752,32.3798 414.994,31.6811 C416.235,30.9823 417.742,30.6329 419.515,30.6329 C421.538,30.6329 423.207,31.1179 424.521,32.0878 C425.835,33.0577 426.596,34.304 426.805,35.8267 L440.853,35.4512 Z M463.382,68.8351 L463.382,20.7773 L448.082,20.7773 L448.082,68.8351 L463.382,68.8351 Z M455.748,15.1769 C457.917,15.1769 459.768,14.4625 461.301,13.0337 C462.834,11.6049 463.601,9.87884 463.601,7.85557 C463.601,5.83231 462.834,4.11149 461.301,2.69312 C459.768,1.27475 457.917,0.565567 455.748,0.565567 C453.599,0.565567 451.753,1.27475 450.21,2.69312 C448.666,4.11149 447.894,5.83231 447.894,7.85557 C447.894,9.87884 448.666,11.6049 450.21,13.0337 C451.753,14.4625 453.599,15.1769 455.748,15.1769 Z M494.014,87.4512 C498.854,87.4512 503.098,86.7368 506.749,85.308 C510.399,83.8792 513.251,81.7933 515.306,79.0505 C517.36,76.3076 518.387,72.965 518.387,69.0228 L518.387,20.7773 L503.15,20.7773 L503.15,29.006 L502.712,29.006 C501.795,26.795 500.246,24.7665 498.066,22.9205 C495.887,21.0746 492.899,20.1516 489.102,20.1516 C485.765,20.1516 482.636,21.0276 479.716,22.7797 C476.796,24.5318 474.439,27.2226 472.645,30.8519 C470.851,34.4813 469.954,39.1119 469.954,44.7436 C469.954,50.1877 470.825,54.6357 472.567,58.0878 C474.309,61.5398 476.634,64.0846 479.544,65.7219 C482.454,67.3593 485.661,68.178 489.165,68.178 C492.711,68.178 495.641,67.4428 497.957,65.9722 C500.272,64.5017 501.878,62.661 502.775,60.45 L503.307,60.45 L503.307,68.8976 C503.307,71.7761 502.467,73.8202 500.788,75.03 C499.109,76.2398 496.987,76.8447 494.421,76.8447 C491.96,76.8447 490.004,76.4223 488.555,75.5775 C487.105,74.7328 486.172,73.6742 485.755,72.4018 L471.268,73.2153 C471.832,77.2201 474.053,80.594 477.933,83.3368 C481.812,86.0797 487.173,87.4512 494.014,87.4512 Z M494.484,57.0396 C491.647,57.0396 489.467,55.9498 487.945,53.7701 C486.422,51.5904 485.661,48.5816 485.661,44.7436 C485.661,40.9057 486.422,37.8395 487.945,35.5451 C489.467,33.2507 491.647,32.1034 494.484,32.1034 C497.279,32.1034 499.453,33.235 501.007,35.4981 C502.561,37.7613 503.338,40.8431 503.338,44.7436 C503.338,48.6024 502.561,51.6165 501.007,53.7857 C499.453,55.955 497.279,57.0396 494.484,57.0396 Z M541.949,41.4271 C541.97,38.6947 542.716,36.5567 544.186,35.0132 C545.657,33.4697 547.602,32.6979 550.021,32.6979 C552.441,32.6979 554.334,33.4488 555.7,34.9506 C557.066,36.4524 557.739,38.5383 557.718,41.2081 L557.718,68.8351 L573.018,68.8351 L573.018,38.2045 C573.039,34.596 572.355,31.436 570.968,28.7244 C569.581,26.0128 567.641,23.9061 565.149,22.4043 C562.656,20.9025 559.72,20.1516 556.341,20.1516 C552.795,20.1516 549.74,20.9964 547.174,22.6859 C544.609,24.3754 542.794,26.6803 541.73,29.6004 L541.198,29.6004 L541.198,20.7773 L526.649,20.7773 L526.649,68.8351 L541.949,68.8351 L541.949,41.4271 Z " fill="#ffffff" fill-opacity="1.00" />			</g>		</g>	</svg>