<?xml version="1.0" encoding="utf-8" ?>	<!-- Generator: Assembly 2.2 - http://assemblyapp.co -->	<svg version="1.1" xmlns="http://www.w3.org/2000/svg" xmlns:xlink="http://www.w3.org/1999/xlink" width="2048.00" height="2048.00" viewBox="0 0 2048.0 2048.0">		<g id="document" transform="matrix(1,0,0,1,1024.0,1024.0)">			<path d="M-809.932,-50.405 L-746.269,-2.07953 L-649.389,-32.612 C-649.389,-32.612 -673.532,-23.6395 -690.549,-43.9938 C-707.566,-64.3482 -732.546,-64.752 -742.21,-77.6656 C-751.874,-90.5792 -761.607,-114.068 -761.607,-114.068 L-809.932,-50.405 Z " fill="#ff783d" fill-opacity="1.00" />			<path d="M-315.827,138.836 L-207.849,138.836 L-128.539,26.8478 C-128.539,26.8478 -147.19,56.2234 -182.127,48.2206 C-217.064,40.2177 -244.274,60.1876 -265.221,54.1854 C-286.168,48.1833 -315.827,30.8579 -315.827,30.8579 L-315.827,138.836 Z " fill="#ff783d" fill-opacity="1.00" />			<path d="M-28.7648,122.167 L132.724,138.836 L251.337,26.8479 C251.337,26.8479 223.443,56.2235 171.193,48.2206 C118.942,40.2178 78.2478,60.1876 46.92,54.1855 C15.5922,48.1834 -28.7648,30.8579 -28.7648,30.8579 L-28.7648,122.167 Z " fill="#ff783d" fill-opacity="1.00" />			<path d="M696.677,2.01905e-06 L768.615,2.01905e-06 C816.387,19.7258 836.971,45.4285 818.962,20.8349 C800.952,-3.75875 748.795,-52.165 734.84,-58.1672 C720.885,-64.1693 696.677,-107.978 696.677,-107.978 L696.677,2.01905e-06 Z " fill="#ff783d" fill-opacity="1.00" />			<path d="M-546.418,105.899 L-474.48,105.899 C-426.709,125.625 -370.804,127.345 -388.814,102.751 C-406.824,78.1575 -493.423,72.4795 -512.857,57.2628 C-532.291,42.046 -546.418,-2.07953 -546.418,-2.07953 L-546.418,105.899 Z " fill="#ff783d" fill-opacity="1.00" />			<path d="M-821.453,-18.5919 L-821.453,-18.5919 L-821.453,14.1633 L-821.453,14.1633 L-821.453,138.836 L-788.945,138.836 L-788.945,14.1633 L-637.868,14.1633 L-637.868,-18.5919 L-788.945,-18.5919 L-788.945,-61.7248 C-788.945,-88.7066 -767.164,-110.487 -740.183,-110.487 C-740.183,-110.487 -740.183,-110.487 -740.183,-110.487 L-637.868,-110.487 L-637.868,-142.995 L-740.183,-142.995 L-740.183,-142.995 C-740.183,-142.995 -740.183,-142.995 -740.183,-142.995 C-785.044,-142.995 -821.453,-106.586 -821.453,-61.7248 L-821.453,-18.5919 L-821.453,-18.5919 Z " fill="#000000" fill-opacity="1.00" stroke-width="23.40" stroke="#000000" stroke-linecap="square" stroke-linejoin="miter" />			<path d="M-573.841,14.4329 L-573.841,14.4329 L-573.841,-18.3223 L-573.841,-18.3223 L-573.841,-142.995 L-541.332,-142.995 L-541.332,-18.3223 L-541.332,14.4329 L-541.332,57.5658 C-541.332,84.5476 -519.552,106.328 -492.57,106.328 C-492.57,106.328 -492.57,106.328 -492.57,106.328 L-390.256,106.328 L-390.256,138.836 L-492.57,138.836 L-492.57,138.836 C-492.57,138.836 -492.57,138.836 -492.57,138.836 C-537.431,138.836 -573.841,102.427 -573.841,57.5658 L-573.841,14.4329 L-573.841,14.4329 Z " fill="#000000" fill-opacity="1.00" stroke-width="23.40" stroke="#000000" stroke-linecap="square" stroke-linejoin="miter" />			<path d="M669.755,-71.6816 L696.617,-71.6816 C696.617,-93.9769 714.614,-111.974 736.909,-111.974 C736.909,-111.974 736.909,-111.974 736.909,-111.974 L821.453,-111.974 L821.453,-138.836 L736.909,-138.836 L736.909,-138.836 C736.909,-138.836 736.909,-138.836 736.909,-138.836 C699.84,-138.836 669.755,-108.751 669.755,-71.6816 Z M669.755,-51.4612 C669.755,-14.3919 699.84,15.6934 736.909,15.6934 C736.909,15.6934 736.909,15.6934 736.909,15.6934 L736.909,15.6934 L736.909,-11.1684 C736.909,-11.1684 736.909,-11.1684 736.909,-11.1684 C714.614,-11.1684 696.617,-29.1659 696.617,-51.4612 L669.755,-51.4612 Z " fill="#000000" fill-opacity="1.00" stroke-width="23.40" stroke="#000000" stroke-linecap="square" stroke-linejoin="miter" />			<path d="M821.453,75.8406 L794.591,75.8406 C794.591,98.136 776.594,116.133 754.298,116.133 C754.298,116.133 754.298,116.133 754.298,116.133 L669.755,116.133 L669.755,142.995 L754.298,142.995 L754.298,142.995 C754.298,142.995 754.298,142.995 754.298,142.995 C791.368,142.995 821.453,112.91 821.453,75.8406 Z M821.453,55.6203 C821.453,18.5509 791.368,-11.5343 754.298,-11.5343 C754.298,-11.5343 754.298,-11.5343 754.298,-11.5343 L754.298,-11.5343 L754.298,15.3275 C754.298,15.3275 754.298,15.3275 754.298,15.3275 C776.594,15.3275 794.591,33.325 794.591,55.6203 L821.453,55.6203 Z " fill="#000000" fill-opacity="1.00" stroke-width="23.40" stroke="#000000" stroke-linecap="square" stroke-linejoin="miter" />			<path d="M410.621,-18.5919 L410.621,-18.5919 L410.621,14.1633 L410.621,14.1633 L410.621,138.836 L443.129,138.836 L443.129,14.1633 L443.129,-18.5918 L443.129,-61.7247 C443.129,-88.7065 464.91,-110.487 491.892,-110.487 C491.892,-110.487 491.892,-110.487 491.892,-110.487 L594.206,-110.487 L594.206,-142.995 L491.892,-142.995 L491.892,-142.995 C491.892,-142.995 491.892,-142.995 491.892,-142.995 C447.03,-142.995 410.621,-106.586 410.621,-61.7247 L410.621,-18.5919 L410.621,-18.5919 Z " fill="#000000" fill-opacity="1.00" stroke-width="23.40" stroke="#000000" stroke-linecap="square" stroke-linejoin="miter" />			<path d="M76.2924,138.836 L76.2924,138.836 L76.2924,80.1971 L76.2924,80.1971 L76.2925,-142.995 L108.801,-142.995 L108.801,80.1972 L108.801,138.836 L76.2924,138.836 L76.2924,138.836 Z " fill="#000000" fill-opacity="1.00" stroke-width="23.40" stroke="#000000" stroke-linecap="square" stroke-linejoin="miter" />			<path d="M309.561,138.836 L309.561,138.836 L309.561,80.1972 L309.561,80.1972 L309.561,-142.995 L342.069,-142.995 L342.069,80.1972 L342.069,138.836 L309.561,138.836 L309.561,138.836 Z " fill="#000000" fill-opacity="1.00" stroke-width="23.40" stroke="#000000" stroke-linecap="square" stroke-linejoin="miter" />			<path d="M561.698,138.836 L561.698,138.836 L561.698,80.1972 L561.698,80.1972 L561.698,-142.995 L594.206,-142.995 L594.206,80.1972 L594.206,138.836 L561.698,138.836 L561.698,138.836 Z " fill="#000000" fill-opacity="1.00" stroke-width="23.40" stroke="#000000" stroke-linecap="square" stroke-linejoin="miter" />			<path d="M-54.1105,14.4329 L-54.1105,14.4329 L-54.1105,-18.3223 L-54.1105,-18.3223 L-54.1105,-142.995 L-21.6023,-142.995 L-21.6023,-18.3223 L-21.6023,14.4329 L-21.6023,57.5658 C-21.6023,84.5476 0.178155,106.328 27.1599,106.328 C27.1599,106.328 27.1599,106.328 27.1599,106.328 L129.475,106.328 L129.475,138.836 L27.1599,138.836 L27.1599,138.836 C27.1599,138.836 27.1599,138.836 27.1599,138.836 C-17.7013,138.836 -54.1105,102.427 -54.1105,57.5658 L-54.1105,14.4329 L-54.1105,14.4329 Z " fill="#000000" fill-opacity="1.00" stroke-width="23.40" stroke="#000000" stroke-linecap="square" stroke-linejoin="miter" />			<path d="M234.013,14.4329 L234.013,14.4329 L234.013,-18.3222 L234.013,-18.3222 L234.013,-142.995 L201.505,-142.995 L201.505,-18.3222 L201.505,14.4329 L201.505,57.5658 C201.505,84.5476 179.724,106.328 152.742,106.328 C152.742,106.328 152.742,106.328 152.742,106.328 L50.4276,106.328 L50.4276,138.836 L152.742,138.836 L152.742,138.836 C152.742,138.836 152.742,138.836 152.742,138.836 C197.604,138.836 234.013,102.427 234.013,57.5658 L234.013,14.4329 L234.013,14.4329 Z " fill="#000000" fill-opacity="1.00" stroke-width="23.40" stroke="#000000" stroke-linecap="square" stroke-linejoin="miter" />			<path d="M-155.171,-142.995 L-240.433,-142.995 L-240.433,-142.995 C-240.433,-142.995 -240.433,-142.995 -240.433,-142.995 C-285.294,-142.995 -321.703,-106.586 -321.703,-61.7248 L-321.703,-18.5919 L-321.703,-18.5919 L-321.703,14.1633 L-321.703,14.1633 L-321.703,138.836 L-289.195,138.836 L-289.195,138.836 L-203.933,138.836 L-203.933,138.836 C-203.933,138.836 -203.933,138.836 -203.933,138.836 C-159.072,138.836 -122.663,102.427 -122.663,57.5658 L-122.663,14.4329 L-122.663,14.4329 L-122.663,-18.3223 L-122.663,-18.3223 L-122.663,-142.995 L-155.171,-142.995 L-155.171,-142.995 L-155.171,-142.995 Z M-155.171,-110.487 L-155.171,-18.3223 L-155.171,14.4329 L-155.171,57.5658 C-155.171,84.5476 -176.951,106.328 -203.933,106.328 C-203.933,106.328 -203.933,106.328 -203.933,106.328 L-289.195,106.328 L-289.195,14.1633 L-289.195,-18.5919 L-289.195,-61.7248 C-289.195,-88.7066 -267.415,-110.487 -240.433,-110.487 C-240.433,-110.487 -240.433,-110.487 -240.433,-110.487 L-155.171,-110.487 L-155.171,-110.487 Z " fill="#000000" fill-opacity="1.00" stroke-width="23.40" stroke="#000000" stroke-linecap="square" stroke-linejoin="miter" />		</g>	</svg>