<?xml version="1.0" encoding="utf-8" ?>	<!-- Generator: Assembly 2.2 - http://assemblyapp.co -->	<svg version="1.1" xmlns="http://www.w3.org/2000/svg" xmlns:xlink="http://www.w3.org/1999/xlink" width="2048.00" height="2048.00" viewBox="0 0 2048.0 2048.0">		<g id="document" transform="matrix(1,0,0,1,1024.0,1024.0)">			<path d="M395.85,-251.353 C399.318,-250.88 402.96,-251.507 406.211,-253.384 L597.081,-363.583 L821.607,-363.583 C830.612,-363.583 837.965,-370.936 837.965,-379.942 C837.965,-388.947 830.612,-396.301 821.607,-396.301 L596.808,-396.301 C596.108,-396.301 595.418,-396.256 594.741,-396.17 C591.319,-396.603 587.737,-395.968 584.534,-394.118 L393.926,-284.071 L173.37,-284.071 C164.365,-284.071 157.011,-276.717 157.011,-267.712 C157.011,-258.706 164.365,-251.353 173.37,-251.353 L395.85,-251.353 L395.85,-251.353 Z " fill="#e068a7" fill-opacity="1.00" stroke-width="28.62" stroke="#e068a7" stroke-linecap="square" stroke-linejoin="miter" />			<path d="M-541.654,144.948 C-538.186,145.42 -534.544,144.793 -531.292,142.916 L-340.423,32.7177 L-115.897,32.7177 C-106.891,32.7177 -99.5381,25.3645 -99.5381,16.3588 C-99.5381,7.35322 -106.891,2.92734e-06 -115.897,2.92734e-06 L-340.695,2.92734e-06 C-341.395,2.92734e-06 -342.085,0.0444169 -342.763,0.130572 C-346.184,-0.302802 -349.766,0.332951 -352.97,2.18244 L-543.578,112.23 L-764.133,112.23 C-773.139,112.23 -780.492,119.583 -780.492,128.589 C-780.492,137.594 -773.139,144.948 -764.133,144.948 L-541.654,144.948 L-541.654,144.948 Z " fill="#b55789" fill-opacity="1.00" stroke-width="30.17" stroke="#c65892" stroke-linecap="square" stroke-linejoin="miter" />			<path d="M104.307,-13.205 C107.775,-12.7324 111.417,-13.3592 114.669,-15.2366 L389.806,-130.392 L614.332,-130.392 C623.338,-130.392 630.691,-137.745 630.691,-146.751 C630.691,-155.756 623.338,-163.11 614.332,-163.11 L389.534,-163.11 C388.834,-163.11 388.144,-163.065 387.467,-162.979 C384.045,-163.412 380.463,-162.777 377.26,-160.927 L102.384,-45.9227 L-118.172,-45.9227 C-127.178,-45.9227 -134.531,-38.5695 -134.531,-29.5639 C-134.531,-20.5582 -127.178,-13.205 -118.172,-13.205 L104.307,-13.205 L104.307,-13.205 Z " fill="#c65892" fill-opacity="1.00" stroke-width="26.11" stroke="#c65892" stroke-linecap="square" stroke-linejoin="miter" />			<path d="M-380.181,222.115 C-376.713,221.642 -373.071,222.269 -369.82,224.146 L-240.885,329.781 L-16.3589,329.781 C-7.35324,329.781 1.13687e-13,337.134 1.13687e-13,346.14 C1.13687e-13,355.145 -7.35324,362.499 -16.3589,362.499 L-241.157,362.499 C-241.857,362.499 -242.547,362.454 -243.225,362.368 C-246.646,362.801 -250.228,362.166 -253.432,360.316 L-382.105,254.832 L-602.661,254.832 C-611.666,254.832 -619.02,247.479 -619.02,238.473 C-619.02,229.468 -611.666,222.115 -602.661,222.115 L-380.181,222.115 L-380.181,222.115 Z " fill="#e068a7" fill-opacity="1.00" stroke-width="29.59" stroke="#e068a7" stroke-linecap="square" stroke-linejoin="miter" />			<path d="M177.409,-566.08 C180.877,-566.553 184.519,-565.926 187.77,-564.049 L316.705,-458.414 L541.231,-458.414 C550.237,-458.414 557.59,-451.061 557.59,-442.055 C557.59,-433.05 550.237,-425.696 541.231,-425.696 L316.432,-425.696 C315.733,-425.696 315.043,-425.741 314.365,-425.827 C310.944,-425.394 307.362,-426.029 304.158,-427.879 L175.485,-533.363 L-45.0709,-533.363 C-54.0765,-533.363 -61.4297,-540.716 -61.4297,-549.721 C-61.4297,-558.727 -54.0765,-566.08 -45.0709,-566.08 L177.409,-566.08 L177.409,-566.08 Z " fill="#e068a7" fill-opacity="1.00" stroke-width="30.17" stroke="#e068a7" stroke-linecap="square" stroke-linejoin="miter" />			<path d="M-258.837,-237.042 C-262.305,-236.569 -265.947,-237.196 -269.199,-239.073 L-460.068,-349.272 L-684.594,-349.272 C-693.6,-349.272 -700.953,-356.625 -700.953,-365.631 C-700.953,-374.636 -693.6,-381.989 -684.594,-381.989 L-459.796,-381.989 C-459.096,-381.989 -458.406,-381.945 -457.729,-381.859 C-454.307,-382.292 -450.725,-381.656 -447.521,-379.807 L-256.914,-269.759 L-36.3578,-269.759 C-27.3522,-269.759 -19.999,-262.406 -19.999,-253.401 C-19.999,-244.395 -27.3522,-237.042 -36.3578,-237.042 L-258.837,-237.042 L-258.837,-237.042 Z " fill="#c65892" fill-opacity="1.00" stroke-width="27.85" stroke="#c65892" stroke-linecap="square" stroke-linejoin="miter" />			<path d="M411.998,16.2993 C415.466,15.8267 419.108,16.4534 422.359,18.3308 L613.229,128.529 L837.755,128.529 C846.76,128.529 854.114,135.882 854.114,144.888 C854.114,153.894 846.76,161.247 837.755,161.247 L612.956,161.247 C612.256,161.247 611.566,161.202 610.889,161.116 C607.468,161.55 603.885,160.914 600.682,159.064 L410.074,49.017 L189.518,49.017 C180.513,49.017 173.159,41.6637 173.159,32.6581 C173.159,23.6525 180.513,16.2993 189.518,16.2993 L411.998,16.2993 L411.998,16.2993 Z " fill="#c65892" fill-opacity="1.00" stroke-width="32.30" stroke="#b55789" stroke-linecap="square" stroke-linejoin="miter" />			<path d="M-444.68,-109.147 C-448.148,-108.674 -451.79,-109.301 -455.042,-111.178 L-645.911,-221.377 L-870.437,-221.377 C-879.443,-221.377 -886.796,-228.73 -886.796,-237.735 C-886.796,-246.741 -879.443,-254.094 -870.437,-254.094 L-645.639,-254.094 C-644.939,-254.094 -644.249,-254.05 -643.572,-253.964 C-640.15,-254.397 -636.568,-253.761 -633.364,-251.912 L-442.757,-141.864 L-222.201,-141.864 C-213.195,-141.864 -205.842,-134.511 -205.842,-125.506 C-205.842,-116.5 -213.195,-109.147 -222.201,-109.147 L-444.68,-109.147 L-444.68,-109.147 Z " fill="#b55789" fill-opacity="1.00" stroke-width="25.91" stroke="#b55789" stroke-linecap="square" stroke-linejoin="miter" />			<g>				<defs>					<filter id="zM1mQq8r" x="0.00%" y="0.00%" width="103.29%" height="102.87%" filterUnits="objectBoundingBox">						<feOffset dx="16.03" dy="18.49" in="SourceAlpha" result="shadowOffsetOuter1" />						<feGaussianBlur stdDeviation="0.00" in="shadowOffsetOuter1" result="shadowBlurOuter1" />						<feFlood flood-color="#000000" flood-opacity="0.10" />						<feComposite in2="shadowBlurOuter1" operator="in" />						<feMerge>							<feMergeNode />							<feMergeNode in="SourceGraphic" />						</feMerge>					</filter>				</defs>				<path d="M-243.721,226.92 C-236.571,234.447 -221.062,234.172 -221.062,234.172 L206.123,234.172 C206.123,234.172 221.123,234.447 228.989,226.92 C236.855,219.393 237.587,204.064 237.587,204.064 L237.587,-379.364 C237.587,-379.364 236.855,-394.47 228.989,-402.282 C221.123,-410.094 206.123,-410.612 206.123,-410.612 L-221.062,-410.612 C-221.062,-410.612 -236.571,-409.799 -243.721,-402.282 C-250.87,-394.766 -249.659,-380.545 -249.659,-380.545 L-249.659,204.064 C-249.659,204.064 -250.87,219.393 -243.721,226.92 Z " fill="#df2456" fill-opacity="1.00" filter="url(#zM1mQq8r)" />				<path d="M-184.514,-410.474 L-184.514,234.309 L206.162,234.309 C206.162,234.309 221.161,234.584 229.027,227.057 C236.893,219.53 237.626,204.202 237.626,204.202 L237.626,-379.227 C237.626,-379.227 236.893,-394.333 229.027,-402.145 C221.161,-409.957 206.162,-410.474 206.162,-410.474 L-184.514,-410.474 Z " fill="#ff1168" fill-opacity="1.00" />				<path d="M-243.678,227.057 C-236.528,234.584 -221.019,234.309 -221.019,234.309 L206.166,234.309 C206.166,234.309 221.166,234.584 229.032,227.057 C236.898,219.53 237.63,204.202 237.63,204.202 L237.63,189.077 L-249.616,187.896 L-249.616,204.202 C-249.616,204.202 -250.827,219.53 -243.678,227.057 Z " fill="#ba3156" fill-opacity="1.00" />				<path d="M178.694,276.186 C181.418,276.186 183.634,273.971 183.634,271.247 L183.634,188.84 L134.705,188.84 L134.705,271.247 C134.705,273.971 136.92,276.186 139.645,276.186 L146.561,276.186 C146.561,276.186 148.014,276.076 148.975,275.387 C149.936,274.698 150.404,273.429 150.404,273.429 L157.728,253.186 C157.728,253.186 158.048,252.18 159.169,252.18 C160.29,252.18 160.671,253.186 160.671,253.186 L167.992,273.57 C167.992,273.57 168.334,274.733 169.277,275.387 C170.22,276.041 171.763,276.186 171.763,276.186 L178.694,276.186 Z " fill="#404040" fill-opacity="1.00" />				<path d="M115.456,255.331 C118.181,255.331 120.396,253.116 120.396,250.392 L120.396,188.621 L71.4672,188.621 L71.4672,250.392 C71.4672,253.116 73.6828,255.331 76.4071,255.331 L83.3237,255.331 C83.3237,255.331 84.7765,255.221 85.7373,254.532 C86.6981,253.843 87.1669,252.574 87.1669,252.574 L94.4904,232.331 C94.4904,232.331 94.8107,231.326 95.9317,231.326 C97.0528,231.326 97.4333,232.331 97.4333,232.331 L104.754,252.715 C104.754,252.715 105.097,253.878 106.04,254.532 C106.983,255.186 108.526,255.331 108.526,255.331 L115.456,255.331 Z " fill="#404040" fill-opacity="1.00" />				<path d="M127.51,-327.612 C127.51,-319.843 121.167,-313.5 113.398,-313.5 L-106.445,-313.5 C-114.214,-313.5 -120.557,-319.843 -120.557,-327.612 C-120.557,-335.381 -114.214,-341.725 -106.445,-341.725 L113.398,-341.725 C121.167,-341.725 127.51,-335.381 127.51,-327.612 Z " fill="#2e2e2e" fill-opacity="1.00" />				<path d="M62.6369,-239.834 C62.6369,-232.065 56.2934,-225.721 48.5244,-225.721 L-41.5715,-225.721 C-49.3405,-225.721 -55.684,-232.065 -55.684,-239.834 C-55.684,-247.603 -49.3405,-253.946 -41.5715,-253.946 L48.5244,-253.946 C56.2934,-253.946 62.6369,-247.603 62.6369,-239.834 Z " fill="#2e2e2e" fill-opacity="1.00" />				<path d="M49.0949,146.239 C49.0949,154.008 42.7513,160.352 34.9823,160.352 L-28.0294,160.352 C-35.7984,160.352 -42.1419,154.008 -42.1419,146.239 C-42.1419,138.47 -35.7984,132.127 -28.0294,132.127 L34.9823,132.127 C42.7513,132.127 49.0949,138.47 49.0949,146.239 Z " fill="#2e2e2e" fill-opacity="1.00" />				<path d="M23.1339,-291.807 C23.1339,-286.128 18.4966,-281.49 12.8172,-281.49 L-5.86422,-281.49 C-11.5436,-281.49 -16.1809,-286.128 -16.1809,-291.807 C-16.1809,-297.486 -11.5436,-302.124 -5.86422,-302.124 L12.8172,-302.124 C18.4966,-302.124 23.1339,-297.486 23.1339,-291.807 Z " fill="#2e2e2e" fill-opacity="1.00" />				<path d="M-217.481,-345.657 C-223.984,-345.657 -229.293,-340.348 -229.293,-333.846 L-229.293,113.842 C-229.293,120.344 -223.984,125.653 -217.481,125.653 C-210.979,125.653 -205.67,120.344 -205.67,113.842 L-205.67,-333.846 C-205.67,-340.348 -210.979,-345.657 -217.481,-345.657 Z " fill="#f57180" fill-opacity="1.00" />			</g>			<path d="M-641.861,605.642 L-641.861,544.172 L-646.997,544.172 L-646.997,652.346 L-641.861,652.346 L-641.861,614.79 L-632.874,601.148 L-603.663,652.346 L-597.886,652.346 L-629.985,595.852 L-597.886,544.172 L-603.984,544.172 L-641.861,605.642 Z " fill="#e5e5e5" fill-opacity="1.00" stroke-width="11.02" stroke="#e5e5e5" stroke-linecap="round" stroke-linejoin="round" />			<path d="M-445.576,652.346 L-445.576,544.172 L-450.712,544.172 L-450.712,636.778 L-487.946,544.172 L-492.28,544.172 L-492.28,652.346 L-487.144,652.346 L-487.144,559.74 L-449.749,652.346 L-445.576,652.346 Z " fill="#e5e5e5" fill-opacity="1.00" stroke-width="11.02" stroke="#e5e5e5" stroke-linecap="round" stroke-linejoin="round" />			<path d="M-334.032,623.617 C-334.032,635.655 -330.982,642.556 -326.488,646.889 C-321.995,651.223 -316.217,652.346 -311.081,652.346 C-305.785,652.346 -300.007,651.223 -295.513,646.889 C-291.019,642.556 -287.97,635.655 -287.97,623.617 L-287.97,572.74 C-287.97,554.123 -295.673,544.172 -311.081,544.172 C-326.328,544.172 -334.032,554.284 -334.032,572.74 L-334.032,623.617 Z M-329.056,572.74 C-329.056,556.691 -323.278,549.148 -311.081,549.148 C-299.044,549.148 -293.105,556.209 -293.105,572.74 L-293.105,623.617 C-293.105,640.309 -299.365,647.371 -311.081,647.371 C-323.118,647.371 -329.056,639.827 -329.056,623.617 L-329.056,572.74 Z " fill="#e5e5e5" fill-opacity="1.00" stroke-width="11.02" stroke="#e5e5e5" stroke-linecap="round" stroke-linejoin="round" />			<path d="M-144.647,544.172 L-148.66,544.172 L-164.549,638.062 L-178.993,544.172 L-184.129,544.172 L-166.635,652.346 L-162.623,652.346 L-146.734,558.456 L-130.845,652.346 L-126.672,652.346 L-109.499,544.172 L-114.795,544.172 L-128.758,638.062 L-144.647,544.172 Z " fill="#e5e5e5" fill-opacity="1.00" stroke-width="11.02" stroke="#e5e5e5" stroke-linecap="round" stroke-linejoin="round" />			<path d="M36.8726,647.371 L3.81057,647.371 L3.81057,544.172 L-1.32527,544.172 L-1.32527,652.346 L36.8726,652.346 L36.8726,647.371 Z " fill="#e5e5e5" fill-opacity="1.00" stroke-width="11.02" stroke="#e5e5e5" stroke-linecap="round" stroke-linejoin="round" />			<path d="M184.528,544.172 L184.528,549.148 L150.664,549.148 L150.664,595.691 L179.713,595.691 L179.713,600.667 L150.664,600.667 L150.664,647.371 L184.528,647.371 L184.528,652.346 L145.688,652.346 L145.688,544.172 L184.528,544.172 Z " fill="#e5e5e5" fill-opacity="1.00" stroke-width="11.02" stroke="#e5e5e5" stroke-linecap="round" stroke-linejoin="round" />			<path d="M313.406,652.346 C330.579,652.346 338.443,642.395 338.443,623.136 L338.443,573.382 C338.443,554.123 330.579,544.172 313.406,544.172 L294.949,544.172 L294.949,652.346 L313.406,652.346 Z M313.406,549.148 C327.369,549.148 333.307,556.691 333.307,573.382 L333.307,623.136 C333.307,639.827 327.369,647.371 313.406,647.371 L299.924,647.371 L299.924,549.148 L313.406,549.148 Z " fill="#e5e5e5" fill-opacity="1.00" stroke-width="11.02" stroke="#e5e5e5" stroke-linecap="round" stroke-linejoin="round" />			<path d="M450.789,623.778 C450.789,642.235 458.493,652.346 473.901,652.346 C489.308,652.346 497.012,642.395 497.012,623.778 L497.012,604.519 L468.444,604.519 L468.444,609.654 L491.876,609.654 L491.876,623.778 C491.876,639.827 485.938,647.371 473.901,647.371 C461.703,647.371 455.765,639.827 455.765,623.778 L455.765,572.58 C455.765,562.148 458.493,556.209 462.024,553 C465.555,549.79 470.049,549.148 473.901,549.148 C477.753,549.148 482.247,549.79 485.777,553 C489.308,556.209 491.876,562.148 491.876,572.58 L491.876,575.148 L497.012,575.148 L497.012,572.58 C497.012,553.963 489.308,544.172 473.901,544.172 C458.493,544.172 450.789,553.963 450.789,572.58 L450.789,623.778 Z " fill="#e5e5e5" fill-opacity="1.00" stroke-width="11.02" stroke="#e5e5e5" stroke-linecap="round" stroke-linejoin="round" />			<path d="M646.433,544.172 L646.433,549.148 L612.569,549.148 L612.569,595.691 L641.618,595.691 L641.618,600.667 L612.569,600.667 L612.569,647.371 L646.433,647.371 L646.433,652.346 L607.593,652.346 L607.593,544.172 L646.433,544.172 Z " fill="#e5e5e5" fill-opacity="1.00" stroke-width="11.02" stroke="#e5e5e5" stroke-linecap="round" stroke-linejoin="round" />		</g>	</svg>