<?xml version="1.0" encoding="utf-8" ?>	<!-- Generator: Assembly 2.2 - http://assemblyapp.co -->	<svg version="1.1" xmlns="http://www.w3.org/2000/svg" xmlns:xlink="http://www.w3.org/1999/xlink" width="2048.00" height="1638.40" viewBox="0 0 2048.0 1638.4">		<g id="document" transform="matrix(1,0,0,1,1024.0,819.2)">			<path d="M-1058.65,854.655 L1061.53,854.655 L1061.53,-854.655 L-1058.65,-854.655 L-1058.65,854.655 Z " fill="#b8f7c4" fill-opacity="1.00" />			<g>				<path d="M-178.624,274.524 L147.521,274.524 L147.521,-51.6206 L-178.624,-51.6206 L-178.624,274.524 Z " fill="#274c37" fill-opacity="1.00" />				<g>					<path d="M115.898,248.01 L206.653,248.01 L206.653,-40.9677 L115.898,-40.9677 L115.898,248.01 Z " fill="#56a778" fill-opacity="1.00" />					<defs>						<filter id="iPqYTXFI" x="-0.31%" y="0.00%" width="100.31%" height="112.86%" filterUnits="objectBoundingBox">							<feOffset dx="-0.41" dy="5.23" in="SourceAlpha" result="shadowOffsetOuter1" />							<feGaussianBlur stdDeviation="0.00" in="shadowOffsetOuter1" result="shadowBlurOuter1" />							<feFlood flood-color="#000000" flood-opacity="0.15" />							<feComposite in2="shadowBlurOuter1" operator="in" />							<feMerge>								<feMergeNode />								<feMergeNode in="SourceGraphic" />							</feMerge>						</filter>					</defs>					<path d="M117.148,-0.567756 L117.148,-41.1137 C105.944,-41.1137 96.8746,-32.0442 96.8746,-20.8407 C96.8746,-9.63724 105.944,-0.567756 117.148,-0.567756 C117.148,-0.567756 117.148,-0.567756 117.148,-0.567756 L205.51,-0.567755 C206.312,-0.471347 207.129,-0.42174 207.958,-0.42174 C219.161,-0.421739 228.231,-9.49122 228.231,-20.6947 C228.231,-31.8982 219.161,-40.9677 207.958,-40.9677 C207.939,-40.9677 207.92,-40.9677 207.902,-40.9676 L207.902,-41.1137 L117.148,-41.1137 L117.148,-0.567756 Z " fill="#56a778" fill-opacity="1.00" filter="url(#iPqYTXFI)" />					<defs>						<filter id="eAYdhqe7" x="-0.08%" y="-10.84%" width="100.08%" height="110.84%" filterUnits="objectBoundingBox">							<feOffset dx="-0.10" dy="-4.41" in="SourceAlpha" result="shadowOffsetOuter1" />							<feGaussianBlur stdDeviation="0.00" in="shadowOffsetOuter1" result="shadowBlurOuter1" />							<feFlood flood-color="#000000" flood-opacity="0.17" />							<feComposite in2="shadowBlurOuter1" operator="in" />							<feMerge>								<feMergeNode />								<feMergeNode in="SourceGraphic" />							</feMerge>						</filter>					</defs>					<path d="M116.53,252.757 L116.53,212.211 C105.327,212.211 96.2572,221.28 96.2572,232.484 C96.2572,243.687 105.327,252.757 116.53,252.757 C116.53,252.757 116.53,252.757 116.53,252.757 L204.892,252.757 C205.695,252.853 206.512,252.903 207.34,252.903 C218.544,252.903 227.613,243.833 227.613,232.63 C227.613,221.427 218.544,212.357 207.34,212.357 C207.322,212.357 207.303,212.357 207.284,212.357 L207.284,212.211 L116.53,212.211 L116.53,252.757 Z " fill="#56a778" fill-opacity="1.00" filter="url(#eAYdhqe7)" />					<path d="M208.733,-9.31122 C215.377,-9.31122 220.755,-14.6895 220.755,-21.3333 C220.755,-27.9771 215.377,-33.3554 208.733,-33.3554 C202.09,-33.3554 196.711,-27.9771 196.711,-21.3333 C196.711,-14.6895 202.09,-9.31122 208.733,-9.31122 Z " fill="#87bb9c" fill-opacity="1.00" />					<path d="M117.412,-9.25073 C124.056,-9.25073 129.435,-14.629 129.435,-21.2728 C129.435,-27.9166 124.056,-33.2949 117.412,-33.2949 C110.769,-33.2949 105.39,-27.9166 105.39,-21.2728 C105.39,-14.629 110.769,-9.25073 117.412,-9.25073 Z " fill="#87bb9c" fill-opacity="1.00" />					<path d="M114.151,-22.4762 C114.647,-23.3236 114.343,-24.3949 113.496,-24.8905 C112.648,-25.3862 111.561,-25.0984 111.065,-24.251 C110.57,-23.4036 110.873,-22.3164 111.721,-21.8207 C112.584,-21.341 113.671,-21.6288 114.151,-22.4762 Z M114.151,-18.9268 C113.655,-19.7742 112.568,-20.062 111.721,-19.5823 C110.873,-19.0866 110.586,-17.9994 111.065,-17.152 C111.545,-16.3046 112.648,-16.0168 113.496,-16.5125 C114.359,-17.0081 114.647,-18.0794 114.151,-18.9268 Z M117.221,-17.152 C116.246,-17.152 115.446,-16.3526 115.446,-15.3773 C115.446,-14.402 116.246,-13.6025 117.221,-13.6025 C118.196,-13.6025 118.996,-14.402 118.996,-15.3773 C118.996,-16.3526 118.196,-17.152 117.221,-17.152 Z M120.291,-18.9268 C119.795,-18.0794 120.099,-16.9921 120.946,-16.4965 C121.794,-16.0008 122.881,-16.3046 123.377,-17.152 C123.872,-17.9994 123.568,-19.0866 122.721,-19.5823 C121.858,-20.062 120.77,-19.7742 120.291,-18.9268 Z M120.291,-22.4762 C120.786,-21.6288 121.874,-21.341 122.721,-21.8207 C123.568,-22.3164 123.856,-23.4036 123.377,-24.251 C122.881,-25.0984 121.794,-25.3862 120.946,-24.8905 C120.083,-24.3949 119.795,-23.3236 120.291,-22.4762 Z M117.221,-24.251 C118.196,-24.251 118.996,-25.0504 118.996,-26.0257 C118.996,-27.001 118.196,-27.8005 117.221,-27.8005 C116.246,-27.8005 115.446,-27.001 115.446,-26.0257 C115.446,-25.0504 116.246,-24.251 117.221,-24.251 Z " fill="#56a778" fill-opacity="1.00" />					<path d="M205.736,-22.674 C206.232,-23.5214 205.928,-24.5926 205.081,-25.0882 C204.233,-25.5839 203.146,-25.2961 202.65,-24.4487 C202.155,-23.6013 202.459,-22.5141 203.306,-22.0184 C204.169,-21.5388 205.257,-21.8266 205.736,-22.674 Z M205.736,-19.1245 C205.241,-19.9719 204.153,-20.2597 203.306,-19.78 C202.459,-19.2844 202.171,-18.1971 202.65,-17.3497 C203.13,-16.5023 204.233,-16.2145 205.081,-16.7102 C205.944,-17.2058 206.232,-18.2771 205.736,-19.1245 Z M208.806,-17.3497 C207.831,-17.3497 207.031,-16.5503 207.031,-15.575 C207.031,-14.5997 207.831,-13.8003 208.806,-13.8003 C209.781,-13.8003 210.581,-14.5997 210.581,-15.575 C210.581,-16.5503 209.781,-17.3497 208.806,-17.3497 Z M211.876,-19.1245 C211.38,-18.2771 211.684,-17.1898 212.531,-16.6942 C213.379,-16.1986 214.466,-16.5023 214.962,-17.3497 C215.457,-18.1971 215.154,-19.2844 214.306,-19.78 C213.443,-20.2597 212.356,-19.9719 211.876,-19.1245 Z M211.876,-22.674 C212.372,-21.8266 213.459,-21.5388 214.306,-22.0184 C215.154,-22.5141 215.441,-23.6013 214.962,-24.4487 C214.466,-25.2961 213.379,-25.5839 212.531,-25.0882 C211.668,-24.5926 211.38,-23.5214 211.876,-22.674 Z M208.806,-24.4487 C209.781,-24.4487 210.581,-25.2481 210.581,-26.2234 C210.581,-27.1987 209.781,-27.9982 208.806,-27.9982 C207.831,-27.9982 207.031,-27.1987 207.031,-26.2234 C207.031,-25.2481 207.831,-24.4487 208.806,-24.4487 Z " fill="#56a778" fill-opacity="1.00" />					<path d="M207.958,244.579 C214.602,244.579 219.98,239.201 219.98,232.557 C219.98,225.913 214.602,220.535 207.958,220.535 C201.314,220.535 195.936,225.913 195.936,232.557 C195.936,239.201 201.314,244.579 207.958,244.579 Z " fill="#87bb9c" fill-opacity="1.00" />					<path d="M116.637,244.64 C123.281,244.64 128.659,239.261 128.659,232.617 C128.659,225.974 123.281,220.595 116.637,220.595 C109.994,220.595 104.615,225.974 104.615,232.617 C104.615,239.261 109.994,244.64 116.637,244.64 Z " fill="#87bb9c" fill-opacity="1.00" />					<path d="M113.376,231.414 C113.872,230.567 113.568,229.495 112.72,229 C111.873,228.504 110.786,228.792 110.29,229.639 C109.794,230.487 110.098,231.574 110.946,232.07 C111.809,232.549 112.896,232.261 113.376,231.414 Z M113.376,234.964 C112.88,234.116 111.793,233.828 110.946,234.308 C110.098,234.804 109.81,235.891 110.29,236.738 C110.77,237.586 111.873,237.873 112.72,237.378 C113.584,236.882 113.872,235.811 113.376,234.964 Z M116.446,236.738 C115.47,236.738 114.671,237.538 114.671,238.513 C114.671,239.488 115.47,240.288 116.446,240.288 C117.421,240.288 118.221,239.488 118.221,238.513 C118.221,237.538 117.421,236.738 116.446,236.738 Z M119.516,234.964 C119.02,235.811 119.324,236.898 120.171,237.394 C121.019,237.889 122.106,237.586 122.601,236.738 C123.097,235.891 122.793,234.804 121.946,234.308 C121.082,233.828 119.995,234.116 119.516,234.964 Z M119.516,231.414 C120.011,232.261 121.098,232.549 121.946,232.07 C122.793,231.574 123.081,230.487 122.601,229.639 C122.106,228.792 121.019,228.504 120.171,229 C119.308,229.495 119.02,230.567 119.516,231.414 Z M116.446,229.639 C117.421,229.639 118.221,228.84 118.221,227.865 C118.221,226.889 117.421,226.09 116.446,226.09 C115.47,226.09 114.671,226.889 114.671,227.865 C114.671,228.84 115.47,229.639 116.446,229.639 Z " fill="#56a778" fill-opacity="1.00" />					<path d="M204.961,231.216 C205.457,230.369 205.153,229.298 204.306,228.802 C203.458,228.306 202.371,228.594 201.875,229.442 C201.38,230.289 201.683,231.376 202.531,231.872 C203.394,232.352 204.481,232.064 204.961,231.216 Z M204.961,234.766 C204.466,233.918 203.378,233.631 202.531,234.11 C201.683,234.606 201.396,235.693 201.875,236.541 C202.355,237.388 203.458,237.676 204.306,237.18 C205.169,236.684 205.457,235.613 204.961,234.766 Z M208.031,236.541 C207.056,236.541 206.256,237.34 206.256,238.315 C206.256,239.291 207.056,240.09 208.031,240.09 C209.006,240.09 209.806,239.291 209.806,238.315 C209.806,237.34 209.006,236.541 208.031,236.541 Z M211.101,234.766 C210.605,235.613 210.909,236.7 211.756,237.196 C212.604,237.692 213.691,237.388 214.187,236.541 C214.682,235.693 214.378,234.606 213.531,234.11 C212.668,233.631 211.58,233.918 211.101,234.766 Z M211.101,231.216 C211.596,232.064 212.684,232.352 213.531,231.872 C214.378,231.376 214.666,230.289 214.187,229.442 C213.691,228.594 212.604,228.306 211.756,228.802 C210.893,229.298 210.605,230.369 211.101,231.216 Z M208.031,229.442 C209.006,229.442 209.806,228.642 209.806,227.667 C209.806,226.692 209.006,225.892 208.031,225.892 C207.056,225.892 206.256,226.692 206.256,227.667 C206.256,228.642 207.056,229.442 208.031,229.442 Z " fill="#56a778" fill-opacity="1.00" />				</g>				<g>					<path d="M-220.993,248.01 L-130.239,248.01 L-130.239,-40.9677 L-220.993,-40.9677 L-220.993,248.01 Z " fill="#56a778" fill-opacity="1.00" />					<defs>						<filter id="886XAjCb" x="-0.31%" y="0.00%" width="100.31%" height="112.86%" filterUnits="objectBoundingBox">							<feOffset dx="-0.41" dy="5.23" in="SourceAlpha" result="shadowOffsetOuter1" />							<feGaussianBlur stdDeviation="0.00" in="shadowOffsetOuter1" result="shadowBlurOuter1" />							<feFlood flood-color="#000000" flood-opacity="0.17" />							<feComposite in2="shadowBlurOuter1" operator="in" />							<feMerge>								<feMergeNode />								<feMergeNode in="SourceGraphic" />							</feMerge>						</filter>					</defs>					<path d="M-219.744,-0.567756 L-219.744,-41.1137 C-230.948,-41.1137 -240.017,-32.0442 -240.017,-20.8407 C-240.017,-9.63724 -230.948,-0.567756 -219.744,-0.567756 C-219.744,-0.567756 -219.744,-0.567756 -219.744,-0.567756 L-131.382,-0.567755 C-130.58,-0.471347 -129.763,-0.42174 -128.934,-0.42174 C-117.731,-0.421739 -108.661,-9.49122 -108.661,-20.6947 C-108.661,-31.8982 -117.731,-40.9677 -128.934,-40.9677 C-128.953,-40.9677 -128.971,-40.9677 -128.99,-40.9676 L-128.99,-41.1137 L-219.744,-41.1137 L-219.744,-0.567756 Z " fill="#56a778" fill-opacity="1.00" filter="url(#886XAjCb)" />					<defs>						<filter id="K7wd64Zs" x="-0.08%" y="-10.84%" width="100.08%" height="110.84%" filterUnits="objectBoundingBox">							<feOffset dx="-0.10" dy="-4.41" in="SourceAlpha" result="shadowOffsetOuter1" />							<feGaussianBlur stdDeviation="0.00" in="shadowOffsetOuter1" result="shadowBlurOuter1" />							<feFlood flood-color="#000000" flood-opacity="0.15" />							<feComposite in2="shadowBlurOuter1" operator="in" />							<feMerge>								<feMergeNode />								<feMergeNode in="SourceGraphic" />							</feMerge>						</filter>					</defs>					<path d="M-220.361,252.757 L-220.361,212.211 C-231.565,212.211 -240.634,221.28 -240.634,232.484 C-240.634,243.687 -231.565,252.757 -220.361,252.757 C-220.361,252.757 -220.361,252.757 -220.361,252.757 L-131.999,252.757 C-131.197,252.853 -130.38,252.903 -129.552,252.903 C-118.348,252.903 -109.279,243.833 -109.279,232.63 C-109.279,221.427 -118.348,212.357 -129.552,212.357 C-129.57,212.357 -129.589,212.357 -129.607,212.357 L-129.607,212.211 L-220.361,212.211 L-220.361,252.757 Z " fill="#56a778" fill-opacity="1.00" filter="url(#K7wd64Zs)" />					<path d="M-128.158,-9.31122 C-121.514,-9.31122 -116.136,-14.6895 -116.136,-21.3333 C-116.136,-27.9771 -121.514,-33.3554 -128.158,-33.3554 C-134.802,-33.3554 -140.18,-27.9771 -140.18,-21.3333 C-140.18,-14.6895 -134.802,-9.31122 -128.158,-9.31122 Z " fill="#87bb9c" fill-opacity="1.00" />					<path d="M-219.479,-9.25073 C-212.835,-9.25073 -207.457,-14.629 -207.457,-21.2728 C-207.457,-27.9166 -212.835,-33.2949 -219.479,-33.2949 C-226.123,-33.2949 -231.501,-27.9166 -231.501,-21.2728 C-231.501,-14.629 -226.123,-9.25073 -219.479,-9.25073 Z " fill="#87bb9c" fill-opacity="1.00" />					<path d="M-222.741,-22.4762 C-222.245,-23.3236 -222.549,-24.3949 -223.396,-24.8905 C-224.244,-25.3862 -225.331,-25.0984 -225.826,-24.251 C-226.322,-23.4036 -226.018,-22.3164 -225.171,-21.8207 C-224.307,-21.341 -223.22,-21.6288 -222.741,-22.4762 Z M-222.741,-18.9268 C-223.236,-19.7742 -224.323,-20.062 -225.171,-19.5823 C-226.018,-19.0866 -226.306,-17.9994 -225.826,-17.152 C-225.347,-16.3046 -224.244,-16.0168 -223.396,-16.5125 C-222.533,-17.0081 -222.245,-18.0794 -222.741,-18.9268 Z M-219.671,-17.152 C-220.646,-17.152 -221.446,-16.3526 -221.446,-15.3773 C-221.446,-14.402 -220.646,-13.6025 -219.671,-13.6025 C-218.695,-13.6025 -217.896,-14.402 -217.896,-15.3773 C-217.896,-16.3526 -218.695,-17.152 -219.671,-17.152 Z M-216.601,-18.9268 C-217.097,-18.0794 -216.793,-16.9921 -215.945,-16.4965 C-215.098,-16.0008 -214.011,-16.3046 -213.515,-17.152 C-213.019,-17.9994 -213.323,-19.0866 -214.171,-19.5823 C-215.034,-20.062 -216.121,-19.7742 -216.601,-18.9268 Z M-216.601,-22.4762 C-216.105,-21.6288 -215.018,-21.341 -214.171,-21.8207 C-213.323,-22.3164 -213.035,-23.4036 -213.515,-24.251 C-214.011,-25.0984 -215.098,-25.3862 -215.945,-24.8905 C-216.809,-24.3949 -217.097,-23.3236 -216.601,-22.4762 Z M-219.671,-24.251 C-218.695,-24.251 -217.896,-25.0504 -217.896,-26.0257 C-217.896,-27.001 -218.695,-27.8005 -219.671,-27.8005 C-220.646,-27.8005 -221.446,-27.001 -221.446,-26.0257 C-221.446,-25.0504 -220.646,-24.251 -219.671,-24.251 Z " fill="#56a778" fill-opacity="1.00" />					<path d="M-131.155,-22.674 C-130.66,-23.5214 -130.964,-24.5926 -131.811,-25.0882 C-132.658,-25.5839 -133.746,-25.2961 -134.241,-24.4487 C-134.737,-23.6013 -134.433,-22.5141 -133.586,-22.0184 C-132.722,-21.5388 -131.635,-21.8266 -131.155,-22.674 Z M-131.155,-19.1245 C-131.651,-19.9719 -132.738,-20.2597 -133.586,-19.78 C-134.433,-19.2844 -134.721,-18.1971 -134.241,-17.3497 C-133.762,-16.5023 -132.658,-16.2145 -131.811,-16.7102 C-130.948,-17.2058 -130.66,-18.2771 -131.155,-19.1245 Z M-128.086,-17.3497 C-129.061,-17.3497 -129.86,-16.5503 -129.86,-15.575 C-129.86,-14.5997 -129.061,-13.8003 -128.086,-13.8003 C-127.11,-13.8003 -126.311,-14.5997 -126.311,-15.575 C-126.311,-16.5503 -127.11,-17.3497 -128.086,-17.3497 Z M-125.016,-19.1245 C-125.511,-18.2771 -125.208,-17.1898 -124.36,-16.6942 C-123.513,-16.1986 -122.426,-16.5023 -121.93,-17.3497 C-121.434,-18.1971 -121.738,-19.2844 -122.585,-19.78 C-123.449,-20.2597 -124.536,-19.9719 -125.016,-19.1245 Z M-125.016,-22.674 C-124.52,-21.8266 -123.433,-21.5388 -122.585,-22.0184 C-121.738,-22.5141 -121.45,-23.6013 -121.93,-24.4487 C-122.426,-25.2961 -123.513,-25.5839 -124.36,-25.0882 C-125.224,-24.5926 -125.511,-23.5214 -125.016,-22.674 Z M-128.086,-24.4487 C-127.11,-24.4487 -126.311,-25.2481 -126.311,-26.2234 C-126.311,-27.1987 -127.11,-27.9982 -128.086,-27.9982 C-129.061,-27.9982 -129.86,-27.1987 -129.86,-26.2234 C-129.86,-25.2481 -129.061,-24.4487 -128.086,-24.4487 Z " fill="#56a778" fill-opacity="1.00" />					<path d="M-128.933,244.579 C-122.29,244.579 -116.911,239.201 -116.911,232.557 C-116.911,225.913 -122.29,220.535 -128.933,220.535 C-135.577,220.535 -140.955,225.913 -140.955,232.557 C-140.955,239.201 -135.577,244.579 -128.933,244.579 Z " fill="#87bb9c" fill-opacity="1.00" />					<path d="M-220.254,244.64 C-213.611,244.64 -208.232,239.261 -208.232,232.617 C-208.232,225.974 -213.611,220.595 -220.254,220.595 C-226.898,220.595 -232.276,225.974 -232.276,232.617 C-232.276,239.261 -226.898,244.64 -220.254,244.64 Z " fill="#87bb9c" fill-opacity="1.00" />					<path d="M-223.516,231.414 C-223.02,230.567 -223.324,229.495 -224.171,229 C-225.019,228.504 -226.106,228.792 -226.602,229.639 C-227.097,230.487 -226.793,231.574 -225.946,232.07 C-225.083,232.549 -223.995,232.261 -223.516,231.414 Z M-223.516,234.964 C-224.011,234.116 -225.099,233.828 -225.946,234.308 C-226.793,234.804 -227.081,235.891 -226.602,236.738 C-226.122,237.586 -225.019,237.873 -224.171,237.378 C-223.308,236.882 -223.02,235.811 -223.516,234.964 Z M-220.446,236.738 C-221.421,236.738 -222.221,237.538 -222.221,238.513 C-222.221,239.488 -221.421,240.288 -220.446,240.288 C-219.471,240.288 -218.671,239.488 -218.671,238.513 C-218.671,237.538 -219.471,236.738 -220.446,236.738 Z M-217.376,234.964 C-217.872,235.811 -217.568,236.898 -216.721,237.394 C-215.873,237.889 -214.786,237.586 -214.29,236.738 C-213.795,235.891 -214.098,234.804 -214.946,234.308 C-215.809,233.828 -216.896,234.116 -217.376,234.964 Z M-217.376,231.414 C-216.88,232.261 -215.793,232.549 -214.946,232.07 C-214.098,231.574 -213.811,230.487 -214.29,229.639 C-214.786,228.792 -215.873,228.504 -216.721,229 C-217.584,229.495 -217.872,230.567 -217.376,231.414 Z M-220.446,229.639 C-219.471,229.639 -218.671,228.84 -218.671,227.865 C-218.671,226.889 -219.471,226.09 -220.446,226.09 C-221.421,226.09 -222.221,226.889 -222.221,227.865 C-222.221,228.84 -221.421,229.639 -220.446,229.639 Z " fill="#56a778" fill-opacity="1.00" />					<path d="M-131.931,231.216 C-131.435,230.369 -131.739,229.298 -132.586,228.802 C-133.433,228.306 -134.521,228.594 -135.016,229.442 C-135.512,230.289 -135.208,231.376 -134.361,231.872 C-133.497,232.352 -132.41,232.064 -131.931,231.216 Z M-131.931,234.766 C-132.426,233.918 -133.513,233.631 -134.361,234.11 C-135.208,234.606 -135.496,235.693 -135.016,236.541 C-134.537,237.388 -133.433,237.676 -132.586,237.18 C-131.723,236.684 -131.435,235.613 -131.931,234.766 Z M-128.861,236.541 C-129.836,236.541 -130.635,237.34 -130.635,238.315 C-130.635,239.291 -129.836,240.09 -128.861,240.09 C-127.885,240.09 -127.086,239.291 -127.086,238.315 C-127.086,237.34 -127.885,236.541 -128.861,236.541 Z M-125.791,234.766 C-126.287,235.613 -125.983,236.7 -125.135,237.196 C-124.288,237.692 -123.201,237.388 -122.705,236.541 C-122.209,235.693 -122.513,234.606 -123.361,234.11 C-124.224,233.631 -125.311,233.918 -125.791,234.766 Z M-125.791,231.216 C-125.295,232.064 -124.208,232.352 -123.361,231.872 C-122.513,231.376 -122.225,230.289 -122.705,229.442 C-123.201,228.594 -124.288,228.306 -125.135,228.802 C-125.999,229.298 -126.287,230.369 -125.791,231.216 Z M-128.861,229.442 C-127.885,229.442 -127.086,228.642 -127.086,227.667 C-127.086,226.692 -127.885,225.892 -128.861,225.892 C-129.836,225.892 -130.635,226.692 -130.635,227.667 C-130.635,228.642 -129.836,229.442 -128.861,229.442 Z " fill="#56a778" fill-opacity="1.00" />				</g>				<g>					<path d="M-52.5474,247.496 L38.2069,247.496 L38.2069,-41.4821 L-52.5474,-41.4821 L-52.5474,247.496 Z " fill="#56a778" fill-opacity="1.00" />					<defs>						<filter id="6kro5MVy" x="-0.31%" y="0.00%" width="100.31%" height="112.86%" filterUnits="objectBoundingBox">							<feOffset dx="-0.41" dy="5.23" in="SourceAlpha" result="shadowOffsetOuter1" />							<feGaussianBlur stdDeviation="0.00" in="shadowOffsetOuter1" result="shadowBlurOuter1" />							<feFlood flood-color="#000000" flood-opacity="0.20" />							<feComposite in2="shadowBlurOuter1" operator="in" />							<feMerge>								<feMergeNode />								<feMergeNode in="SourceGraphic" />							</feMerge>						</filter>					</defs>					<path d="M-51.2982,-1.08222 L-51.2982,-41.6282 C-62.5017,-41.6282 -71.5712,-32.5587 -71.5712,-21.3552 C-71.5712,-10.1517 -62.5017,-1.08222 -51.2982,-1.08222 C-51.2982,-1.08222 -51.2982,-1.08222 -51.2982,-1.08222 L37.0638,-1.08222 C37.8662,-0.985815 38.6831,-0.936208 39.5117,-0.936208 C50.7152,-0.936208 59.7847,-10.0057 59.7847,-21.2092 C59.7847,-32.4127 50.7152,-41.4821 39.5117,-41.4821 C39.4931,-41.4821 39.4746,-41.4821 39.456,-41.4821 L39.456,-41.6282 L-51.2982,-41.6282 L-51.2982,-1.08222 Z " fill="#56a778" fill-opacity="1.00" filter="url(#6kro5MVy)" />					<defs>						<filter id="678Cx9kf" x="-0.08%" y="-10.84%" width="100.08%" height="110.84%" filterUnits="objectBoundingBox">							<feOffset dx="-0.10" dy="-4.41" in="SourceAlpha" result="shadowOffsetOuter1" />							<feGaussianBlur stdDeviation="0.00" in="shadowOffsetOuter1" result="shadowBlurOuter1" />							<feFlood flood-color="#000000" flood-opacity="0.16" />							<feComposite in2="shadowBlurOuter1" operator="in" />							<feMerge>								<feMergeNode />								<feMergeNode in="SourceGraphic" />							</feMerge>						</filter>					</defs>					<path d="M-51.9156,252.242 L-51.9156,211.697 C-63.1191,211.697 -72.1886,220.766 -72.1886,231.97 C-72.1886,243.173 -63.1191,252.242 -51.9156,252.242 C-51.9156,252.242 -51.9156,252.242 -51.9156,252.242 L36.4464,252.242 C37.2488,252.339 38.0657,252.388 38.8943,252.388 C50.0978,252.388 59.1673,243.319 59.1673,232.116 C59.1673,220.912 50.0978,211.843 38.8943,211.843 C38.8757,211.843 38.8572,211.843 38.8386,211.843 L38.8386,211.697 L-51.9156,211.697 L-51.9156,252.242 Z " fill="#56a778" fill-opacity="1.00" filter="url(#678Cx9kf)" />					<path d="M40.2876,-9.82569 C46.9313,-9.82569 52.3096,-15.204 52.3096,-21.8478 C52.3096,-28.4915 46.9313,-33.8698 40.2876,-33.8698 C33.6438,-33.8698 28.2655,-28.4915 28.2655,-21.8478 C28.2655,-15.204 33.6438,-9.82569 40.2876,-9.82569 Z " fill="#87bb9c" fill-opacity="1.00" />					<path d="M-51.0333,-9.7652 C-44.3896,-9.7652 -39.0113,-15.1435 -39.0113,-21.7873 C-39.0113,-28.431 -44.3896,-33.8093 -51.0333,-33.8093 C-57.6771,-33.8093 -63.0554,-28.431 -63.0554,-21.7873 C-63.0554,-15.1435 -57.6771,-9.7652 -51.0333,-9.7652 Z " fill="#87bb9c" fill-opacity="1.00" />					<path d="M-54.2947,-22.9907 C-53.7991,-23.8381 -54.1029,-24.9093 -54.9503,-25.405 C-55.7977,-25.9006 -56.8849,-25.6128 -57.3806,-24.7654 C-57.8762,-23.918 -57.5724,-22.8308 -56.725,-22.3352 C-55.8616,-21.8555 -54.7744,-22.1433 -54.2947,-22.9907 Z M-54.2947,-19.4412 C-54.7904,-20.2886 -55.8776,-20.5764 -56.725,-20.0968 C-57.5724,-19.6011 -57.8602,-18.5139 -57.3806,-17.6665 C-56.9009,-16.8191 -55.7977,-16.5313 -54.9503,-17.0269 C-54.0869,-17.5226 -53.7991,-18.5938 -54.2947,-19.4412 Z M-51.2249,-17.6665 C-52.2002,-17.6665 -52.9997,-16.8671 -52.9997,-15.8918 C-52.9997,-14.9164 -52.2002,-14.117 -51.2249,-14.117 C-50.2496,-14.117 -49.4502,-14.9164 -49.4502,-15.8918 C-49.4502,-16.8671 -50.2496,-17.6665 -51.2249,-17.6665 Z M-48.1551,-19.4412 C-48.6508,-18.5938 -48.347,-17.5066 -47.4996,-17.011 C-46.6522,-16.5153 -45.565,-16.8191 -45.0693,-17.6665 C-44.5737,-18.5139 -44.8774,-19.6011 -45.7248,-20.0968 C-46.5882,-20.5764 -47.6755,-20.2886 -48.1551,-19.4412 Z M-48.1551,-22.9907 C-47.6595,-22.1433 -46.5722,-21.8555 -45.7248,-22.3352 C-44.8774,-22.8308 -44.5896,-23.918 -45.0693,-24.7654 C-45.565,-25.6128 -46.6522,-25.9006 -47.4996,-25.405 C-48.363,-24.9093 -48.6508,-23.8381 -48.1551,-22.9907 Z M-51.2249,-24.7654 C-50.2496,-24.7654 -49.4502,-25.5649 -49.4502,-26.5402 C-49.4502,-27.5155 -50.2496,-28.3149 -51.2249,-28.3149 C-52.2002,-28.3149 -52.9997,-27.5155 -52.9997,-26.5402 C-52.9997,-25.5649 -52.2002,-24.7654 -51.2249,-24.7654 Z " fill="#56a778" fill-opacity="1.00" />					<path d="M37.2905,-23.1884 C37.7861,-24.0358 37.4823,-25.1071 36.6349,-25.6027 C35.7875,-26.0984 34.7003,-25.8106 34.2046,-24.9632 C33.709,-24.1158 34.0128,-23.0285 34.8602,-22.5329 C35.7236,-22.0532 36.8108,-22.341 37.2905,-23.1884 Z M37.2905,-19.6389 C36.7948,-20.4863 35.7076,-20.7741 34.8602,-20.2945 C34.0128,-19.7988 33.725,-18.7116 34.2046,-17.8642 C34.6843,-17.0168 35.7875,-16.729 36.6349,-17.2247 C37.4983,-17.7203 37.7861,-18.7915 37.2905,-19.6389 Z M40.3603,-17.8642 C39.385,-17.8642 38.5855,-17.0648 38.5855,-16.0895 C38.5855,-15.1142 39.385,-14.3147 40.3603,-14.3147 C41.3356,-14.3147 42.135,-15.1142 42.135,-16.0895 C42.135,-17.0648 41.3356,-17.8642 40.3603,-17.8642 Z M43.4301,-19.6389 C42.9344,-18.7915 43.2382,-17.7043 44.0856,-17.2087 C44.933,-16.713 46.0202,-17.0168 46.5159,-17.8642 C47.0115,-18.7116 46.7078,-19.7988 45.8604,-20.2945 C44.997,-20.7741 43.9097,-20.4863 43.4301,-19.6389 Z M43.4301,-23.1884 C43.9257,-22.341 45.013,-22.0532 45.8604,-22.5329 C46.7078,-23.0285 46.9956,-24.1158 46.5159,-24.9632 C46.0202,-25.8106 44.933,-26.0984 44.0856,-25.6027 C43.2222,-25.1071 42.9344,-24.0358 43.4301,-23.1884 Z M40.3603,-24.9632 C41.3356,-24.9632 42.135,-25.7626 42.135,-26.7379 C42.135,-27.7132 41.3356,-28.5126 40.3603,-28.5126 C39.385,-28.5126 38.5855,-27.7132 38.5855,-26.7379 C38.5855,-25.7626 39.385,-24.9632 40.3603,-24.9632 Z " fill="#56a778" fill-opacity="1.00" />					<path d="M39.5124,244.065 C46.1562,244.065 51.5345,238.686 51.5345,232.043 C51.5345,225.399 46.1562,220.02 39.5124,220.02 C32.8687,220.02 27.4904,225.399 27.4904,232.043 C27.4904,238.686 32.8687,244.065 39.5124,244.065 Z " fill="#87bb9c" fill-opacity="1.00" />					<path d="M-51.8085,244.125 C-45.1647,244.125 -39.7864,238.747 -39.7864,232.103 C-39.7864,225.459 -45.1647,220.081 -51.8085,220.081 C-58.4522,220.081 -63.8305,225.459 -63.8305,232.103 C-63.8305,238.747 -58.4522,244.125 -51.8085,244.125 Z " fill="#87bb9c" fill-opacity="1.00" />					<path d="M-55.0699,230.9 C-54.5742,230.052 -54.878,228.981 -55.7254,228.485 C-56.5728,227.99 -57.66,228.277 -58.1557,229.125 C-58.6513,229.972 -58.3476,231.059 -57.5002,231.555 C-56.6368,232.035 -55.5495,231.747 -55.0699,230.9 Z M-55.0699,234.449 C-55.5655,233.602 -56.6528,233.314 -57.5002,233.794 C-58.3476,234.289 -58.6354,235.376 -58.1557,236.224 C-57.676,237.071 -56.5728,237.359 -55.7254,236.863 C-54.862,236.368 -54.5742,235.296 -55.0699,234.449 Z M-52.0001,236.224 C-52.9754,236.224 -53.7748,237.023 -53.7748,237.999 C-53.7748,238.974 -52.9754,239.773 -52.0001,239.773 C-51.0248,239.773 -50.2253,238.974 -50.2253,237.999 C-50.2253,237.023 -51.0248,236.224 -52.0001,236.224 Z M-48.9302,234.449 C-49.4259,235.296 -49.1221,236.384 -48.2747,236.879 C-47.4273,237.375 -46.3401,237.071 -45.8444,236.224 C-45.3488,235.376 -45.6526,234.289 -46.5,233.794 C-47.3634,233.314 -48.4506,233.602 -48.9302,234.449 Z M-48.9302,230.9 C-48.4346,231.747 -47.3474,232.035 -46.5,231.555 C-45.6526,231.059 -45.3648,229.972 -45.8444,229.125 C-46.3401,228.277 -47.4273,227.99 -48.2747,228.485 C-49.1381,228.981 -49.4259,230.052 -48.9302,230.9 Z M-52.0001,229.125 C-51.0248,229.125 -50.2253,228.325 -50.2253,227.35 C-50.2253,226.375 -51.0248,225.575 -52.0001,225.575 C-52.9754,225.575 -53.7748,226.375 -53.7748,227.35 C-53.7748,228.325 -52.9754,229.125 -52.0001,229.125 Z " fill="#56a778" fill-opacity="1.00" />					<path d="M36.5153,230.702 C37.011,229.854 36.7072,228.783 35.8598,228.288 C35.0124,227.792 33.9252,228.08 33.4295,228.927 C32.9339,229.775 33.2376,230.862 34.085,231.357 C34.9484,231.837 36.0357,231.549 36.5153,230.702 Z M36.5153,234.251 C36.0197,233.404 34.9324,233.116 34.085,233.596 C33.2376,234.091 32.9498,235.179 33.4295,236.026 C33.9092,236.873 35.0124,237.161 35.8598,236.666 C36.7232,236.17 37.011,235.099 36.5153,234.251 Z M39.5851,236.026 C38.6098,236.026 37.8104,236.825 37.8104,237.801 C37.8104,238.776 38.6098,239.576 39.5851,239.576 C40.5604,239.576 41.3599,238.776 41.3599,237.801 C41.3599,236.825 40.5604,236.026 39.5851,236.026 Z M42.655,234.251 C42.1593,235.099 42.4631,236.186 43.3105,236.682 C44.1579,237.177 45.2451,236.873 45.7408,236.026 C46.2364,235.179 45.9326,234.091 45.0852,233.596 C44.2218,233.116 43.1346,233.404 42.655,234.251 Z M42.655,230.702 C43.1506,231.549 44.2378,231.837 45.0852,231.357 C45.9326,230.862 46.2204,229.775 45.7408,228.927 C45.2451,228.08 44.1579,227.792 43.3105,228.288 C42.4471,228.783 42.1593,229.854 42.655,230.702 Z M39.5851,228.927 C40.5604,228.927 41.3599,228.128 41.3599,227.152 C41.3599,226.177 40.5604,225.378 39.5851,225.378 C38.6098,225.378 37.8104,226.177 37.8104,227.152 C37.8104,228.128 38.6098,228.927 39.5851,228.927 Z " fill="#56a778" fill-opacity="1.00" />				</g>				<defs>					<filter id="IcYmZ6XK" x="0.00%" y="0.00%" width="100.00%" height="103.14%" filterUnits="objectBoundingBox">						<feOffset dx="0.00" dy="6.39" in="SourceAlpha" result="shadowOffsetOuter1" />						<feGaussianBlur stdDeviation="0.00" in="shadowOffsetOuter1" result="shadowBlurOuter1" />						<feFlood flood-color="#000000" flood-opacity="0.18" />						<feComposite in2="shadowBlurOuter1" operator="in" />						<feMerge>							<feMergeNode />							<feMergeNode in="SourceGraphic" />						</feMerge>					</filter>				</defs>				<path d="M-275.037,-41.0775 C-277.248,-43.0551 -275.037,-46.1167 -275.037,-46.1167 L-4.57257,-243.21 L263.797,-46.1167 C263.797,-46.1167 265.505,-44.7053 265.11,-42.3649 C264.022,-39.8762 261.084,-39.9125 261.084,-39.9125 L-268.098,-39.9125 C-268.098,-39.9125 -273.065,-39.3147 -275.037,-41.0775 Z " fill="#87bb9c" fill-opacity="1.00" filter="url(#IcYmZ6XK)" />				<path d="M-196.062,-67.1124 C-197.618,-68.5039 -196.062,-70.6581 -196.062,-70.6581 L-5.75818,-209.337 L183.072,-70.6581 C183.072,-70.6581 184.274,-69.665 183.996,-68.0183 C183.231,-66.2672 181.164,-66.2927 181.164,-66.2927 L-191.181,-66.2927 C-191.181,-66.2927 -194.675,-65.8721 -196.062,-67.1124 Z " fill="#56a778" fill-opacity="1.00" />				<path d="M-200.022,187.966 L-200.022,22.7944 M-174.648,188.48 L-174.648,23.3088 M-149.017,188.48 L-149.017,23.3088 " fill="none" stroke-width="5.81" stroke="#87bb9c" stroke-linecap="round" stroke-linejoin="round" />				<path d="M-32.259,188.223 L-32.259,23.0516 M-6.88435,188.738 L-6.88436,23.5661 M18.7466,188.738 L18.7466,23.5661 " fill="none" stroke-width="5.81" stroke="#87bb9c" stroke-linecap="round" stroke-linejoin="round" />				<path d="M136.741,193.78 L136.741,28.6087 M162.116,194.295 L162.116,29.1232 M187.747,194.295 L187.747,29.1232 " fill="none" stroke-width="5.81" stroke="#87bb9c" stroke-linecap="round" stroke-linejoin="round" />				<path d="M91.2656,-108.448 L91.2656,-108.46 L78.3907,-108.46 C71.3845,-108.46 65.7226,-102.798 65.7226,-95.7915 L65.7226,-82.9166 L78.3907,-83.0131 L89.9792,-83.0131 C96.9854,-83.0131 102.647,-88.675 102.647,-95.6812 L102.647,-108.556 L91.2656,-108.448 Z " fill="#357350" fill-opacity="0.62" />				<path d="M-104.287,-108.448 L-104.287,-108.46 L-91.412,-108.46 C-84.4058,-108.46 -78.7439,-102.798 -78.7439,-95.7915 L-78.7439,-82.9166 L-91.412,-83.0131 L-103.001,-83.0131 C-110.007,-83.0131 -115.669,-88.675 -115.669,-95.6812 L-115.669,-108.556 L-104.287,-108.448 Z " fill="#357350" fill-opacity="0.62" />				<path d="M263.152,96.3375 L263.152,96.3075 L297.44,96.3075 C316.099,96.3075 331.178,111.386 331.178,130.045 L331.178,164.334 L297.44,164.077 L266.578,164.077 C247.919,164.077 232.84,148.998 232.84,130.339 L232.84,96.0504 L263.152,96.3375 Z " fill="#5ead6d" fill-opacity="0.37" />				<path d="M340.94,22.1505 L340.94,22.135 L323.19,22.135 C313.53,22.135 305.725,29.9408 305.725,39.6001 L305.725,57.3504 L323.19,57.2174 L339.166,57.2174 C348.826,57.2174 356.632,49.4115 356.632,39.7522 L356.632,22.0019 L340.94,22.1505 Z " fill="#5ead6d" fill-opacity="0.37" />				<path d="M451.935,79.1258 L451.935,79.1013 L479.967,79.1013 C495.222,79.1013 507.55,91.4289 507.55,106.684 L507.55,134.716 L479.967,134.506 L454.735,134.506 C439.481,134.506 427.153,122.179 427.153,106.924 L427.153,78.8911 L451.935,79.1258 Z " fill="#5ead6d" fill-opacity="0.37" />				<path d="M417.886,-33.5886 L417.886,-33.6131 L445.918,-33.6131 C461.173,-33.6131 473.501,-21.2855 473.501,-6.03077 L473.501,22.0019 L445.918,21.7917 L420.687,21.7917 C405.432,21.7917 393.104,9.46412 393.104,-5.79061 L393.104,-33.8233 L417.886,-33.5886 Z " fill="#5ead6d" fill-opacity="0.37" />				<path d="M432.646,-216.137 L432.646,-216.161 L460.679,-216.161 C475.934,-216.161 488.261,-203.834 488.261,-188.579 L488.261,-160.546 L460.679,-160.757 L435.447,-160.757 C420.193,-160.757 407.865,-173.084 407.865,-188.339 L407.865,-216.372 L432.646,-216.137 Z " fill="#5ead6d" fill-opacity="0.37" />				<path d="M280.943,-326.344 L280.943,-326.368 L252.91,-326.368 C237.656,-326.368 225.328,-314.041 225.328,-298.786 L225.328,-270.753 L252.91,-270.964 L278.142,-270.964 C293.397,-270.964 305.725,-283.291 305.725,-298.546 L305.725,-326.579 L280.943,-326.344 Z " fill="#5ead6d" fill-opacity="0.37" />				<path d="M266.592,-183.241 L266.592,-183.265 L294.625,-183.265 C309.88,-183.265 322.207,-170.938 322.207,-155.683 L322.207,-127.65 L294.625,-127.86 L269.393,-127.86 C254.138,-127.86 241.811,-140.188 241.811,-155.443 L241.811,-183.475 L266.592,-183.241 Z " fill="#5ead6d" fill-opacity="0.37" />				<path d="M-335.206,126.282 L-335.206,126.252 L-369.495,126.252 C-388.154,126.252 -403.232,141.331 -403.232,159.99 L-403.232,194.279 L-369.495,194.021 L-338.632,194.021 C-319.973,194.021 -304.894,178.943 -304.894,160.284 L-304.894,125.995 L-335.206,126.282 Z " fill="#5ead6d" fill-opacity="0.37" />				<path d="M-319.067,37.4016 L-319.067,37.3903 L-331.942,37.3903 C-338.948,37.3903 -344.61,43.0522 -344.61,50.0584 L-344.61,62.9333 L-331.942,62.8368 L-320.354,62.8368 C-313.347,62.8368 -307.686,57.1749 -307.686,50.1687 L-307.686,37.2938 L-319.067,37.4016 Z " fill="#5ead6d" fill-opacity="0.37" />				<path d="M-505.732,168.747 L-505.732,168.736 L-492.857,168.736 C-485.851,168.736 -480.189,174.397 -480.189,181.404 L-480.189,194.279 L-492.857,194.182 L-504.445,194.182 C-511.452,194.182 -517.113,188.52 -517.113,181.514 L-517.113,168.639 L-505.732,168.747 Z " fill="#5ead6d" fill-opacity="0.37" />				<path d="M-458.847,-23.6733 L-458.847,-23.6978 L-430.815,-23.6978 C-415.56,-23.6978 -403.232,-11.3702 -403.232,3.88453 L-403.232,31.9172 L-430.815,31.707 L-456.046,31.707 C-471.301,31.707 -483.629,19.3794 -483.629,4.12468 L-483.629,-23.908 L-458.847,-23.6733 Z " fill="#5ead6d" fill-opacity="0.37" />				<path d="M-355.598,-193.371 L-355.598,-193.396 L-383.631,-193.396 C-398.886,-193.396 -411.213,-181.068 -411.213,-165.813 L-411.213,-137.781 L-383.631,-137.991 L-358.399,-137.991 C-343.144,-137.991 -330.817,-150.318 -330.817,-165.573 L-330.817,-193.606 L-355.598,-193.371 Z " fill="#5ead6d" fill-opacity="0.37" />				<path d="M-343.248,-314.605 L-343.248,-314.629 L-315.215,-314.629 C-299.961,-314.629 -287.633,-302.302 -287.633,-287.047 L-287.633,-259.014 L-315.215,-259.224 L-340.447,-259.224 C-355.702,-259.224 -368.03,-271.552 -368.03,-286.807 L-368.03,-314.839 L-343.248,-314.605 Z " fill="#5ead6d" fill-opacity="0.37" />				<path d="M-0.227252,-66.224 L-0.227252,-113.663 L-12.7941,-113.663 L-12.7941,-66.224 L-0.227252,-66.224 Z " fill="#357350" fill-opacity="1.00" />				<path d="M15.9576,-131.024 L15.9576,-161.007 C15.9576,-173.456 5.93795,-183.475 -6.51066,-183.475 C-18.9593,-183.475 -28.9789,-173.456 -28.9789,-161.007 L-28.9789,-131.024 C-28.9789,-118.576 -18.9593,-108.556 -6.51066,-108.556 C5.86204,-108.556 15.9576,-118.576 15.9576,-131.024 Z " fill="#357350" fill-opacity="1.00" />				<path d="M23.9873,-66.224 L23.9873,-96.5358 L15.9576,-96.5358 L15.9576,-66.224 L23.9873,-66.224 Z " fill="#357350" fill-opacity="1.00" />				<path d="M34.3288,-107.629 L34.3288,-126.787 C34.3288,-134.741 27.9266,-141.143 19.9724,-141.143 C12.0182,-141.143 5.61606,-134.741 5.61606,-126.787 L5.61606,-107.629 C5.61606,-99.6748 12.0182,-93.2727 19.9724,-93.2727 C27.8781,-93.2727 34.3288,-99.6748 34.3288,-107.629 Z " fill="#357350" fill-opacity="1.00" />				<path d="M-28.9789,-66.224 L-28.9789,-96.5358 L-37.0086,-96.5358 L-37.0086,-66.224 L-28.9789,-66.224 Z " fill="#357350" fill-opacity="1.00" />				<path d="M-18.6374,-107.629 L-18.6374,-126.787 C-18.6374,-134.741 -25.0395,-141.143 -32.9938,-141.143 C-40.948,-141.143 -47.3501,-134.741 -47.3501,-126.787 L-47.3501,-107.629 C-47.3501,-99.6748 -40.948,-93.2727 -32.9938,-93.2727 C-25.088,-93.2727 -18.6374,-99.6748 -18.6374,-107.629 Z " fill="#357350" fill-opacity="1.00" />				<path d="M538.75,-29.3452 L448.636,-83.8874 L454.32,-82.3012 L255.227,-82.3012 C252.852,-82.3012 250.541,-83.0716 248.64,-84.4967 L143.016,-163.715 C138.165,-167.352 137.182,-174.233 140.82,-179.084 C144.458,-183.934 151.339,-184.917 156.189,-181.279 L261.814,-102.061 L255.227,-104.257 L454.32,-104.257 C456.324,-104.257 458.29,-103.708 460.004,-102.671 L550.119,-48.1284 C555.306,-44.9891 556.966,-38.2393 553.826,-33.0525 C550.687,-27.8656 543.937,-26.2058 538.75,-29.3452 Z " fill="#5ead6d" fill-opacity="0.37" />				<path d="M-563.168,-29.3452 L-473.053,-83.8874 L-478.738,-82.3012 L-279.645,-82.3012 C-277.27,-82.3012 -274.958,-83.0716 -273.058,-84.4967 L-167.433,-163.715 C-162.583,-167.352 -161.6,-174.233 -165.238,-179.084 C-168.876,-183.934 -175.756,-184.917 -180.607,-181.279 L-286.232,-102.061 L-279.645,-104.257 L-478.738,-104.257 C-480.742,-104.257 -482.708,-103.708 -484.422,-102.671 L-574.537,-48.1284 C-579.724,-44.9891 -581.383,-38.2393 -578.244,-33.0525 C-575.105,-27.8656 -568.355,-26.2058 -563.168,-29.3452 Z " fill="#5ead6d" fill-opacity="0.37" />				<path d="M-400.172,288.612 C-400.172,309.513 -383.106,326.579 -362.205,326.579 L348.693,326.579 C369.594,326.579 386.659,309.513 386.659,288.612 C386.659,267.711 369.594,250.645 348.693,250.645 L-362.205,250.645 C-383.106,250.645 -400.172,267.711 -400.172,288.612 Z " fill="#3f9966" fill-opacity="1.00" />			</g>		</g>	</svg>