<?xml version="1.0" encoding="utf-8" ?>	<!-- Generator: Assembly 2.2 - http://assemblyapp.co -->	<svg version="1.1" xmlns="http://www.w3.org/2000/svg" xmlns:xlink="http://www.w3.org/1999/xlink" width="2048.00" height="1152.00" viewBox="0 0 2048.0 1151.9999914169312">		<g id="document" transform="matrix(1,0,0,1,1024.0,575.9999957084656)">			<path d="M-689.318,-116.504 C-703.099,-116.504 -715.503,-113.666 -726.528,-107.991 C-737.553,-102.317 -746.187,-94.1692 -752.429,-83.5493 C-758.671,-72.9293 -761.793,-60.4854 -761.793,-46.2174 C-761.793,-31.9493 -758.671,-19.5054 -752.429,-8.88544 C-746.187,1.7345 -737.553,9.88186 -726.528,15.5566 C-715.503,21.2314 -703.099,24.0688 -689.318,24.0688 C-675.536,24.0688 -663.133,21.2314 -652.107,15.5566 C-641.082,9.88186 -632.448,1.7345 -626.206,-8.88544 C-619.964,-19.5054 -616.843,-31.9493 -616.843,-46.2174 C-616.843,-60.4854 -619.964,-72.9293 -626.206,-83.5493 C-632.448,-94.1692 -641.082,-102.317 -652.107,-107.991 C-663.133,-113.666 -675.536,-116.504 -689.318,-116.504 Z M-689.318,-69.8082 C-684.291,-69.8082 -680.076,-67.822 -676.671,-63.8497 C-673.266,-59.8774 -671.564,-53.9999 -671.564,-46.2174 C-671.564,-38.4348 -673.266,-32.5574 -676.671,-28.585 C-680.076,-24.6127 -684.291,-22.6265 -689.318,-22.6265 C-694.506,-22.6265 -698.762,-24.6127 -702.086,-28.585 C-705.41,-32.5574 -707.071,-38.4348 -707.071,-46.2174 C-707.071,-53.9999 -705.369,-59.8774 -701.964,-63.8497 C-698.559,-67.822 -694.344,-69.8082 -689.318,-69.8082 Z " fill="#131313" fill-opacity="1.00" />			<path d="M-503.752,-115.774 C-513.481,-115.774 -521.871,-113.747 -528.924,-109.694 C-535.977,-105.64 -541.611,-100.371 -545.827,-93.8855 L-545.827,-114.801 L-599.818,-114.801 L-599.818,22.3664 L-545.827,22.3664 L-545.827,-50.3518 C-545.827,-56.8373 -544.124,-61.9851 -540.719,-65.7953 C-537.315,-69.6055 -532.613,-71.5106 -526.614,-71.5106 C-520.777,-71.5106 -516.115,-69.6055 -512.629,-65.7953 C-509.143,-61.9851 -507.4,-56.8373 -507.4,-50.3518 L-507.4,22.3664 L-453.652,22.3664 L-453.652,-57.1616 C-453.652,-75.1587 -458.07,-89.4267 -466.907,-99.9656 C-475.743,-110.504 -488.025,-115.774 -503.752,-115.774 Z " fill="#131313" fill-opacity="1.00" />			<path d="M-430.305,-157.605 L-430.305,22.3664 L-376.313,22.3664 L-376.313,-157.605 L-430.305,-157.605 Z " fill="#131313" fill-opacity="1.00" />			<path d="M-355.884,-152.255 C-355.884,-144.634 -353.047,-138.311 -347.372,-133.285 C-341.697,-128.258 -334.158,-125.745 -324.754,-125.745 C-315.512,-125.745 -308.054,-128.258 -302.379,-133.285 C-296.704,-138.311 -293.867,-144.634 -293.867,-152.255 C-293.867,-160.037 -296.704,-166.482 -302.379,-171.589 C-308.054,-176.697 -315.512,-179.25 -324.754,-179.25 C-334.158,-179.25 -341.697,-176.697 -347.372,-171.589 C-353.047,-166.482 -355.884,-160.037 -355.884,-152.255 Z M-351.993,-114.801 L-351.993,22.3664 L-298.001,22.3664 L-298.001,-114.801 L-351.993,-114.801 Z " fill="#131313" fill-opacity="1.00" />			<path d="M-177.615,-115.774 C-187.343,-115.774 -195.734,-113.747 -202.787,-109.694 C-209.84,-105.64 -215.474,-100.371 -219.689,-93.8855 L-219.689,-114.801 L-273.681,-114.801 L-273.681,22.3664 L-219.689,22.3664 L-219.689,-50.3518 C-219.689,-56.8373 -217.987,-61.9851 -214.582,-65.7953 C-211.177,-69.6055 -206.475,-71.5106 -200.476,-71.5106 C-194.639,-71.5106 -189.978,-69.6055 -186.492,-65.7953 C-183.006,-61.9851 -181.263,-56.8373 -181.263,-50.3518 L-181.263,22.3664 L-127.515,22.3664 L-127.515,-57.1616 C-127.515,-75.1587 -131.933,-89.4267 -140.769,-99.9656 C-149.606,-110.504 -161.888,-115.774 -177.615,-115.774 Z " fill="#131313" fill-opacity="1.00" />			<path d="M28.6227,-47.4334 C28.6227,-61.5392 25.6637,-73.7806 19.7457,-84.1573 C13.8277,-94.534 5.55876,-102.519 -5.06117,-108.113 C-15.6811,-113.707 -27.8008,-116.504 -41.4203,-116.504 C-55.0397,-116.504 -67.1594,-113.666 -77.7794,-107.991 C-88.3993,-102.317 -96.6683,-94.1692 -102.586,-83.5493 C-108.504,-72.9293 -111.463,-60.4854 -111.463,-46.2174 C-111.463,-31.9493 -108.504,-19.5054 -102.586,-8.88544 C-96.6683,1.7345 -88.3993,9.88186 -77.7794,15.5566 C-67.1594,21.2314 -55.0397,24.0688 -41.4203,24.0688 C-30.0707,24.0688 -19.6535,21.8394 -10.1685,17.3807 C-0.68349,12.9219 7.18013,6.8418 13.4224,-0.859681 C19.6646,-8.56116 23.7586,-17.276 25.7042,-27.0042 L-31.4489,-27.0042 C-34.0431,-21.6537 -38.2586,-18.9784 -44.0955,-18.9784 C-48.3111,-18.9784 -51.7159,-20.235 -54.3101,-22.7481 C-56.9043,-25.2612 -58.4446,-29.9226 -58.931,-36.7324 L27.4067,-36.7324 C28.2173,-40.4615 28.6227,-44.0285 28.6227,-47.4334 Z M-58.4446,-58.864 C-56.9854,-69.0786 -51.3106,-74.1859 -41.4203,-74.1859 C-37.0426,-74.1859 -33.3945,-72.9293 -30.4761,-70.4162 C-27.5576,-67.9031 -26.0984,-64.0524 -26.0984,-58.864 L-58.4446,-58.864 Z " fill="#131313" fill-opacity="1.00" />			<path d="M119.58,-116.504 C105.798,-116.504 93.3949,-113.666 82.3696,-107.991 C71.3444,-102.317 62.7106,-94.1692 56.4683,-83.5493 C50.2261,-72.9293 47.105,-60.4854 47.105,-46.2174 C47.105,-31.9493 50.2261,-19.5054 56.4683,-8.88544 C62.7106,1.7345 71.3444,9.88186 82.3696,15.5566 C93.3949,21.2314 105.798,24.0688 119.58,24.0688 C133.362,24.0688 145.765,21.2314 156.79,15.5566 C167.816,9.88186 176.449,1.7345 182.692,-8.88544 C188.934,-19.5054 192.055,-31.9493 192.055,-46.2174 C192.055,-60.4854 188.934,-72.9293 182.692,-83.5493 C176.449,-94.1692 167.816,-102.317 156.79,-107.991 C145.765,-113.666 133.362,-116.504 119.58,-116.504 Z M119.58,-69.8082 C124.606,-69.8082 128.822,-67.822 132.227,-63.8497 C135.631,-59.8774 137.334,-53.9999 137.334,-46.2174 C137.334,-38.4348 135.631,-32.5574 132.227,-28.585 C128.822,-24.6127 124.606,-22.6265 119.58,-22.6265 C114.392,-22.6265 110.136,-24.6127 106.812,-28.585 C103.488,-32.5574 101.826,-38.4348 101.826,-46.2174 C101.826,-53.9999 103.528,-59.8774 106.933,-63.8497 C110.338,-67.822 114.554,-69.8082 119.58,-69.8082 Z " fill="#f42f52" fill-opacity="1.00" />			<path d="M288.121,-124.529 L288.121,-170.495 C282.932,-170.819 279.203,-170.981 276.933,-170.981 C257.153,-170.981 241.79,-166.077 230.846,-156.267 C219.902,-146.458 214.268,-132.636 213.943,-114.801 L199.351,-114.801 L199.351,-69.8082 L213.943,-69.8082 L213.943,22.3664 L267.935,22.3664 L267.935,-69.8082 L288.121,-69.8082 L288.121,-114.801 L268.421,-114.801 C269.232,-118.53 270.691,-121.165 272.799,-122.705 C274.907,-124.246 277.987,-125.016 282.041,-125.016 C283.176,-125.016 285.202,-124.854 288.121,-124.529 Z " fill="#f42f52" fill-opacity="1.00" />			<path d="M381.755,-124.529 L381.755,-170.495 C376.566,-170.819 372.837,-170.981 370.567,-170.981 C350.787,-170.981 335.424,-166.077 324.48,-156.267 C313.536,-146.458 307.901,-132.636 307.577,-114.801 L292.985,-114.801 L292.985,-69.8082 L307.577,-69.8082 L307.577,22.3664 L361.569,22.3664 L361.569,-69.8082 L381.755,-69.8082 L381.755,-114.801 L362.055,-114.801 C362.866,-118.53 364.325,-121.165 366.433,-122.705 C368.54,-124.246 371.621,-125.016 375.674,-125.016 C376.809,-125.016 378.836,-124.854 381.755,-124.529 Z " fill="#f42f52" fill-opacity="1.00" />			<path d="M392.456,-152.255 C392.456,-144.634 395.293,-138.311 400.968,-133.285 C406.643,-128.258 414.182,-125.745 423.586,-125.745 C432.828,-125.745 440.286,-128.258 445.961,-133.285 C451.635,-138.311 454.473,-144.634 454.473,-152.255 C454.473,-160.037 451.635,-166.482 445.961,-171.589 C440.286,-176.697 432.828,-179.25 423.586,-179.25 C414.182,-179.25 406.643,-176.697 400.968,-171.589 C395.293,-166.482 392.456,-160.037 392.456,-152.255 Z M396.347,-114.801 L396.347,22.3664 L450.338,22.3664 L450.338,-114.801 L396.347,-114.801 Z " fill="#f42f52" fill-opacity="1.00" />			<path d="M537.406,-116.504 C523.786,-116.504 511.666,-113.666 501.046,-107.991 C490.427,-102.317 482.158,-94.1692 476.24,-83.5493 C470.322,-72.9293 467.363,-60.4854 467.363,-46.2174 C467.363,-31.9493 470.322,-19.5054 476.24,-8.88544 C482.158,1.7345 490.427,9.88186 501.046,15.5566 C511.666,21.2314 523.786,24.0688 537.406,24.0688 C555.241,24.0688 570.279,19.0426 582.52,8.99011 C594.761,-1.06235 602.503,-15.0061 605.746,-32.8411 L548.593,-32.8411 C546.485,-25.7071 542.351,-22.1401 536.19,-22.1401 C531.812,-22.1401 528.366,-24.1668 525.853,-28.2202 C523.34,-32.2736 522.084,-38.2727 522.084,-46.2174 C522.084,-54.162 523.34,-60.1611 525.853,-64.2145 C528.366,-68.2679 531.812,-70.2946 536.19,-70.2946 C542.351,-70.2946 546.485,-66.7276 548.593,-59.5936 L605.746,-59.5936 C602.503,-77.4286 594.761,-91.3724 582.52,-101.425 C570.279,-111.477 555.241,-116.504 537.406,-116.504 Z " fill="#f42f52" fill-opacity="1.00" />			<path d="M755.56,-47.4334 C755.56,-61.5392 752.601,-73.7806 746.683,-84.1573 C740.765,-94.534 732.496,-102.519 721.876,-108.113 C711.256,-113.707 699.137,-116.504 685.517,-116.504 C671.898,-116.504 659.778,-113.666 649.158,-107.991 C638.538,-102.317 630.269,-94.1692 624.351,-83.5493 C618.433,-72.9293 615.474,-60.4854 615.474,-46.2174 C615.474,-31.9493 618.433,-19.5054 624.351,-8.88544 C630.269,1.7345 638.538,9.88186 649.158,15.5566 C659.778,21.2314 671.898,24.0688 685.517,24.0688 C696.867,24.0688 707.284,21.8394 716.769,17.3807 C726.254,12.9219 734.118,6.8418 740.36,-0.859681 C746.602,-8.56116 750.696,-17.276 752.642,-27.0042 L695.489,-27.0042 C692.894,-21.6537 688.679,-18.9784 682.842,-18.9784 C678.626,-18.9784 675.222,-20.235 672.627,-22.7481 C670.033,-25.2612 668.493,-29.9226 668.007,-36.7324 L754.344,-36.7324 C755.155,-40.4615 755.56,-44.0285 755.56,-47.4334 Z M668.493,-58.864 C669.952,-69.0786 675.627,-74.1859 685.517,-74.1859 C689.895,-74.1859 693.543,-72.9293 696.461,-70.4162 C699.38,-67.9031 700.839,-64.0524 700.839,-58.864 L668.493,-58.864 Z " fill="#f42f52" fill-opacity="1.00" />			<g>				<path d="M-78.2647,221.045 C-78.2647,193.546 -55.9725,171.254 -28.4738,171.254 C-0.975114,171.254 21.317,193.546 21.317,221.045 C21.317,248.544 -0.975114,270.836 -28.4738,270.836 C-55.9725,270.836 -78.2647,248.544 -78.2647,221.045 Z " fill="none" stroke-width="25.50" stroke="#f42f52" stroke-linecap="square" stroke-linejoin="miter" />				<path d="M-21.317,221.045 C-21.317,193.546 0.975114,171.254 28.4738,171.254 C55.9725,171.254 78.2647,193.546 78.2647,221.045 C78.2647,248.544 55.9725,270.836 28.4738,270.836 C0.975114,270.836 -21.317,248.544 -21.317,221.045 Z " fill="none" stroke-width="25.50" stroke="#131313" stroke-linecap="square" stroke-linejoin="miter" />				<path d="M33.9,225.644 L8.28467,225.644 C8.4713,224.137 8.56742,222.602 8.56742,221.045 C8.56742,200.588 -8.01652,184.004 -28.4738,184.004 C-48.9311,184.004 -65.5151,200.588 -65.5151,221.045 C-65.5151,241.502 -48.9311,258.086 -28.4738,258.086 C-27.9144,258.086 -27.3579,258.074 -26.8046,258.049 L-26.8046,283.564 C-27.3592,283.578 -27.9157,283.585 -28.4738,283.585 C-63.014,283.585 -91.0142,255.585 -91.0142,221.045 C-91.0142,186.505 -63.014,158.505 -28.4738,158.505 C6.06629,158.505 34.0666,186.505 34.0666,221.045 C34.0666,222.592 34.0104,224.126 33.9,225.644 L33.9,225.644 Z " fill="#f42f52" fill-opacity="1.00" />			</g>		</g>	</svg>