<?xml version="1.0" encoding="utf-8" ?>	<!-- Generator: Assembly 2.2 - http://assemblyapp.co -->	<svg version="1.1" xmlns="http://www.w3.org/2000/svg" xmlns:xlink="http://www.w3.org/1999/xlink" width="2048.00" height="1582.55" viewBox="0 0 2048.0 1582.5454030943329">		<g id="document" transform="matrix(1,0,0,1,1024.0,791.2727015471664)">			<path d="M-14.9532,670.891 L-38.0159,649.618 L-38.0159,698.449 L-26.4553,698.449 L-26.4553,676.029 L-14.9532,686.421 L-3.50945,675.97 L-3.50945,698.449 L8.05108,698.449 L38.0159,698.449 L24.2267,686.421 L8.05108,686.421 L8.05108,649.618 L-14.9532,670.891 Z " fill="#000000" fill-opacity="0.23" />			<path d="M-180.694,740.179 L-177.334,740.179 L-177.334,731.592 C-177.334,731.24 -177.344,730.83 -177.365,730.363 C-177.386,729.897 -177.453,729.415 -177.567,728.917 C-177.681,728.419 -177.868,727.926 -178.127,727.439 C-178.387,726.952 -178.755,726.521 -179.232,726.148 C-179.709,725.775 -180.31,725.469 -181.036,725.23 C-181.762,724.992 -182.654,724.872 -183.712,724.872 C-184.894,724.872 -186.04,725.059 -187.15,725.432 C-188.259,725.806 -189.229,726.418 -190.058,727.268 L-188.098,729.228 C-187.601,728.751 -187.01,728.372 -186.325,728.092 C-185.641,727.812 -184.904,727.672 -184.116,727.672 C-183.121,727.672 -182.301,727.906 -181.658,728.372 C-181.015,728.839 -180.694,729.539 -180.694,730.472 L-180.694,730.877 L-181.627,730.877 C-182.25,730.877 -182.913,730.892 -183.618,730.923 C-184.324,730.955 -185.024,731.027 -185.718,731.141 C-186.413,731.255 -187.082,731.426 -187.725,731.655 C-188.368,731.883 -188.933,732.189 -189.421,732.572 C-189.908,732.956 -190.297,733.433 -190.587,734.004 C-190.878,734.574 -191.023,735.264 -191.023,736.072 C-191.023,736.819 -190.867,737.472 -190.556,738.032 C-190.245,738.592 -189.836,739.059 -189.327,739.432 C-188.819,739.806 -188.238,740.086 -187.585,740.272 C-186.932,740.459 -186.263,740.552 -185.578,740.552 C-184.583,740.552 -183.67,740.361 -182.841,739.977 C-182.011,739.593 -181.327,738.976 -180.787,738.126 L-180.694,738.126 L-180.694,740.179 Z M-180.912,734.33 C-180.912,735.388 -181.218,736.223 -181.83,736.835 C-182.441,737.446 -183.39,737.752 -184.676,737.752 C-184.987,737.752 -185.298,737.716 -185.61,737.644 C-185.921,737.571 -186.201,737.452 -186.45,737.286 C-186.698,737.12 -186.901,736.918 -187.056,736.679 C-187.212,736.441 -187.29,736.145 -187.29,735.792 C-187.29,735.253 -187.093,734.833 -186.698,734.532 C-186.304,734.232 -185.822,734.004 -185.252,733.848 C-184.681,733.692 -184.075,733.594 -183.432,733.552 C-182.789,733.511 -182.208,733.49 -181.69,733.49 L-180.912,733.49 L-180.912,734.33 Z " fill="#000000" fill-opacity="0.23" />			<path d="M-164.112,747.272 L-160.378,747.272 L-160.378,738.281 L-160.285,738.281 C-160.098,738.53 -159.86,738.784 -159.569,739.044 C-159.279,739.303 -158.927,739.546 -158.512,739.775 C-158.097,740.003 -157.62,740.189 -157.081,740.335 C-156.541,740.48 -155.919,740.552 -155.214,740.552 C-154.156,740.552 -153.181,740.35 -152.289,739.946 C-151.398,739.541 -150.635,738.986 -150.003,738.281 C-149.37,737.576 -148.878,736.746 -148.525,735.792 C-148.172,734.838 -147.996,733.812 -147.996,732.712 C-147.996,731.613 -148.162,730.586 -148.494,729.632 C-148.826,728.678 -149.313,727.849 -149.956,727.143 C-150.599,726.438 -151.377,725.883 -152.289,725.479 C-153.202,725.075 -154.229,724.872 -155.369,724.872 C-156.427,724.872 -157.412,725.08 -158.325,725.495 C-159.238,725.909 -159.964,726.573 -160.503,727.486 L-160.565,727.486 L-160.565,725.246 L-164.112,725.246 L-164.112,747.272 Z M-151.729,732.712 C-151.729,733.293 -151.828,733.853 -152.025,734.392 C-152.222,734.932 -152.512,735.409 -152.896,735.824 C-153.28,736.238 -153.741,736.57 -154.281,736.819 C-154.82,737.068 -155.432,737.192 -156.116,737.192 C-156.801,737.192 -157.412,737.068 -157.952,736.819 C-158.491,736.57 -158.952,736.238 -159.336,735.824 C-159.72,735.409 -160.01,734.932 -160.207,734.392 C-160.404,733.853 -160.503,733.293 -160.503,732.712 C-160.503,732.132 -160.404,731.572 -160.207,731.032 C-160.01,730.493 -159.72,730.016 -159.336,729.601 C-158.952,729.186 -158.491,728.855 -157.952,728.606 C-157.412,728.357 -156.801,728.232 -156.116,728.232 C-155.432,728.232 -154.82,728.357 -154.281,728.606 C-153.741,728.855 -153.28,729.186 -152.896,729.601 C-152.512,730.016 -152.222,730.493 -152.025,731.032 C-151.828,731.572 -151.729,732.132 -151.729,732.712 Z " fill="#000000" fill-opacity="0.23" />			<path d="M-144.512,740.179 L-140.778,740.179 L-140.778,732.183 C-140.778,731.976 -140.732,731.665 -140.638,731.25 C-140.545,730.835 -140.358,730.421 -140.078,730.006 C-139.798,729.591 -139.394,729.223 -138.865,728.901 C-138.336,728.58 -137.636,728.419 -136.765,728.419 C-136.475,728.419 -136.179,728.445 -135.878,728.497 C-135.578,728.549 -135.272,728.616 -134.96,728.699 L-134.96,725.09 C-135.189,725.028 -135.412,724.976 -135.629,724.935 C-135.847,724.893 -136.07,724.872 -136.298,724.872 C-137.294,724.872 -138.175,725.111 -138.943,725.588 C-139.71,726.065 -140.301,726.739 -140.716,727.61 L-140.778,727.61 L-140.778,725.246 L-144.512,725.246 L-144.512,740.179 Z " fill="#000000" fill-opacity="0.23" />			<path d="M-133.156,732.712 C-133.156,733.895 -132.943,734.968 -132.518,735.932 C-132.093,736.897 -131.518,737.721 -130.792,738.406 C-130.066,739.09 -129.205,739.619 -128.209,739.992 C-127.214,740.366 -126.156,740.552 -125.036,740.552 C-123.916,740.552 -122.858,740.366 -121.863,739.992 C-120.867,739.619 -120.006,739.09 -119.28,738.406 C-118.555,737.721 -117.979,736.897 -117.554,735.932 C-117.129,734.968 -116.916,733.895 -116.916,732.712 C-116.916,731.53 -117.129,730.457 -117.554,729.492 C-117.979,728.528 -118.555,727.703 -119.28,727.019 C-120.006,726.335 -120.867,725.806 -121.863,725.432 C-122.858,725.059 -123.916,724.872 -125.036,724.872 C-126.156,724.872 -127.214,725.059 -128.209,725.432 C-129.205,725.806 -130.066,726.335 -130.792,727.019 C-131.518,727.703 -132.093,728.528 -132.518,729.492 C-132.943,730.457 -133.156,731.53 -133.156,732.712 Z M-129.423,732.712 C-129.423,732.132 -129.324,731.572 -129.127,731.032 C-128.93,730.493 -128.64,730.016 -128.256,729.601 C-127.872,729.186 -127.411,728.855 -126.872,728.606 C-126.332,728.357 -125.72,728.232 -125.036,728.232 C-124.352,728.232 -123.74,728.357 -123.2,728.606 C-122.661,728.855 -122.2,729.186 -121.816,729.601 C-121.432,730.016 -121.142,730.493 -120.945,731.032 C-120.748,731.572 -120.649,732.132 -120.649,732.712 C-120.649,733.293 -120.748,733.853 -120.945,734.392 C-121.142,734.932 -121.432,735.409 -121.816,735.824 C-122.2,736.238 -122.661,736.57 -123.2,736.819 C-123.74,737.068 -124.352,737.192 -125.036,737.192 C-125.72,737.192 -126.332,737.068 -126.872,736.819 C-127.411,736.57 -127.872,736.238 -128.256,735.824 C-128.64,735.409 -128.93,734.932 -129.127,734.392 C-129.324,733.853 -129.423,733.293 -129.423,732.712 Z " fill="#000000" fill-opacity="0.23" />			<path d="M-113.369,725.246 L-113.369,741.112 C-113.369,741.465 -113.38,741.828 -113.4,742.201 C-113.421,742.575 -113.489,742.917 -113.603,743.228 C-113.717,743.539 -113.903,743.793 -114.163,743.99 C-114.422,744.187 -114.78,744.286 -115.236,744.286 C-115.443,744.286 -115.64,744.27 -115.827,744.239 C-116.014,744.208 -116.211,744.172 -116.418,744.13 L-116.698,747.366 C-116.366,747.469 -116.035,747.542 -115.703,747.584 C-115.371,747.625 -115.029,747.646 -114.676,747.646 C-113.618,747.646 -112.757,747.48 -112.094,747.148 C-111.43,746.816 -110.917,746.355 -110.554,745.764 C-110.191,745.172 -109.947,744.478 -109.823,743.679 C-109.698,742.881 -109.636,742.015 -109.636,741.081 L-109.636,725.246 L-113.369,725.246 Z M-113.898,720.175 C-113.898,720.776 -113.675,721.3 -113.229,721.746 C-112.783,722.192 -112.218,722.415 -111.534,722.415 C-110.849,722.415 -110.274,722.202 -109.807,721.777 C-109.34,721.352 -109.107,720.818 -109.107,720.175 C-109.107,719.532 -109.34,718.998 -109.807,718.572 C-110.274,718.147 -110.849,717.935 -111.534,717.935 C-112.218,717.935 -112.783,718.158 -113.229,718.603 C-113.675,719.049 -113.898,719.573 -113.898,720.175 Z " fill="#000000" fill-opacity="0.23" />			<path d="M-90.9692,734.019 L-90.9692,732.992 C-90.9692,731.686 -91.1403,730.529 -91.4826,729.523 C-91.8248,728.518 -92.3018,727.672 -92.9137,726.988 C-93.5255,726.303 -94.2618,725.78 -95.1226,725.417 C-95.9833,725.054 -96.9322,724.872 -97.9693,724.872 C-99.0893,724.872 -100.147,725.059 -101.143,725.432 C-102.138,725.806 -102.999,726.335 -103.725,727.019 C-104.451,727.703 -105.026,728.528 -105.452,729.492 C-105.877,730.457 -106.089,731.53 -106.089,732.712 C-106.089,733.895 -105.877,734.968 -105.452,735.932 C-105.026,736.897 -104.451,737.721 -103.725,738.406 C-102.999,739.09 -102.138,739.619 -101.143,739.992 C-100.147,740.366 -99.0893,740.552 -97.9693,740.552 C-96.787,740.552 -95.6566,740.324 -94.5781,739.868 C-93.4996,739.412 -92.5248,738.644 -91.6537,737.566 L-94.3292,735.544 C-94.8063,736.124 -95.3611,736.606 -95.9937,736.99 C-96.6263,737.374 -97.4092,737.566 -98.3426,737.566 C-99.4004,737.566 -100.303,737.255 -101.049,736.632 C-101.796,736.01 -102.231,735.139 -102.356,734.019 L-90.9692,734.019 Z M-102.356,731.219 C-102.211,730.141 -101.811,729.28 -101.158,728.637 C-100.505,727.994 -99.6181,727.672 -98.4981,727.672 C-97.3159,727.672 -96.3929,727.989 -95.7292,728.621 C-95.0655,729.254 -94.7233,730.12 -94.7026,731.219 L-102.356,731.219 Z " fill="#000000" fill-opacity="0.23" />			<path d="M-74.6981,727.143 C-75.424,726.355 -76.2692,725.78 -77.2336,725.417 C-78.1981,725.054 -79.1573,724.872 -80.1114,724.872 C-81.2314,724.872 -82.2892,725.059 -83.2848,725.432 C-84.2803,725.806 -85.1411,726.335 -85.867,727.019 C-86.5929,727.703 -87.1685,728.528 -87.5937,729.492 C-88.0188,730.457 -88.2314,731.53 -88.2314,732.712 C-88.2314,733.895 -88.0188,734.968 -87.5937,735.932 C-87.1685,736.897 -86.5929,737.721 -85.867,738.406 C-85.1411,739.09 -84.2803,739.619 -83.2848,739.992 C-82.2892,740.366 -81.2314,740.552 -80.1114,740.552 C-79.7796,740.552 -79.3855,740.516 -78.9292,740.444 C-78.4729,740.371 -77.9958,740.252 -77.4981,740.086 C-77.0003,739.92 -76.5077,739.702 -76.0203,739.432 C-75.5329,739.163 -75.1025,738.841 -74.7292,738.468 L-77.2181,735.792 C-77.5707,736.249 -77.9958,736.596 -78.4936,736.835 C-78.9914,737.073 -79.5307,737.192 -80.1114,737.192 C-80.7959,737.192 -81.4077,737.068 -81.947,736.819 C-82.4862,736.57 -82.9477,736.238 -83.3314,735.824 C-83.7151,735.409 -84.0055,734.932 -84.2025,734.392 C-84.3996,733.853 -84.4981,733.293 -84.4981,732.712 C-84.4981,732.132 -84.3996,731.572 -84.2025,731.032 C-84.0055,730.493 -83.7151,730.016 -83.3314,729.601 C-82.9477,729.186 -82.4862,728.855 -81.947,728.606 C-81.4077,728.357 -80.7959,728.232 -80.1114,728.232 C-79.6136,728.232 -79.1262,728.367 -78.6492,728.637 C-78.1721,728.906 -77.7158,729.269 -77.2803,729.726 L-74.6981,727.143 Z " fill="#000000" fill-opacity="0.23" />			<path d="M-71.1514,728.419 L-71.1514,735.264 C-71.1514,736.135 -71.084,736.902 -70.9492,737.566 C-70.8143,738.229 -70.5654,738.784 -70.2025,739.23 C-69.8395,739.676 -69.3417,740.008 -68.7091,740.226 C-68.0765,740.444 -67.2625,740.552 -66.2669,740.552 C-65.8314,740.552 -65.3284,740.516 -64.758,740.444 C-64.1876,740.371 -63.7054,740.241 -63.3113,740.055 L-63.3113,736.912 C-63.5395,737.078 -63.8506,737.198 -64.2447,737.27 C-64.6388,737.343 -65.0017,737.379 -65.3336,737.379 C-66.1632,737.379 -66.718,737.161 -66.998,736.726 C-67.278,736.29 -67.418,735.699 -67.418,734.952 L-67.418,728.419 L-63.3113,728.419 L-63.3113,725.246 L-67.418,725.246 L-67.418,720.921 L-71.1514,720.921 L-71.1514,725.246 L-74.2314,725.246 L-74.2314,728.419 L-71.1514,728.419 Z " fill="#000000" fill-opacity="0.23" />			<path d="M-51.178,740.179 L-47.6313,740.179 L-47.6313,737.939 L-47.5691,737.939 C-47.0298,738.852 -46.3039,739.515 -45.3913,739.93 C-44.4787,740.345 -43.4935,740.552 -42.4357,740.552 C-41.295,740.552 -40.2683,740.35 -39.3557,739.946 C-38.4431,739.541 -37.6653,738.986 -37.0224,738.281 C-36.3794,737.576 -35.892,736.746 -35.5601,735.792 C-35.2283,734.838 -35.0624,733.812 -35.0624,732.712 C-35.0624,731.613 -35.2386,730.586 -35.5912,729.632 C-35.9438,728.678 -36.4364,727.849 -37.069,727.143 C-37.7016,726.438 -38.4638,725.883 -39.3557,725.479 C-40.2476,725.075 -41.2224,724.872 -42.2802,724.872 C-42.9853,724.872 -43.6076,724.945 -44.1468,725.09 C-44.6861,725.235 -45.1631,725.422 -45.5779,725.65 C-45.9928,725.878 -46.3454,726.122 -46.6357,726.381 C-46.9261,726.641 -47.1646,726.895 -47.3513,727.143 L-47.4446,727.143 L-47.4446,716.659 L-51.178,716.659 L-51.178,740.179 Z M-38.7957,732.712 C-38.7957,733.293 -38.8942,733.853 -39.0913,734.392 C-39.2883,734.932 -39.5787,735.409 -39.9624,735.824 C-40.3461,736.238 -40.8076,736.57 -41.3468,736.819 C-41.8861,737.068 -42.4979,737.192 -43.1824,737.192 C-43.8668,737.192 -44.4787,737.068 -45.0179,736.819 C-45.5572,736.57 -46.0187,736.238 -46.4024,735.824 C-46.7861,735.409 -47.0765,734.932 -47.2735,734.392 C-47.4705,733.853 -47.5691,733.293 -47.5691,732.712 C-47.5691,732.132 -47.4705,731.572 -47.2735,731.032 C-47.0765,730.493 -46.7861,730.016 -46.4024,729.601 C-46.0187,729.186 -45.5572,728.855 -45.0179,728.606 C-44.4787,728.357 -43.8668,728.232 -43.1824,728.232 C-42.4979,728.232 -41.8861,728.357 -41.3468,728.606 C-40.8076,728.855 -40.3461,729.186 -39.9624,729.601 C-39.5787,730.016 -39.2883,730.493 -39.0913,731.032 C-38.8942,731.572 -38.7957,732.132 -38.7957,732.712 Z " fill="#000000" fill-opacity="0.23" />			<path d="M-27.2223,740.304 L-27.9379,742.077 C-28.1038,742.471 -28.2594,742.808 -28.4045,743.088 C-28.5497,743.368 -28.7312,743.596 -28.949,743.772 C-29.1668,743.949 -29.4312,744.078 -29.7423,744.161 C-30.0534,744.244 -30.4371,744.286 -30.8934,744.286 C-31.2253,744.286 -31.552,744.249 -31.8735,744.177 C-32.1949,744.104 -32.5009,744.016 -32.7912,743.912 L-33.2579,747.272 C-32.3246,747.521 -31.3705,747.646 -30.3957,747.646 C-29.566,747.646 -28.8557,747.558 -28.2645,747.381 C-27.6734,747.205 -27.1601,746.935 -26.7245,746.572 C-26.289,746.209 -25.9105,745.764 -25.589,745.235 C-25.2675,744.706 -24.9719,744.089 -24.7023,743.384 L-17.6401,725.246 L-21.529,725.246 L-25.2623,735.606 L-25.3245,735.606 L-29.4934,725.246 L-33.6001,725.246 L-27.2223,740.304 Z " fill="#000000" fill-opacity="0.23" />			<path d="M-5.78669,740.179 L-2.05334,740.179 L-2.05334,721.886 L-1.99112,721.886 L4.6978,740.179 L7.43558,740.179 L14.1245,721.886 L14.1867,721.886 L14.1867,740.179 L17.9201,740.179 L17.9201,718.152 L12.0089,718.152 L6.06669,733.584 L0.186667,718.152 L-5.78669,718.152 L-5.78669,740.179 Z " fill="#000000" fill-opacity="0.23" />			<path d="M22.649,740.179 L26.3823,740.179 L26.3823,725.246 L22.649,725.246 L22.649,740.179 Z M22.1201,720.175 C22.1201,720.776 22.343,721.3 22.789,721.746 C23.2349,722.192 23.8001,722.415 24.4845,722.415 C25.169,722.415 25.7445,722.202 26.2112,721.777 C26.6779,721.352 26.9112,720.818 26.9112,720.175 C26.9112,719.532 26.6779,718.998 26.2112,718.572 C25.7445,718.147 25.169,717.935 24.4845,717.935 C23.8001,717.935 23.2349,718.158 22.789,718.603 C22.343,719.049 22.1201,719.573 22.1201,720.175 Z " fill="#000000" fill-opacity="0.23" />			<path d="M43.4624,727.143 C42.7365,726.355 41.8913,725.78 40.9268,725.417 C39.9624,725.054 39.0031,724.872 38.049,724.872 C36.929,724.872 35.8712,725.059 34.8757,725.432 C33.8801,725.806 33.0194,726.335 32.2935,727.019 C31.5675,727.703 30.992,728.528 30.5668,729.492 C30.1416,730.457 29.929,731.53 29.929,732.712 C29.929,733.895 30.1416,734.968 30.5668,735.932 C30.992,736.897 31.5675,737.721 32.2935,738.406 C33.0194,739.09 33.8801,739.619 34.8757,739.992 C35.8712,740.366 36.929,740.552 38.049,740.552 C38.3809,740.552 38.775,740.516 39.2313,740.444 C39.6876,740.371 40.1646,740.252 40.6624,740.086 C41.1602,739.92 41.6527,739.702 42.1402,739.432 C42.6276,739.163 43.0579,738.841 43.4313,738.468 L40.9424,735.792 C40.5898,736.249 40.1646,736.596 39.6668,736.835 C39.169,737.073 38.6298,737.192 38.049,737.192 C37.3646,737.192 36.7527,737.068 36.2135,736.819 C35.6742,736.57 35.2127,736.238 34.829,735.824 C34.4453,735.409 34.1549,734.932 33.9579,734.392 C33.7609,733.853 33.6623,733.293 33.6623,732.712 C33.6623,732.132 33.7609,731.572 33.9579,731.032 C34.1549,730.493 34.4453,730.016 34.829,729.601 C35.2127,729.186 35.6742,728.855 36.2135,728.606 C36.7527,728.357 37.3646,728.232 38.049,728.232 C38.5468,728.232 39.0342,728.367 39.5113,728.637 C39.9883,728.906 40.4446,729.269 40.8802,729.726 L43.4624,727.143 Z " fill="#000000" fill-opacity="0.23" />			<path d="M55.0046,740.179 L58.3647,740.179 L58.3647,731.592 C58.3647,731.24 58.3543,730.83 58.3335,730.363 C58.3128,729.897 58.2454,729.415 58.1313,728.917 C58.0173,728.419 57.8306,727.926 57.5713,727.439 C57.3121,726.952 56.9439,726.521 56.4669,726.148 C55.9898,725.775 55.3884,725.469 54.6624,725.23 C53.9365,724.992 53.0446,724.872 51.9869,724.872 C50.8046,724.872 49.6587,725.059 48.5491,725.432 C47.4394,725.806 46.4698,726.418 45.6402,727.268 L47.6002,729.228 C48.098,728.751 48.6891,728.372 49.3735,728.092 C50.058,727.812 50.7943,727.672 51.5824,727.672 C52.578,727.672 53.3972,727.906 54.0402,728.372 C54.6832,728.839 55.0046,729.539 55.0046,730.472 L55.0046,730.877 L54.0713,730.877 C53.4491,730.877 52.7854,730.892 52.0802,730.923 C51.375,730.955 50.675,731.027 49.9802,731.141 C49.2854,731.255 48.6165,731.426 47.9735,731.655 C47.3305,731.883 46.7654,732.189 46.2779,732.572 C45.7905,732.956 45.4016,733.433 45.1113,734.004 C44.8209,734.574 44.6757,735.264 44.6757,736.072 C44.6757,736.819 44.8313,737.472 45.1424,738.032 C45.4535,738.592 45.8631,739.059 46.3713,739.432 C46.8794,739.806 47.4602,740.086 48.1135,740.272 C48.7668,740.459 49.4357,740.552 50.1202,740.552 C51.1157,740.552 52.0283,740.361 52.858,739.977 C53.6876,739.593 54.3721,738.976 54.9113,738.126 L55.0046,738.126 L55.0046,740.179 Z M54.7869,734.33 C54.7869,735.388 54.4809,736.223 53.8691,736.835 C53.2572,737.446 52.3083,737.752 51.0224,737.752 C50.7113,737.752 50.4002,737.716 50.0891,737.644 C49.778,737.571 49.498,737.452 49.2491,737.286 C49.0002,737.12 48.798,736.918 48.6424,736.679 C48.4868,736.441 48.4091,736.145 48.4091,735.792 C48.4091,735.253 48.6061,734.833 49.0002,734.532 C49.3943,734.232 49.8765,734.004 50.4469,733.848 C51.0172,733.692 51.6239,733.594 52.2669,733.552 C52.9098,733.511 53.4906,733.49 54.0091,733.49 L54.7869,733.49 L54.7869,734.33 Z " fill="#000000" fill-opacity="0.23" />			<path d="M66.1114,716.659 L62.378,716.659 L62.378,740.179 L66.1114,740.179 L66.1114,732.028 C66.1114,731.53 66.1736,731.053 66.298,730.597 C66.4225,730.141 66.6247,729.736 66.9047,729.383 C67.1847,729.031 67.5373,728.751 67.9625,728.543 C68.3877,728.336 68.9114,728.232 69.5336,728.232 C70.1766,728.232 70.6847,728.383 71.058,728.683 C71.4314,728.984 71.7062,729.358 71.8825,729.803 C72.0588,730.249 72.1677,730.726 72.2092,731.235 C72.2506,731.743 72.2714,732.204 72.2714,732.619 L72.2714,740.179 L76.0047,740.179 L76.0047,730.752 C76.0047,729.985 75.9114,729.249 75.7247,728.543 C75.5381,727.838 75.2269,727.216 74.7914,726.677 C74.3558,726.138 73.7906,725.702 73.0958,725.37 C72.401,725.038 71.5558,724.872 70.5603,724.872 C69.3988,724.872 68.4499,725.126 67.7136,725.635 C66.9773,726.143 66.4639,726.708 66.1736,727.33 L66.1114,727.33 L66.1114,716.659 Z " fill="#000000" fill-opacity="0.23" />			<path d="M89.787,740.179 L103.071,740.179 L103.071,736.632 L93.707,736.632 L93.707,718.152 L89.787,718.152 L89.787,740.179 Z " fill="#000000" fill-opacity="0.23" />			<path d="M105.654,740.179 L109.387,740.179 L109.387,725.246 L105.654,725.246 L105.654,740.179 Z M105.125,720.175 C105.125,720.776 105.348,721.3 105.794,721.746 C106.24,722.192 106.805,722.415 107.489,722.415 C108.174,722.415 108.749,722.202 109.216,721.777 C109.683,721.352 109.916,720.818 109.916,720.175 C109.916,719.532 109.683,718.998 109.216,718.572 C108.749,718.147 108.174,717.935 107.489,717.935 C106.805,717.935 106.24,718.158 105.794,718.603 C105.348,719.049 105.125,719.573 105.125,720.175 Z " fill="#000000" fill-opacity="0.23" />			<path d="M113.68,740.179 L117.414,740.179 L117.414,732.028 C117.414,731.53 117.476,731.053 117.6,730.597 C117.725,730.141 117.927,729.736 118.207,729.383 C118.487,729.031 118.84,728.751 119.265,728.543 C119.69,728.336 120.214,728.232 120.836,728.232 C121.479,728.232 121.987,728.383 122.36,728.683 C122.734,728.984 123.009,729.358 123.185,729.803 C123.361,730.249 123.47,730.726 123.512,731.235 C123.553,731.743 123.574,732.204 123.574,732.619 L123.574,740.179 L127.307,740.179 L127.307,730.752 C127.307,729.985 127.214,729.249 127.027,728.543 C126.84,727.838 126.529,727.216 126.094,726.677 C125.658,726.138 125.093,725.702 124.398,725.37 C123.703,725.038 122.858,724.872 121.863,724.872 C120.618,724.872 119.633,725.147 118.907,725.697 C118.181,726.246 117.642,726.895 117.289,727.641 L117.227,727.641 L117.227,725.246 L113.68,725.246 L113.68,740.179 Z " fill="#000000" fill-opacity="0.23" />			<path d="M143.361,740.179 L146.907,740.179 L146.907,716.659 L143.174,716.659 L143.174,727.143 L143.081,727.143 C142.894,726.895 142.655,726.641 142.365,726.381 C142.075,726.122 141.722,725.878 141.307,725.65 C140.892,725.422 140.415,725.235 139.876,725.09 C139.337,724.945 138.715,724.872 138.009,724.872 C136.952,724.872 135.977,725.075 135.085,725.479 C134.193,725.883 133.431,726.438 132.798,727.143 C132.166,727.849 131.673,728.678 131.32,729.632 C130.968,730.586 130.792,731.613 130.792,732.712 C130.792,733.812 130.958,734.838 131.289,735.792 C131.621,736.746 132.109,737.576 132.752,738.281 C133.395,738.986 134.167,739.541 135.069,739.946 C135.972,740.35 137.003,740.552 138.165,740.552 C139.223,740.552 140.208,740.345 141.121,739.93 C142.033,739.515 142.759,738.852 143.298,737.939 L143.361,737.939 L143.361,740.179 Z M134.525,732.712 C134.525,732.132 134.623,731.572 134.82,731.032 C135.018,730.493 135.308,730.016 135.692,729.601 C136.075,729.186 136.537,728.855 137.076,728.606 C137.615,728.357 138.227,728.232 138.912,728.232 C139.596,728.232 140.208,728.357 140.747,728.606 C141.286,728.855 141.748,729.186 142.132,729.601 C142.515,730.016 142.806,730.493 143.003,731.032 C143.2,731.572 143.298,732.132 143.298,732.712 C143.298,733.293 143.2,733.853 143.003,734.392 C142.806,734.932 142.515,735.409 142.132,735.824 C141.748,736.238 141.286,736.57 140.747,736.819 C140.208,737.068 139.596,737.192 138.912,737.192 C138.227,737.192 137.615,737.068 137.076,736.819 C136.537,736.57 136.075,736.238 135.692,735.824 C135.308,735.409 135.018,734.932 134.82,734.392 C134.623,733.853 134.525,733.293 134.525,732.712 Z " fill="#000000" fill-opacity="0.23" />			<path d="M151.201,740.179 L154.934,740.179 L154.934,716.659 L151.201,716.659 L151.201,740.179 Z " fill="#000000" fill-opacity="0.23" />			<path d="M173.601,734.019 L173.601,732.992 C173.601,731.686 173.43,730.529 173.087,729.523 C172.745,728.518 172.268,727.672 171.656,726.988 C171.044,726.303 170.308,725.78 169.447,725.417 C168.587,725.054 167.638,724.872 166.601,724.872 C165.481,724.872 164.423,725.059 163.427,725.432 C162.432,725.806 161.571,726.335 160.845,727.019 C160.119,727.703 159.544,728.528 159.118,729.492 C158.693,730.457 158.481,731.53 158.481,732.712 C158.481,733.895 158.693,734.968 159.118,735.932 C159.544,736.897 160.119,737.721 160.845,738.406 C161.571,739.09 162.432,739.619 163.427,739.992 C164.423,740.366 165.481,740.552 166.601,740.552 C167.783,740.552 168.913,740.324 169.992,739.868 C171.07,739.412 172.045,738.644 172.916,737.566 L170.241,735.544 C169.764,736.124 169.209,736.606 168.576,736.99 C167.944,737.374 167.161,737.566 166.227,737.566 C165.169,737.566 164.267,737.255 163.521,736.632 C162.774,736.01 162.338,735.139 162.214,734.019 L173.601,734.019 Z M162.214,731.219 C162.359,730.141 162.758,729.28 163.412,728.637 C164.065,727.994 164.952,727.672 166.072,727.672 C167.254,727.672 168.177,727.989 168.841,728.621 C169.504,729.254 169.847,730.12 169.867,731.219 L162.214,731.219 Z " fill="#000000" fill-opacity="0.23" />			<path d="M181.441,740.304 L180.725,742.077 C180.559,742.471 180.404,742.808 180.258,743.088 C180.113,743.368 179.932,743.596 179.714,743.772 C179.496,743.949 179.232,744.078 178.921,744.161 C178.61,744.244 178.226,744.286 177.77,744.286 C177.438,744.286 177.111,744.249 176.79,744.177 C176.468,744.104 176.162,744.016 175.872,743.912 L175.405,747.272 C176.338,747.521 177.293,747.646 178.267,747.646 C179.097,747.646 179.807,747.558 180.398,747.381 C180.99,747.205 181.503,746.935 181.938,746.572 C182.374,746.209 182.753,745.764 183.074,745.235 C183.395,744.706 183.691,744.089 183.961,743.384 L191.023,725.246 L187.134,725.246 L183.401,735.606 L183.338,735.606 L179.17,725.246 L175.063,725.246 L181.441,740.304 Z " fill="#000000" fill-opacity="0.23" />			<path d="M-392.046,94.5993 L-392.046,99.9254 L-396.05,99.9254 L-396.05,102.832 L-392.046,102.832 L-392.046,116.473 C-392.046,118.343 -391.619,119.786 -390.765,120.803 C-389.911,121.819 -388.644,122.328 -386.963,122.328 C-386.028,122.328 -385.066,122.192 -384.077,121.921 L-384.077,118.872 C-384.836,119.034 -385.432,119.116 -385.866,119.116 C-386.747,119.116 -387.37,118.895 -387.736,118.455 C-388.102,118.015 -388.285,117.354 -388.285,116.473 L-388.285,102.832 L-384.178,102.832 L-384.178,99.9254 L-388.285,99.9254 L-388.285,94.5993 L-392.046,94.5993 Z " fill="#168bd8" fill-opacity="1.00" />			<path d="M-376.027,90.6962 L-379.787,90.6962 L-379.787,121.921 L-376.027,121.921 L-376.027,106.248 C-375.512,105.191 -374.793,104.337 -373.872,103.686 C-372.95,103.036 -371.88,102.71 -370.66,102.71 C-369.156,102.71 -368.048,103.09 -367.336,103.849 C-366.625,104.608 -366.262,105.78 -366.249,107.366 L-366.249,121.921 L-362.488,121.921 L-362.488,107.386 C-362.528,102.141 -364.873,99.5188 -369.521,99.5188 C-372.191,99.5188 -374.36,100.542 -376.027,102.588 L-376.027,90.6962 Z " fill="#168bd8" fill-opacity="1.00" />			<path d="M-347.729,122.328 C-344.043,122.328 -341.278,120.911 -339.435,118.079 L-341.732,116.29 C-342.423,117.184 -343.23,117.903 -344.151,118.445 C-345.073,118.987 -346.198,119.258 -347.526,119.258 C-349.396,119.258 -350.938,118.59 -352.151,117.256 C-353.364,115.921 -353.997,114.169 -354.051,112.001 L-339.15,112.001 L-339.15,110.435 C-339.15,106.925 -339.943,104.228 -341.529,102.345 C-343.115,100.461 -345.337,99.5188 -348.197,99.5188 C-349.945,99.5188 -351.568,100.003 -353.065,100.972 C-354.563,101.941 -355.729,103.283 -356.562,104.997 C-357.395,106.712 -357.812,108.66 -357.812,110.842 L-357.812,111.533 C-357.812,114.813 -356.877,117.432 -355.007,119.39 C-353.137,121.348 -350.711,122.328 -347.729,122.328 Z M-348.197,102.609 C-346.625,102.609 -345.378,103.134 -344.456,104.184 C-343.535,105.235 -343.02,106.715 -342.911,108.626 L-342.911,108.911 L-353.929,108.911 C-353.685,106.918 -353.049,105.37 -352.019,104.266 C-350.989,103.161 -349.715,102.609 -348.197,102.609 Z " fill="#168bd8" fill-opacity="1.00" />			<path d="M-315.671,119.258 C-317.609,119.258 -319.1,118.574 -320.143,117.205 C-321.187,115.836 -321.709,113.884 -321.709,111.35 L-321.709,110.639 C-321.709,108.037 -321.183,106.048 -320.133,104.672 C-319.083,103.297 -317.602,102.609 -315.691,102.609 C-314.268,102.609 -313.072,103.066 -312.103,103.981 C-311.134,104.896 -310.596,106.065 -310.487,107.488 L-306.93,107.488 C-307.038,105.13 -307.909,103.212 -309.542,101.735 C-311.175,100.257 -313.225,99.5188 -315.691,99.5188 C-317.697,99.5188 -319.435,99.9796 -320.906,100.901 C-322.376,101.823 -323.504,103.117 -324.29,104.784 C-325.076,106.451 -325.469,108.355 -325.469,110.496 L-325.469,111.126 C-325.469,114.596 -324.585,117.33 -322.816,119.329 C-321.048,121.328 -318.666,122.328 -315.671,122.328 C-314.18,122.328 -312.767,121.989 -311.432,121.311 C-310.097,120.634 -309.03,119.726 -308.231,118.587 C-307.431,117.449 -306.997,116.249 -306.93,114.989 L-310.487,114.989 C-310.596,116.209 -311.151,117.225 -312.154,118.038 C-313.157,118.851 -314.329,119.258 -315.671,119.258 Z " fill="#168bd8" fill-opacity="1.00" />			<path d="M-303.697,110.984 C-303.697,114.399 -302.772,117.144 -300.922,119.217 C-299.073,121.291 -296.657,122.328 -293.675,122.328 C-291.697,122.328 -289.945,121.853 -288.42,120.905 C-286.896,119.956 -285.723,118.631 -284.903,116.93 C-284.084,115.229 -283.674,113.308 -283.674,111.167 L-283.674,110.903 C-283.674,107.461 -284.599,104.703 -286.448,102.629 C-288.298,100.556 -290.721,99.5188 -293.716,99.5188 C-295.654,99.5188 -297.379,99.9864 -298.89,100.922 C-300.401,101.857 -301.58,103.185 -302.427,104.906 C-303.274,106.627 -303.697,108.565 -303.697,110.72 L-303.697,110.984 Z M-299.916,111.167 C-299.916,108.416 -299.347,106.302 -298.209,104.825 C-297.07,103.347 -295.573,102.609 -293.716,102.609 C-291.819,102.609 -290.297,103.358 -289.152,104.855 C-288.007,106.353 -287.434,108.308 -287.434,110.72 C-287.434,113.417 -287.997,115.514 -289.122,117.012 C-290.247,118.509 -291.764,119.258 -293.675,119.258 C-295.573,119.258 -297.087,118.519 -298.219,117.042 C-299.35,115.565 -299.916,113.607 -299.916,111.167 Z " fill="#168bd8" fill-opacity="1.00" />			<path d="M-278.978,99.9254 L-278.978,121.921 L-275.217,121.921 L-275.217,105.861 C-274.309,103.761 -272.622,102.71 -270.155,102.71 C-267.024,102.71 -265.459,104.31 -265.459,107.508 L-265.459,121.921 L-261.678,121.921 L-261.678,107.325 C-261.529,105.916 -260.994,104.794 -260.072,103.961 C-259.15,103.127 -257.992,102.71 -256.596,102.71 C-254.902,102.71 -253.696,103.1 -252.977,103.879 C-252.259,104.659 -251.9,105.834 -251.9,107.406 L-251.9,121.921 L-248.139,121.921 L-248.139,107.183 C-248.22,102.073 -250.673,99.5188 -255.498,99.5188 C-257.097,99.5188 -258.483,99.8441 -259.655,100.495 C-260.828,101.145 -261.78,101.999 -262.511,103.056 C-263.623,100.698 -265.717,99.5188 -268.793,99.5188 C-271.531,99.5188 -273.706,100.467 -275.319,102.365 L-275.42,99.9254 L-278.978,99.9254 Z " fill="#168bd8" fill-opacity="1.00" />			<path d="M-242.488,99.9254 L-242.488,121.921 L-238.727,121.921 L-238.727,105.861 C-237.819,103.761 -236.132,102.71 -233.665,102.71 C-230.535,102.71 -228.969,104.31 -228.969,107.508 L-228.969,121.921 L-225.188,121.921 L-225.188,107.325 C-225.039,105.916 -224.504,104.794 -223.582,103.961 C-222.661,103.127 -221.502,102.71 -220.106,102.71 C-218.412,102.71 -217.206,103.1 -216.487,103.879 C-215.769,104.659 -215.41,105.834 -215.41,107.406 L-215.41,121.921 L-211.649,121.921 L-211.649,107.183 C-211.731,102.073 -214.184,99.5188 -219.008,99.5188 C-220.607,99.5188 -221.993,99.8441 -223.165,100.495 C-224.338,101.145 -225.29,101.999 -226.022,103.056 C-227.133,100.698 -229.227,99.5188 -232.303,99.5188 C-235.041,99.5188 -237.216,100.467 -238.829,102.365 L-238.93,99.9254 L-242.488,99.9254 Z " fill="#168bd8" fill-opacity="1.00" />			<path d="M-192.317,121.921 L-188.739,121.921 L-188.739,99.9254 L-192.5,99.9254 L-192.5,115.924 C-193.448,118.065 -195.359,119.136 -198.232,119.136 C-200.943,119.136 -202.298,117.469 -202.298,114.135 L-202.298,99.9254 L-206.059,99.9254 L-206.059,114.237 C-206.045,116.907 -205.425,118.923 -204.199,120.285 C-202.972,121.647 -201.187,122.328 -198.842,122.328 C-196.01,122.328 -193.862,121.467 -192.398,119.746 L-192.317,121.921 Z " fill="#168bd8" fill-opacity="1.00" />			<path d="M-183.026,99.9254 L-183.026,121.921 L-179.266,121.921 L-179.266,106.248 C-178.751,105.191 -178.032,104.337 -177.111,103.686 C-176.189,103.036 -175.119,102.71 -173.899,102.71 C-172.395,102.71 -171.287,103.09 -170.575,103.849 C-169.864,104.608 -169.501,105.78 -169.488,107.366 L-169.488,121.921 L-165.727,121.921 L-165.727,107.386 C-165.767,102.141 -168.112,99.5188 -172.76,99.5188 C-175.471,99.5188 -177.666,100.576 -179.347,102.69 L-179.469,99.9254 L-183.026,99.9254 Z " fill="#168bd8" fill-opacity="1.00" />			<path d="M-155.969,99.9254 L-159.73,99.9254 L-159.73,121.921 L-155.969,121.921 L-155.969,99.9254 Z M-160.035,94.0911 C-160.035,94.7009 -159.848,95.2092 -159.476,95.6157 C-159.103,96.0223 -158.551,96.2256 -157.819,96.2256 C-157.087,96.2256 -156.531,96.0223 -156.152,95.6157 C-155.773,95.2092 -155.583,94.7009 -155.583,94.0911 C-155.583,93.4812 -155.773,92.9662 -156.152,92.5461 C-156.531,92.126 -157.087,91.9159 -157.819,91.9159 C-158.551,91.9159 -159.103,92.126 -159.476,92.5461 C-159.848,92.9662 -160.035,93.4812 -160.035,94.0911 Z " fill="#168bd8" fill-opacity="1.00" />			<path d="M-148.61,94.5993 L-148.61,99.9254 L-152.615,99.9254 L-152.615,102.832 L-148.61,102.832 L-148.61,116.473 C-148.61,118.343 -148.183,119.786 -147.329,120.803 C-146.476,121.819 -145.208,122.328 -143.528,122.328 C-142.593,122.328 -141.631,122.192 -140.641,121.921 L-140.641,118.872 C-141.4,119.034 -141.996,119.116 -142.43,119.116 C-143.311,119.116 -143.934,118.895 -144.3,118.455 C-144.666,118.015 -144.849,117.354 -144.849,116.473 L-144.849,102.832 L-140.743,102.832 L-140.743,99.9254 L-144.849,99.9254 L-144.849,94.5993 L-148.61,94.5993 Z " fill="#168bd8" fill-opacity="1.00" />			<path d="M-134.644,99.9254 L-138.751,99.9254 L-130.904,121.677 L-131.737,123.913 C-132.198,125.282 -132.784,126.224 -133.496,126.739 C-134.207,127.254 -135.2,127.511 -136.474,127.511 L-137.49,127.43 L-137.49,130.479 L-136.088,130.744 L-135.376,130.805 C-132.395,130.805 -130.219,128.975 -128.851,125.316 L-120.008,99.9254 L-124.033,99.9254 L-129.156,116.412 L-134.644,99.9254 Z " fill="#168bd8" fill-opacity="1.00" />			<path d="M-107.241,110.74 C-107.241,114.318 -106.445,117.144 -104.853,119.217 C-103.26,121.291 -101.177,122.328 -98.6016,122.328 C-95.9995,122.328 -93.9463,121.46 -92.442,119.726 L-92.442,121.616 C-92.442,123.486 -92.9536,124.936 -93.9768,125.966 C-95,126.996 -96.4264,127.511 -98.256,127.511 C-100.587,127.511 -102.559,126.515 -104.172,124.523 L-106.123,126.78 C-105.324,127.959 -104.165,128.887 -102.647,129.565 C-101.129,130.242 -99.5773,130.581 -97.9917,130.581 C-95.1457,130.581 -92.8791,129.761 -91.1918,128.121 C-89.5045,126.481 -88.6609,124.238 -88.6609,121.392 L-88.6609,99.9254 L-92.0964,99.9254 L-92.2794,102.365 C-93.7837,100.467 -95.8775,99.5188 -98.5609,99.5188 C-101.177,99.5188 -103.277,100.532 -104.863,102.558 C-106.448,104.584 -107.241,107.311 -107.241,110.74 Z M-103.46,111.167 C-103.46,108.375 -102.945,106.268 -101.915,104.845 C-100.885,103.422 -99.4554,102.71 -97.6258,102.71 C-95.3219,102.71 -93.5939,103.761 -92.442,105.861 L-92.442,115.904 C-93.5533,118.059 -95.2948,119.136 -97.6665,119.136 C-99.496,119.136 -100.919,118.428 -101.935,117.012 C-102.952,115.595 -103.46,113.647 -103.46,111.167 Z " fill="#168bd8" fill-opacity="1.00" />			<path d="M-72.3573,99.8034 C-72.7368,99.6137 -73.2924,99.5188 -74.0242,99.5188 C-76.2875,99.5188 -78.0358,100.501 -79.269,102.466 L-79.33,99.9254 L-82.9892,99.9254 L-82.9892,121.921 L-79.2284,121.921 L-79.2284,106.309 C-78.3475,104.208 -76.6737,103.158 -74.2072,103.158 C-73.5431,103.158 -72.9265,103.205 -72.3573,103.3 L-72.3573,99.8034 Z " fill="#168bd8" fill-opacity="1.00" />			<path d="M-69.8975,110.984 C-69.8975,114.399 -68.9726,117.144 -67.1227,119.217 C-65.2728,121.291 -62.857,122.328 -59.8755,122.328 C-57.8968,122.328 -56.1452,121.853 -54.6205,120.905 C-53.0959,119.956 -51.9236,118.631 -51.1037,116.93 C-50.2838,115.229 -49.8738,113.308 -49.8738,111.167 L-49.8738,110.903 C-49.8738,107.461 -50.7988,104.703 -52.6487,102.629 C-54.4986,100.556 -56.9211,99.5188 -59.9162,99.5188 C-61.8541,99.5188 -63.5787,99.9864 -65.0898,100.922 C-66.6009,101.857 -67.78,103.185 -68.627,104.906 C-69.474,106.627 -69.8975,108.565 -69.8975,110.72 L-69.8975,110.984 Z M-66.1164,111.167 C-66.1164,108.416 -65.5472,106.302 -64.4088,104.825 C-63.2704,103.347 -61.7728,102.609 -59.9162,102.609 C-58.0188,102.609 -56.4975,103.358 -55.3524,104.855 C-54.2072,106.353 -53.6346,108.308 -53.6346,110.72 C-53.6346,113.417 -54.197,115.514 -55.3219,117.012 C-56.4467,118.509 -57.9646,119.258 -59.8755,119.258 C-61.7728,119.258 -63.2873,118.519 -64.4189,117.042 C-65.5506,115.565 -66.1164,113.607 -66.1164,111.167 Z " fill="#168bd8" fill-opacity="1.00" />			<path d="M-31.4967,121.921 L-27.9189,121.921 L-27.9189,99.9254 L-31.6797,99.9254 L-31.6797,115.924 C-32.6283,118.065 -34.5392,119.136 -37.4123,119.136 C-40.1228,119.136 -41.4781,117.469 -41.4781,114.135 L-41.4781,99.9254 L-45.2389,99.9254 L-45.2389,114.237 C-45.2253,116.907 -44.6053,118.923 -43.3788,120.285 C-42.1523,121.647 -40.3668,122.328 -38.0222,122.328 C-35.1897,122.328 -33.0417,121.467 -31.578,119.746 L-31.4967,121.921 Z " fill="#168bd8" fill-opacity="1.00" />			<path d="M-3.62612,110.822 C-3.62612,107.271 -4.39522,104.499 -5.93342,102.507 C-7.47162,100.515 -9.56208,99.5188 -12.2048,99.5188 C-14.9288,99.5188 -17.0566,100.467 -18.588,102.365 L-18.771,99.9254 L-22.2065,99.9254 L-22.2065,130.378 L-18.4457,130.378 L-18.4457,119.786 C-16.9143,121.481 -14.8137,122.328 -12.1438,122.328 C-9.5282,122.328 -7.45468,121.304 -5.92326,119.258 C-4.39183,117.212 -3.62612,114.515 -3.62612,111.167 L-3.62612,110.822 Z M-7.38692,110.74 C-7.38692,113.559 -7.91885,115.683 -8.98272,117.113 C-10.0466,118.543 -11.4798,119.258 -13.2822,119.258 C-15.5997,119.258 -17.3209,118.255 -18.4457,116.249 L-18.4457,105.739 C-17.3073,103.72 -15.5997,102.71 -13.3229,102.71 C-11.4798,102.71 -10.0296,103.429 -8.97255,104.865 C-7.91546,106.302 -7.38692,108.26 -7.38692,110.74 Z " fill="#168bd8" fill-opacity="1.00" />			<path d="M11.4374,99.9254 L11.4374,121.921 L15.1982,121.921 L15.1982,105.861 C16.1062,103.761 17.7935,102.71 20.26,102.71 C23.3907,102.71 24.956,104.31 24.956,107.508 L24.956,121.921 L28.7371,121.921 L28.7371,107.325 C28.8862,105.916 29.4215,104.794 30.3431,103.961 C31.2646,103.127 32.4234,102.71 33.8193,102.71 C35.5133,102.71 36.7195,103.1 37.4378,103.879 C38.156,104.659 38.5152,105.834 38.5152,107.406 L38.5152,121.921 L42.276,121.921 L42.276,107.183 C42.1947,102.073 39.7417,99.5188 34.917,99.5188 C33.3178,99.5188 31.9321,99.8441 30.7598,100.495 C29.5875,101.145 28.6354,101.999 27.9036,103.056 C26.7923,100.698 24.6985,99.5188 21.6221,99.5188 C18.8845,99.5188 16.7093,100.467 15.0966,102.365 L14.9949,99.9254 L11.4374,99.9254 Z " fill="#168bd8" fill-opacity="1.00" />			<path d="M65.471,121.921 L65.471,121.596 C64.956,120.403 64.6985,118.797 64.6985,116.778 L64.6985,106.654 C64.6443,104.432 63.8989,102.687 62.4623,101.42 C61.0258,100.152 59.0403,99.5188 56.506,99.5188 C54.9068,99.5188 53.4398,99.817 52.1049,100.413 C50.77,101.01 49.7129,101.819 48.9336,102.843 C48.1543,103.866 47.7647,104.926 47.7647,106.024 L51.5458,106.024 C51.5458,105.062 51.9998,104.242 52.9079,103.564 C53.8159,102.887 54.9407,102.548 56.2824,102.548 C57.8138,102.548 58.9726,102.937 59.7586,103.717 C60.5447,104.496 60.9377,105.543 60.9377,106.857 L60.9377,108.585 L57.2785,108.585 C54.1208,108.585 51.6712,109.219 49.9297,110.486 C48.1882,111.753 47.3175,113.532 47.3175,115.822 C47.3175,117.706 48.012,119.261 49.4012,120.488 C50.7903,121.714 52.569,122.328 54.7374,122.328 C57.1633,122.328 59.2504,121.42 60.9987,119.604 C61.1342,120.715 61.3104,121.487 61.5272,121.921 L65.471,121.921 Z M55.2863,119.055 C54.053,119.055 53.0434,118.723 52.2573,118.059 C51.4713,117.394 51.0783,116.473 51.0783,115.294 C51.0783,112.597 53.3822,111.248 57.99,111.248 L60.9377,111.248 L60.9377,115.761 C60.4633,116.737 59.6976,117.53 58.6405,118.14 C57.5834,118.75 56.4654,119.055 55.2863,119.055 Z " fill="#168bd8" fill-opacity="1.00" />			<path d="M70.5938,99.9254 L70.5938,121.921 L74.3546,121.921 L74.3546,106.248 C74.8696,105.191 75.5879,104.337 76.5094,103.686 C77.431,103.036 78.5016,102.71 79.7213,102.71 C81.2257,102.71 82.3336,103.09 83.0451,103.849 C83.7566,104.608 84.1191,105.78 84.1327,107.366 L84.1327,121.921 L87.8935,121.921 L87.8935,107.386 C87.8528,102.141 85.5082,99.5188 80.8598,99.5188 C78.1493,99.5188 75.9538,100.576 74.2733,102.69 L74.1513,99.9254 L70.5938,99.9254 Z " fill="#168bd8" fill-opacity="1.00" />			<path d="M111.088,121.921 L111.088,121.596 C110.573,120.403 110.316,118.797 110.316,116.778 L110.316,106.654 C110.262,104.432 109.516,102.687 108.08,101.42 C106.643,100.152 104.658,99.5188 102.124,99.5188 C100.524,99.5188 99.0573,99.817 97.7224,100.413 C96.3875,101.01 95.3304,101.819 94.5511,102.843 C93.7718,103.866 93.3822,104.926 93.3822,106.024 L97.1633,106.024 C97.1633,105.062 97.6173,104.242 98.5253,103.564 C99.4334,102.887 100.558,102.548 101.9,102.548 C103.431,102.548 104.59,102.937 105.376,103.717 C106.162,104.496 106.555,105.543 106.555,106.857 L106.555,108.585 L102.896,108.585 C99.7383,108.585 97.2887,109.219 95.5472,110.486 C93.8057,111.753 92.935,113.532 92.935,115.822 C92.935,117.706 93.6295,119.261 95.0187,120.488 C96.4078,121.714 98.1865,122.328 100.355,122.328 C102.781,122.328 104.868,121.42 106.616,119.604 C106.752,120.715 106.928,121.487 107.145,121.921 L111.088,121.921 Z M100.904,119.055 C99.6705,119.055 98.6609,118.723 97.8748,118.059 C97.0888,117.394 96.6958,116.473 96.6958,115.294 C96.6958,112.597 98.9997,111.248 103.608,111.248 L106.555,111.248 L106.555,115.761 C106.081,116.737 105.315,117.53 104.258,118.14 C103.201,118.75 102.083,119.055 100.904,119.055 Z " fill="#168bd8" fill-opacity="1.00" />			<path d="M115.317,110.74 C115.317,114.318 116.113,117.144 117.705,119.217 C119.298,121.291 121.382,122.328 123.956,122.328 C126.559,122.328 128.612,121.46 130.116,119.726 L130.116,121.616 C130.116,123.486 129.604,124.936 128.581,125.966 C127.558,126.996 126.132,127.511 124.302,127.511 C121.971,127.511 119.999,126.515 118.386,124.523 L116.435,126.78 C117.234,127.959 118.393,128.887 119.911,129.565 C121.429,130.242 122.981,130.581 124.566,130.581 C127.412,130.581 129.679,129.761 131.366,128.121 C133.054,126.481 133.897,124.238 133.897,121.392 L133.897,99.9254 L130.462,99.9254 L130.279,102.365 C128.774,100.467 126.681,99.5188 123.997,99.5188 C121.382,99.5188 119.281,100.532 117.695,102.558 C116.11,104.584 115.317,107.311 115.317,110.74 Z M119.098,111.167 C119.098,108.375 119.613,106.268 120.643,104.845 C121.673,103.422 123.103,102.71 124.932,102.71 C127.236,102.71 128.964,103.761 130.116,105.861 L130.116,115.904 C129.005,118.059 127.263,119.136 124.892,119.136 C123.062,119.136 121.639,118.428 120.623,117.012 C119.606,115.595 119.098,113.647 119.098,111.167 Z " fill="#168bd8" fill-opacity="1.00" />			<path d="M148.696,122.328 C152.383,122.328 155.147,120.911 156.991,118.079 L154.693,116.29 C154.002,117.184 153.196,117.903 152.274,118.445 C151.353,118.987 150.228,119.258 148.9,119.258 C147.03,119.258 145.488,118.59 144.275,117.256 C143.062,115.921 142.428,114.169 142.374,112.001 L157.275,112.001 L157.275,110.435 C157.275,106.925 156.482,104.228 154.897,102.345 C153.311,100.461 151.088,99.5188 148.229,99.5188 C146.481,99.5188 144.858,100.003 143.36,100.972 C141.863,101.941 140.697,103.283 139.864,104.997 C139.03,106.712 138.613,108.66 138.613,110.842 L138.613,111.533 C138.613,114.813 139.549,117.432 141.419,119.39 C143.289,121.348 145.715,122.328 148.696,122.328 Z M148.229,102.609 C149.801,102.609 151.048,103.134 151.969,104.184 C152.891,105.235 153.406,106.715 153.514,108.626 L153.514,108.911 L142.496,108.911 C142.74,106.918 143.377,105.37 144.407,104.266 C145.437,103.161 146.711,102.609 148.229,102.609 Z " fill="#168bd8" fill-opacity="1.00" />			<path d="M161.605,99.9254 L161.605,121.921 L165.366,121.921 L165.366,105.861 C166.274,103.761 167.961,102.71 170.428,102.71 C173.558,102.71 175.124,104.31 175.124,107.508 L175.124,121.921 L178.905,121.921 L178.905,107.325 C179.054,105.916 179.589,104.794 180.511,103.961 C181.432,103.127 182.591,102.71 183.987,102.71 C185.681,102.71 186.887,103.1 187.605,103.879 C188.324,104.659 188.683,105.834 188.683,107.406 L188.683,121.921 L192.444,121.921 L192.444,107.183 C192.362,102.073 189.909,99.5188 185.085,99.5188 C183.486,99.5188 182.1,99.8441 180.928,100.495 C179.755,101.145 178.803,101.999 178.071,103.056 C176.96,100.698 174.866,99.5188 171.79,99.5188 C169.052,99.5188 166.877,100.467 165.264,102.365 L165.163,99.9254 L161.605,99.9254 Z " fill="#168bd8" fill-opacity="1.00" />			<path d="M207.243,122.328 C210.929,122.328 213.694,120.911 215.537,118.079 L213.24,116.29 C212.549,117.184 211.742,117.903 210.821,118.445 C209.899,118.987 208.774,119.258 207.446,119.258 C205.576,119.258 204.034,118.59 202.821,117.256 C201.609,115.921 200.975,114.169 200.921,112.001 L215.822,112.001 L215.822,110.435 C215.822,106.925 215.029,104.228 213.443,102.345 C211.858,100.461 209.635,99.5188 206.775,99.5188 C205.027,99.5188 203.404,100.003 201.907,100.972 C200.409,101.941 199.244,103.283 198.41,104.997 C197.577,106.712 197.16,108.66 197.16,110.842 L197.16,111.533 C197.16,114.813 198.095,117.432 199.965,119.39 C201.836,121.348 204.261,122.328 207.243,122.328 Z M206.775,102.609 C208.347,102.609 209.594,103.134 210.516,104.184 C211.437,105.235 211.952,106.715 212.061,108.626 L212.061,108.911 L201.043,108.911 C201.287,106.918 201.924,105.37 202.954,104.266 C203.984,103.161 205.258,102.609 206.775,102.609 Z " fill="#168bd8" fill-opacity="1.00" />			<path d="M220.172,99.9254 L220.172,121.921 L223.933,121.921 L223.933,106.248 C224.448,105.191 225.166,104.337 226.088,103.686 C227.009,103.036 228.08,102.71 229.3,102.71 C230.804,102.71 231.912,103.09 232.623,103.849 C233.335,104.608 233.697,105.78 233.711,107.366 L233.711,121.921 L237.472,121.921 L237.472,107.386 C237.431,102.141 235.086,99.5188 230.438,99.5188 C227.727,99.5188 225.532,100.576 223.851,102.69 L223.73,99.9254 L220.172,99.9254 Z " fill="#168bd8" fill-opacity="1.00" />			<path d="M244.485,94.5993 L244.485,99.9254 L240.48,99.9254 L240.48,102.832 L244.485,102.832 L244.485,116.473 C244.485,118.343 244.912,119.786 245.766,120.803 C246.62,121.819 247.887,122.328 249.567,122.328 C250.502,122.328 251.465,122.192 252.454,121.921 L252.454,118.872 C251.695,119.034 251.099,119.116 250.665,119.116 C249.784,119.116 249.161,118.895 248.795,118.455 C248.429,118.015 248.246,117.354 248.246,116.473 L248.246,102.832 L252.352,102.832 L252.352,99.9254 L248.246,99.9254 L248.246,94.5993 L244.485,94.5993 Z " fill="#168bd8" fill-opacity="1.00" />			<path d="M279.857,116.087 C279.857,117.049 279.427,117.818 278.566,118.394 C277.705,118.97 276.564,119.258 275.141,119.258 C273.596,119.258 272.352,118.889 271.41,118.15 C270.468,117.411 269.964,116.412 269.896,115.152 L266.135,115.152 C266.135,116.453 266.518,117.662 267.284,118.78 C268.049,119.898 269.11,120.769 270.465,121.392 C271.82,122.016 273.379,122.328 275.141,122.328 C277.648,122.328 279.688,121.735 281.26,120.549 C282.832,119.363 283.618,117.788 283.618,115.822 C283.618,114.643 283.336,113.644 282.774,112.824 C282.212,112.004 281.348,111.303 280.182,110.72 C279.017,110.137 277.495,109.636 275.618,109.216 C273.741,108.795 272.444,108.355 271.725,107.894 C271.007,107.433 270.648,106.749 270.648,105.841 C270.648,104.879 271.034,104.1 271.807,103.503 C272.579,102.907 273.65,102.609 275.019,102.609 C276.347,102.609 277.448,102.981 278.322,103.727 C279.196,104.472 279.633,105.36 279.633,106.39 L283.414,106.39 C283.414,104.384 282.639,102.738 281.087,101.45 C279.535,100.163 277.512,99.5188 275.019,99.5188 C272.647,99.5188 270.699,100.142 269.174,101.389 C267.65,102.636 266.887,104.161 266.887,105.963 C266.887,107.047 267.155,107.982 267.69,108.768 C268.226,109.554 269.052,110.232 270.17,110.801 C271.288,111.37 272.799,111.858 274.704,112.265 C276.608,112.671 277.943,113.156 278.708,113.718 C279.474,114.281 279.857,115.07 279.857,116.087 Z " fill="#168bd8" fill-opacity="1.00" />			<path d="M290.225,99.9254 L286.118,99.9254 L293.965,121.677 L293.132,123.913 C292.671,125.282 292.085,126.224 291.373,126.739 C290.662,127.254 289.669,127.511 288.395,127.511 L287.379,127.43 L287.379,130.479 L288.781,130.744 L289.493,130.805 C292.474,130.805 294.649,128.975 296.018,125.316 L304.861,99.9254 L300.836,99.9254 L295.713,116.412 L290.225,99.9254 Z " fill="#168bd8" fill-opacity="1.00" />			<path d="M321.022,116.087 C321.022,117.049 320.592,117.818 319.732,118.394 C318.871,118.97 317.729,119.258 316.306,119.258 C314.761,119.258 313.518,118.889 312.576,118.15 C311.634,117.411 311.129,116.412 311.061,115.152 L307.301,115.152 C307.301,116.453 307.683,117.662 308.449,118.78 C309.215,119.898 310.275,120.769 311.631,121.392 C312.986,122.016 314.544,122.328 316.306,122.328 C318.813,122.328 320.853,121.735 322.425,120.549 C323.997,119.363 324.783,117.788 324.783,115.822 C324.783,114.643 324.502,113.644 323.94,112.824 C323.377,112.004 322.513,111.303 321.348,110.72 C320.182,110.137 318.661,109.636 316.784,109.216 C314.907,108.795 313.609,108.355 312.891,107.894 C312.173,107.433 311.814,106.749 311.814,105.841 C311.814,104.879 312.2,104.1 312.972,103.503 C313.745,102.907 314.815,102.609 316.184,102.609 C317.512,102.609 318.613,102.981 319.488,103.727 C320.362,104.472 320.799,105.36 320.799,106.39 L324.58,106.39 C324.58,104.384 323.804,102.738 322.252,101.45 C320.701,100.163 318.678,99.5188 316.184,99.5188 C313.813,99.5188 311.864,100.142 310.34,101.389 C308.815,102.636 308.053,104.161 308.053,105.963 C308.053,107.047 308.32,107.982 308.856,108.768 C309.391,109.554 310.218,110.232 311.336,110.801 C312.454,111.37 313.965,111.858 315.869,112.265 C317.773,112.671 319.108,113.156 319.874,113.718 C320.64,114.281 321.022,115.07 321.022,116.087 Z " fill="#168bd8" fill-opacity="1.00" />			<path d="M331.024,94.5993 L331.024,99.9254 L327.019,99.9254 L327.019,102.832 L331.024,102.832 L331.024,116.473 C331.024,118.343 331.451,119.786 332.305,120.803 C333.159,121.819 334.426,122.328 336.106,122.328 C337.041,122.328 338.004,122.192 338.993,121.921 L338.993,118.872 C338.234,119.034 337.638,119.116 337.204,119.116 C336.323,119.116 335.7,118.895 335.334,118.455 C334.968,118.015 334.785,117.354 334.785,116.473 L334.785,102.832 L338.891,102.832 L338.891,99.9254 L334.785,99.9254 L334.785,94.5993 L331.024,94.5993 Z " fill="#168bd8" fill-opacity="1.00" />			<path d="M352.41,122.328 C356.096,122.328 358.861,120.911 360.704,118.079 L358.407,116.29 C357.716,117.184 356.909,117.903 355.988,118.445 C355.066,118.987 353.941,119.258 352.613,119.258 C350.743,119.258 349.201,118.59 347.988,117.256 C346.775,115.921 346.142,114.169 346.088,112.001 L360.989,112.001 L360.989,110.435 C360.989,106.925 360.196,104.228 358.61,102.345 C357.024,100.461 354.802,99.5188 351.942,99.5188 C350.194,99.5188 348.571,100.003 347.074,100.972 C345.576,101.941 344.411,103.283 343.577,104.997 C342.744,106.712 342.327,108.66 342.327,110.842 L342.327,111.533 C342.327,114.813 343.262,117.432 345.132,119.39 C347.002,121.348 349.428,122.328 352.41,122.328 Z M351.942,102.609 C353.514,102.609 354.761,103.134 355.683,104.184 C356.604,105.235 357.119,106.715 357.228,108.626 L357.228,108.911 L346.21,108.911 C346.454,106.918 347.091,105.37 348.121,104.266 C349.151,103.161 350.424,102.609 351.942,102.609 Z " fill="#168bd8" fill-opacity="1.00" />			<path d="M365.319,99.9254 L365.319,121.921 L369.079,121.921 L369.079,105.861 C369.987,103.761 371.675,102.71 374.141,102.71 C377.272,102.71 378.837,104.31 378.837,107.508 L378.837,121.921 L382.618,121.921 L382.618,107.325 C382.767,105.916 383.303,104.794 384.224,103.961 C385.146,103.127 386.304,102.71 387.7,102.71 C389.394,102.71 390.601,103.1 391.319,103.879 C392.037,104.659 392.396,105.834 392.396,107.406 L392.396,121.921 L396.157,121.921 L396.157,107.183 C396.076,102.073 393.623,99.5188 388.798,99.5188 C387.199,99.5188 385.813,99.8441 384.641,100.495 C383.469,101.145 382.517,101.999 381.785,103.056 C380.673,100.698 378.58,99.5188 375.503,99.5188 C372.766,99.5188 370.59,100.467 368.978,102.365 L368.876,99.9254 L365.319,99.9254 Z " fill="#168bd8" fill-opacity="1.00" />			<g>				<path d="M-439.711,-3.55392 C-439.711,-18.7281 -442.276,-32.0322 -447.405,-43.4663 C-452.534,-54.9004 -459.854,-63.6273 -469.365,-69.6471 C-478.875,-75.6669 -489.864,-78.6768 -502.331,-78.6768 C-514.585,-78.6768 -525.467,-75.6313 -534.977,-69.5403 C-544.488,-63.4492 -551.843,-54.6688 -557.044,-43.1992 C-562.244,-31.7295 -564.845,-18.5144 -564.845,-3.55392 L-564.845,7.66643 C-564.702,22.3419 -562.013,35.2542 -556.777,46.4033 C-551.541,57.5525 -544.185,66.1369 -534.71,72.1567 C-525.235,78.1765 -514.371,81.1864 -502.118,81.1864 C-489.579,81.1864 -478.608,78.1943 -469.205,72.2102 C-459.801,66.226 -452.534,57.5525 -447.405,46.1896 C-442.276,34.8268 -439.711,21.5227 -439.711,6.27724 L-439.711,-3.55392 Z M-460.121,7.77329 C-460.335,25.7971 -464.075,39.6355 -471.342,49.2886 C-478.608,58.9416 -488.867,63.7682 -502.118,63.7682 C-515.297,63.7682 -525.645,58.6567 -533.161,48.4337 C-540.676,38.2107 -544.434,24.1586 -544.434,6.27724 L-544.434,-5.15683 C-544.221,-22.6819 -540.392,-36.3779 -532.947,-46.2447 C-525.502,-56.1115 -515.297,-61.0449 -502.331,-61.0449 C-489.009,-61.0449 -478.644,-56.1115 -471.235,-46.2447 C-463.826,-36.3779 -460.121,-22.2189 -460.121,-3.76764 L-460.121,7.77329 Z " fill="#168bd8" fill-opacity="1.00" />				<path d="M-356.146,-37.215 C-358.141,-38.2123 -361.062,-38.711 -364.909,-38.711 C-376.806,-38.711 -385.996,-33.5461 -392.479,-23.2162 L-392.799,-36.5738 L-412.034,-36.5738 L-412.034,79.0492 L-392.265,79.0492 L-392.265,-3.01962 C-387.634,-14.0619 -378.836,-19.583 -365.871,-19.583 C-362.38,-19.583 -359.138,-19.3336 -356.146,-18.835 L-356.146,-37.215 Z " fill="#168bd8" fill-opacity="1.00" />				<path d="M-342.682,20.276 C-342.682,39.0834 -338.496,53.937 -330.126,64.8368 C-321.755,75.7365 -310.802,81.1864 -297.266,81.1864 C-283.588,81.1864 -272.795,76.627 -264.887,67.5083 L-264.887,94.381 L-245.011,94.381 L-245.011,-36.5738 L-263.071,-36.5738 L-264.033,-23.7505 C-271.94,-33.7242 -282.947,-38.711 -297.052,-38.711 C-310.802,-38.711 -321.844,-33.3858 -330.179,-22.7354 C-338.514,-12.0849 -342.682,2.25216 -342.682,20.276 Z M-322.806,22.52 C-322.806,7.84453 -320.099,-3.23334 -314.684,-10.7136 C-309.27,-18.1938 -301.754,-21.9339 -292.137,-21.9339 C-280.026,-21.9339 -270.943,-16.4128 -264.887,-5.37055 L-264.887,47.4185 C-270.729,58.7457 -279.883,64.4093 -292.351,64.4093 C-301.968,64.4093 -309.448,60.687 -314.791,53.2424 C-320.134,45.7978 -322.806,35.557 -322.806,22.52 Z " fill="#168bd8" fill-opacity="1.00" />				<path d="M-123.084,79.0492 L-123.084,77.3395 C-125.791,71.0703 -127.144,62.6283 -127.144,52.0135 L-127.144,-1.20299 C-127.429,-12.8864 -131.347,-22.0586 -138.899,-28.7196 C-146.45,-35.3805 -156.887,-38.711 -170.209,-38.711 C-178.615,-38.711 -186.327,-37.1437 -193.344,-34.0092 C-200.361,-30.8746 -205.918,-26.618 -210.015,-21.2393 C-214.111,-15.8607 -216.159,-10.2861 -216.159,-4.51566 L-196.283,-4.51566 C-196.283,-9.57373 -193.896,-13.8838 -189.123,-17.4458 C-184.35,-21.0078 -178.437,-22.7888 -171.385,-22.7888 C-163.334,-22.7888 -157.243,-20.7406 -153.111,-16.6443 C-148.979,-12.548 -146.913,-7.0447 -146.913,-0.134386 L-146.913,8.94875 L-166.148,8.94875 C-182.747,8.94875 -195.624,12.2792 -204.778,18.9402 C-213.933,25.6012 -218.51,34.9515 -218.51,46.9911 C-218.51,56.8935 -214.859,65.0683 -207.557,71.5156 C-200.255,77.9628 -190.904,81.1864 -179.506,81.1864 C-166.754,81.1864 -155.783,76.4133 -146.593,66.8671 C-145.88,72.7088 -144.954,76.7695 -143.815,79.0492 L-123.084,79.0492 Z M-176.621,63.9819 C-183.104,63.9819 -188.411,62.2365 -192.543,58.7457 C-196.675,55.255 -198.741,50.4106 -198.741,44.2127 C-198.741,30.0359 -186.63,22.9475 -162.408,22.9475 L-146.913,22.9475 L-146.913,46.6705 C-149.407,51.7998 -153.432,55.9674 -158.989,59.1732 C-164.545,62.379 -170.423,63.9819 -176.621,63.9819 Z " fill="#168bd8" fill-opacity="1.00" />				<path d="M-96.1547,-36.5738 L-96.1547,79.0492 L-76.3855,79.0492 L-76.3855,-3.3402 C-73.6784,-8.89694 -69.9027,-13.3851 -65.0583,-16.8046 C-60.214,-20.2242 -54.586,-21.9339 -48.1744,-21.9339 C-40.2667,-21.9339 -34.4428,-19.9392 -30.7027,-15.9497 C-26.9626,-11.9603 -25.0569,-5.79799 -24.9857,2.53713 L-24.9857,79.0492 L-5.21648,79.0492 L-5.21648,2.64399 C-5.4302,-24.926 -17.7548,-38.711 -42.1902,-38.711 C-56.4383,-38.711 -67.9792,-33.1543 -76.813,-22.0408 L-77.4542,-36.5738 L-96.1547,-36.5738 Z " fill="#168bd8" fill-opacity="1.00" />				<path d="M46.0765,-2.69138 C46.0765,-2.69138 43.6686,6.69026 36.4851,6.69026 C29.3017,6.69026 26.3074,-2.69138 26.3074,-2.69138 L26.3074,79.0492 L46.0765,79.0492 L46.0765,-2.69138 Z " fill="#168bd8" fill-opacity="1.00" />				<path d="M160.738,-22.5751 L160.738,-36.5738 L73.1122,-36.5738 L73.1122,-20.2242 L135.946,-20.2242 L72.1505,64.5162 L72.1505,79.0492 L163.944,79.0492 L163.944,62.9133 L96.301,62.9133 L160.738,-22.5751 Z " fill="#168bd8" fill-opacity="1.00" />				<path d="M234.151,81.1864 C253.528,81.1864 268.061,73.7418 277.75,58.8526 L265.675,49.4489 C262.042,54.1507 257.803,57.9265 252.958,60.7761 C248.114,63.6257 242.201,65.0505 235.22,65.0505 C225.388,65.0505 217.285,61.5419 210.909,54.5247 C204.533,47.5076 201.202,38.2998 200.917,26.9013 L279.246,26.9013 L279.246,18.6731 C279.246,0.221816 275.079,-13.955 266.743,-23.8574 C258.408,-33.7598 246.725,-38.711 231.693,-38.711 C222.503,-38.711 213.972,-36.1642 206.1,-31.0705 C198.228,-25.9768 192.101,-18.924 187.72,-9.91212 C183.339,-0.900219 181.148,9.34058 181.148,20.8103 L181.148,24.4435 C181.148,41.6837 186.064,55.4509 195.895,65.7451 C205.726,76.0393 218.478,81.1864 234.151,81.1864 Z M231.693,-22.4682 C239.957,-22.4682 246.511,-19.7077 251.356,-14.1865 C256.2,-8.66541 258.907,-0.882409 259.477,9.16248 L259.477,10.6585 L201.559,10.6585 C202.841,0.186196 206.189,-7.95301 211.603,-13.7591 C217.018,-19.5652 223.714,-22.4682 231.693,-22.4682 Z " fill="#168bd8" fill-opacity="1.00" />				<path d="M399.037,29.6797 C397.042,42.5029 392.999,51.497 386.908,56.662 C380.817,61.8269 372.072,64.4093 360.674,64.4093 C347.993,64.4093 338.126,59.4225 331.073,49.4489 C324.021,39.4752 320.494,26.0464 320.494,9.16248 L320.494,-5.90485 C320.494,-23.7862 324.217,-37.5712 331.661,-47.2599 C339.106,-56.9485 349.382,-61.7929 362.49,-61.7929 C373.176,-61.7929 381.494,-59.0145 387.442,-53.4578 C393.391,-47.901 397.256,-38.9247 399.037,-26.5289 L419.661,-26.5289 C418.022,-42.843 412.216,-55.6128 402.242,-64.8384 C392.269,-74.064 379.018,-78.6768 362.49,-78.6768 C350.023,-78.6768 339.052,-75.7382 329.577,-69.8608 C320.102,-63.9835 312.782,-55.5593 307.618,-44.5883 C302.453,-33.6173 299.87,-20.9009 299.87,-6.43915 L299.87,8.52131 C299.87,30.6058 305.409,48.2378 316.487,61.4172 C327.565,74.5967 342.294,81.1864 360.674,81.1864 C377.629,81.1864 391.218,76.7161 401.441,67.7754 C411.664,58.8348 417.737,46.1362 419.661,29.6797 L399.037,29.6797 Z " fill="#168bd8" fill-opacity="1.00" />				<path d="M562.533,1.57538 L506.111,1.57538 L506.111,18.2456 L542.123,18.2456 L542.123,53.189 C538.347,57.2497 533.574,60.1349 527.804,61.8447 C522.033,63.5545 515.301,64.4093 507.607,64.4093 C494,64.4093 483.207,59.2622 475.228,48.968 C467.249,38.6738 463.26,24.7997 463.26,7.34585 L463.26,-5.37055 C463.331,-23.6793 466.911,-37.6602 473.999,-47.3133 C481.088,-56.9663 491.507,-61.7929 505.256,-61.7929 C525.916,-61.7929 538.169,-51.4986 542.016,-30.9102 L562.533,-30.9102 C560.325,-46.1556 554.269,-57.9281 544.367,-66.2276 C534.464,-74.5271 521.392,-78.6768 505.149,-78.6768 C485.344,-78.6768 469.974,-72.2296 459.039,-59.3351 C448.103,-46.4406 442.636,-28.2743 442.636,-4.83625 L442.636,8.73503 C442.778,23.1968 445.539,35.9132 450.917,46.8842 C456.296,57.8552 463.901,66.315 473.732,72.2636 C483.563,78.2121 494.819,81.1864 507.5,81.1864 C520.038,81.1864 531.027,79.3164 540.466,75.5763 C549.906,71.8361 557.261,66.1903 562.533,58.6389 L562.533,1.57538 Z " fill="#168bd8" fill-opacity="1.00" />				<path d="M-392.046,94.5993 L-392.046,99.9254 L-396.05,99.9254 L-396.05,102.832 L-392.046,102.832 L-392.046,116.473 C-392.046,118.343 -391.619,119.786 -390.765,120.803 C-389.911,121.819 -388.644,122.328 -386.963,122.328 C-386.028,122.328 -385.066,122.192 -384.077,121.921 L-384.077,118.872 C-384.836,119.034 -385.432,119.116 -385.866,119.116 C-386.747,119.116 -387.37,118.895 -387.736,118.455 C-388.102,118.015 -388.285,117.354 -388.285,116.473 L-388.285,102.832 L-384.178,102.832 L-384.178,99.9254 L-388.285,99.9254 L-388.285,94.5993 L-392.046,94.5993 Z M-376.027,90.6962 L-379.787,90.6962 L-379.787,121.921 L-376.027,121.921 L-376.027,106.248 C-375.512,105.191 -374.793,104.337 -373.872,103.686 C-372.95,103.036 -371.88,102.71 -370.66,102.71 C-369.156,102.71 -368.048,103.09 -367.336,103.849 C-366.625,104.608 -366.262,105.78 -366.249,107.366 L-366.249,121.921 L-362.488,121.921 L-362.488,107.386 C-362.528,102.141 -364.873,99.5188 -369.521,99.5188 C-372.191,99.5188 -374.36,100.542 -376.027,102.588 L-376.027,90.6962 Z M-347.729,122.328 C-344.043,122.328 -341.278,120.911 -339.435,118.079 L-341.732,116.29 C-342.423,117.184 -343.23,117.903 -344.151,118.445 C-345.073,118.987 -346.198,119.258 -347.526,119.258 C-349.396,119.258 -350.938,118.59 -352.151,117.256 C-353.364,115.921 -353.997,114.169 -354.051,112.001 L-339.15,112.001 L-339.15,110.435 C-339.15,106.925 -339.943,104.228 -341.529,102.345 C-343.115,100.461 -345.337,99.5188 -348.197,99.5188 C-349.945,99.5188 -351.568,100.003 -353.065,100.972 C-354.563,101.941 -355.729,103.283 -356.562,104.997 C-357.395,106.712 -357.812,108.66 -357.812,110.842 L-357.812,111.533 C-357.812,114.813 -356.877,117.432 -355.007,119.39 C-353.137,121.348 -350.711,122.328 -347.729,122.328 Z M-348.197,102.609 C-346.625,102.609 -345.378,103.134 -344.456,104.184 C-343.535,105.235 -343.02,106.715 -342.911,108.626 L-342.911,108.911 L-353.929,108.911 C-353.685,106.918 -353.049,105.37 -352.019,104.266 C-350.989,103.161 -349.715,102.609 -348.197,102.609 Z M-315.671,119.258 C-317.609,119.258 -319.1,118.574 -320.143,117.205 C-321.187,115.836 -321.709,113.884 -321.709,111.35 L-321.709,110.639 C-321.709,108.037 -321.183,106.048 -320.133,104.672 C-319.083,103.297 -317.602,102.609 -315.691,102.609 C-314.268,102.609 -313.072,103.066 -312.103,103.981 C-311.134,104.896 -310.596,106.065 -310.487,107.488 L-306.93,107.488 C-307.038,105.13 -307.909,103.212 -309.542,101.735 C-311.175,100.257 -313.225,99.5188 -315.691,99.5188 C-317.697,99.5188 -319.435,99.9796 -320.906,100.901 C-322.376,101.823 -323.504,103.117 -324.29,104.784 C-325.076,106.451 -325.469,108.355 -325.469,110.496 L-325.469,111.126 C-325.469,114.596 -324.585,117.33 -322.816,119.329 C-321.048,121.328 -318.666,122.328 -315.671,122.328 C-314.18,122.328 -312.767,121.989 -311.432,121.311 C-310.097,120.634 -309.03,119.726 -308.231,118.587 C-307.431,117.449 -306.997,116.249 -306.93,114.989 L-310.487,114.989 C-310.596,116.209 -311.151,117.225 -312.154,118.038 C-313.157,118.851 -314.329,119.258 -315.671,119.258 Z M-303.697,110.984 C-303.697,114.399 -302.772,117.144 -300.922,119.217 C-299.073,121.291 -296.657,122.328 -293.675,122.328 C-291.697,122.328 -289.945,121.853 -288.42,120.905 C-286.896,119.956 -285.723,118.631 -284.903,116.93 C-284.084,115.229 -283.674,113.308 -283.674,111.167 L-283.674,110.903 C-283.674,107.461 -284.599,104.703 -286.448,102.629 C-288.298,100.556 -290.721,99.5188 -293.716,99.5188 C-295.654,99.5188 -297.379,99.9864 -298.89,100.922 C-300.401,101.857 -301.58,103.185 -302.427,104.906 C-303.274,106.627 -303.697,108.565 -303.697,110.72 L-303.697,110.984 Z M-299.916,111.167 C-299.916,108.416 -299.347,106.302 -298.209,104.825 C-297.07,103.347 -295.573,102.609 -293.716,102.609 C-291.819,102.609 -290.297,103.358 -289.152,104.855 C-288.007,106.353 -287.434,108.308 -287.434,110.72 C-287.434,113.417 -287.997,115.514 -289.122,117.012 C-290.247,118.509 -291.764,119.258 -293.675,119.258 C-295.573,119.258 -297.087,118.519 -298.219,117.042 C-299.35,115.565 -299.916,113.607 -299.916,111.167 Z M-278.978,99.9254 L-278.978,121.921 L-275.217,121.921 L-275.217,105.861 C-274.309,103.761 -272.622,102.71 -270.155,102.71 C-267.024,102.71 -265.459,104.31 -265.459,107.508 L-265.459,121.921 L-261.678,121.921 L-261.678,107.325 C-261.529,105.916 -260.994,104.794 -260.072,103.961 C-259.15,103.127 -257.992,102.71 -256.596,102.71 C-254.902,102.71 -253.696,103.1 -252.977,103.879 C-252.259,104.659 -251.9,105.834 -251.9,107.406 L-251.9,121.921 L-248.139,121.921 L-248.139,107.183 C-248.22,102.073 -250.673,99.5188 -255.498,99.5188 C-257.097,99.5188 -258.483,99.8441 -259.655,100.495 C-260.828,101.145 -261.78,101.999 -262.511,103.056 C-263.623,100.698 -265.717,99.5188 -268.793,99.5188 C-271.531,99.5188 -273.706,100.467 -275.319,102.365 L-275.42,99.9254 L-278.978,99.9254 Z M-242.488,99.9254 L-242.488,121.921 L-238.727,121.921 L-238.727,105.861 C-237.819,103.761 -236.132,102.71 -233.665,102.71 C-230.535,102.71 -228.969,104.31 -228.969,107.508 L-228.969,121.921 L-225.188,121.921 L-225.188,107.325 C-225.039,105.916 -224.504,104.794 -223.582,103.961 C-222.661,103.127 -221.502,102.71 -220.106,102.71 C-218.412,102.71 -217.206,103.1 -216.487,103.879 C-215.769,104.659 -215.41,105.834 -215.41,107.406 L-215.41,121.921 L-211.649,121.921 L-211.649,107.183 C-211.731,102.073 -214.184,99.5188 -219.008,99.5188 C-220.607,99.5188 -221.993,99.8441 -223.165,100.495 C-224.338,101.145 -225.29,101.999 -226.022,103.056 C-227.133,100.698 -229.227,99.5188 -232.303,99.5188 C-235.041,99.5188 -237.216,100.467 -238.829,102.365 L-238.93,99.9254 L-242.488,99.9254 Z M-192.317,121.921 L-188.739,121.921 L-188.739,99.9254 L-192.5,99.9254 L-192.5,115.924 C-193.448,118.065 -195.359,119.136 -198.232,119.136 C-200.943,119.136 -202.298,117.469 -202.298,114.135 L-202.298,99.9254 L-206.059,99.9254 L-206.059,114.237 C-206.045,116.907 -205.425,118.923 -204.199,120.285 C-202.972,121.647 -201.187,122.328 -198.842,122.328 C-196.01,122.328 -193.862,121.467 -192.398,119.746 L-192.317,121.921 Z M-183.026,99.9254 L-183.026,121.921 L-179.266,121.921 L-179.266,106.248 C-178.751,105.191 -178.032,104.337 -177.111,103.686 C-176.189,103.036 -175.119,102.71 -173.899,102.71 C-172.395,102.71 -171.287,103.09 -170.575,103.849 C-169.864,104.608 -169.501,105.78 -169.488,107.366 L-169.488,121.921 L-165.727,121.921 L-165.727,107.386 C-165.767,102.141 -168.112,99.5188 -172.76,99.5188 C-175.471,99.5188 -177.666,100.576 -179.347,102.69 L-179.469,99.9254 L-183.026,99.9254 Z M-155.969,99.9254 L-159.73,99.9254 L-159.73,121.921 L-155.969,121.921 L-155.969,99.9254 Z M-160.035,94.0911 C-160.035,94.7009 -159.848,95.2092 -159.476,95.6157 C-159.103,96.0223 -158.551,96.2256 -157.819,96.2256 C-157.087,96.2256 -156.531,96.0223 -156.152,95.6157 C-155.773,95.2092 -155.583,94.7009 -155.583,94.0911 C-155.583,93.4812 -155.773,92.9662 -156.152,92.5461 C-156.531,92.126 -157.087,91.9159 -157.819,91.9159 C-158.551,91.9159 -159.103,92.126 -159.476,92.5461 C-159.848,92.9662 -160.035,93.4812 -160.035,94.0911 Z M-148.61,94.5993 L-148.61,99.9254 L-152.615,99.9254 L-152.615,102.832 L-148.61,102.832 L-148.61,116.473 C-148.61,118.343 -148.183,119.786 -147.329,120.803 C-146.476,121.819 -145.208,122.328 -143.528,122.328 C-142.593,122.328 -141.631,122.192 -140.641,121.921 L-140.641,118.872 C-141.4,119.034 -141.996,119.116 -142.43,119.116 C-143.311,119.116 -143.934,118.895 -144.3,118.455 C-144.666,118.015 -144.849,117.354 -144.849,116.473 L-144.849,102.832 L-140.743,102.832 L-140.743,99.9254 L-144.849,99.9254 L-144.849,94.5993 L-148.61,94.5993 Z M-134.644,99.9254 L-138.751,99.9254 L-130.904,121.677 L-131.737,123.913 C-132.198,125.282 -132.784,126.224 -133.496,126.739 C-134.207,127.254 -135.2,127.511 -136.474,127.511 L-137.49,127.43 L-137.49,130.479 L-136.088,130.744 L-135.376,130.805 C-132.395,130.805 -130.219,128.975 -128.851,125.316 L-120.008,99.9254 L-124.033,99.9254 L-129.156,116.412 L-134.644,99.9254 Z M-107.241,110.74 C-107.241,114.318 -106.445,117.144 -104.853,119.217 C-103.26,121.291 -101.177,122.328 -98.6016,122.328 C-95.9995,122.328 -93.9463,121.46 -92.442,119.726 L-92.442,121.616 C-92.442,123.486 -92.9536,124.936 -93.9768,125.966 C-95,126.996 -96.4264,127.511 -98.256,127.511 C-100.587,127.511 -102.559,126.515 -104.172,124.523 L-106.123,126.78 C-105.324,127.959 -104.165,128.887 -102.647,129.565 C-101.129,130.242 -99.5773,130.581 -97.9917,130.581 C-95.1457,130.581 -92.8791,129.761 -91.1918,128.121 C-89.5045,126.481 -88.6609,124.238 -88.6609,121.392 L-88.6609,99.9254 L-92.0964,99.9254 L-92.2794,102.365 C-93.7837,100.467 -95.8775,99.5188 -98.5609,99.5188 C-101.177,99.5188 -103.277,100.532 -104.863,102.558 C-106.448,104.584 -107.241,107.311 -107.241,110.74 Z M-103.46,111.167 C-103.46,108.375 -102.945,106.268 -101.915,104.845 C-100.885,103.422 -99.4554,102.71 -97.6258,102.71 C-95.3219,102.71 -93.5939,103.761 -92.442,105.861 L-92.442,115.904 C-93.5533,118.059 -95.2948,119.136 -97.6665,119.136 C-99.496,119.136 -100.919,118.428 -101.935,117.012 C-102.952,115.595 -103.46,113.647 -103.46,111.167 Z M-72.3573,99.8034 C-72.7368,99.6137 -73.2924,99.5188 -74.0242,99.5188 C-76.2875,99.5188 -78.0358,100.501 -79.269,102.466 L-79.33,99.9254 L-82.9892,99.9254 L-82.9892,121.921 L-79.2284,121.921 L-79.2284,106.309 C-78.3475,104.208 -76.6737,103.158 -74.2072,103.158 C-73.5431,103.158 -72.9265,103.205 -72.3573,103.3 L-72.3573,99.8034 Z M-69.8975,110.984 C-69.8975,114.399 -68.9726,117.144 -67.1227,119.217 C-65.2728,121.291 -62.857,122.328 -59.8755,122.328 C-57.8968,122.328 -56.1452,121.853 -54.6205,120.905 C-53.0959,119.956 -51.9236,118.631 -51.1037,116.93 C-50.2838,115.229 -49.8738,113.308 -49.8738,111.167 L-49.8738,110.903 C-49.8738,107.461 -50.7988,104.703 -52.6487,102.629 C-54.4986,100.556 -56.9211,99.5188 -59.9162,99.5188 C-61.8541,99.5188 -63.5787,99.9864 -65.0898,100.922 C-66.6009,101.857 -67.78,103.185 -68.627,104.906 C-69.474,106.627 -69.8975,108.565 -69.8975,110.72 L-69.8975,110.984 Z M-66.1164,111.167 C-66.1164,108.416 -65.5472,106.302 -64.4088,104.825 C-63.2704,103.347 -61.7728,102.609 -59.9162,102.609 C-58.0188,102.609 -56.4975,103.358 -55.3524,104.855 C-54.2072,106.353 -53.6346,108.308 -53.6346,110.72 C-53.6346,113.417 -54.197,115.514 -55.3219,117.012 C-56.4467,118.509 -57.9646,119.258 -59.8755,119.258 C-61.7728,119.258 -63.2873,118.519 -64.4189,117.042 C-65.5506,115.565 -66.1164,113.607 -66.1164,111.167 Z M-31.4967,121.921 L-27.9189,121.921 L-27.9189,99.9254 L-31.6797,99.9254 L-31.6797,115.924 C-32.6283,118.065 -34.5392,119.136 -37.4123,119.136 C-40.1228,119.136 -41.4781,117.469 -41.4781,114.135 L-41.4781,99.9254 L-45.2389,99.9254 L-45.2389,114.237 C-45.2253,116.907 -44.6053,118.923 -43.3788,120.285 C-42.1523,121.647 -40.3668,122.328 -38.0222,122.328 C-35.1897,122.328 -33.0417,121.467 -31.578,119.746 L-31.4967,121.921 Z M-3.62612,110.822 C-3.62612,107.271 -4.39522,104.499 -5.93342,102.507 C-7.47162,100.515 -9.56208,99.5188 -12.2048,99.5188 C-14.9288,99.5188 -17.0566,100.467 -18.588,102.365 L-18.771,99.9254 L-22.2065,99.9254 L-22.2065,130.378 L-18.4457,130.378 L-18.4457,119.786 C-16.9143,121.481 -14.8137,122.328 -12.1438,122.328 C-9.5282,122.328 -7.45468,121.304 -5.92326,119.258 C-4.39183,117.212 -3.62612,114.515 -3.62612,111.167 L-3.62612,110.822 Z M-7.38692,110.74 C-7.38692,113.559 -7.91885,115.683 -8.98272,117.113 C-10.0466,118.543 -11.4798,119.258 -13.2822,119.258 C-15.5997,119.258 -17.3209,118.255 -18.4457,116.249 L-18.4457,105.739 C-17.3073,103.72 -15.5997,102.71 -13.3229,102.71 C-11.4798,102.71 -10.0296,103.429 -8.97255,104.865 C-7.91546,106.302 -7.38692,108.26 -7.38692,110.74 Z M11.4374,99.9254 L11.4374,121.921 L15.1982,121.921 L15.1982,105.861 C16.1062,103.761 17.7935,102.71 20.26,102.71 C23.3907,102.71 24.956,104.31 24.956,107.508 L24.956,121.921 L28.7371,121.921 L28.7371,107.325 C28.8862,105.916 29.4215,104.794 30.3431,103.961 C31.2646,103.127 32.4234,102.71 33.8193,102.71 C35.5133,102.71 36.7195,103.1 37.4378,103.879 C38.156,104.659 38.5152,105.834 38.5152,107.406 L38.5152,121.921 L42.276,121.921 L42.276,107.183 C42.1947,102.073 39.7417,99.5188 34.917,99.5188 C33.3178,99.5188 31.9321,99.8441 30.7598,100.495 C29.5875,101.145 28.6354,101.999 27.9036,103.056 C26.7923,100.698 24.6985,99.5188 21.6221,99.5188 C18.8845,99.5188 16.7093,100.467 15.0966,102.365 L14.9949,99.9254 L11.4374,99.9254 Z M65.471,121.921 L65.471,121.596 C64.956,120.403 64.6985,118.797 64.6985,116.778 L64.6985,106.654 C64.6443,104.432 63.8989,102.687 62.4623,101.42 C61.0258,100.152 59.0403,99.5188 56.506,99.5188 C54.9068,99.5188 53.4398,99.817 52.1049,100.413 C50.77,101.01 49.7129,101.819 48.9336,102.843 C48.1543,103.866 47.7647,104.926 47.7647,106.024 L51.5458,106.024 C51.5458,105.062 51.9998,104.242 52.9079,103.564 C53.8159,102.887 54.9407,102.548 56.2824,102.548 C57.8138,102.548 58.9726,102.937 59.7586,103.717 C60.5447,104.496 60.9377,105.543 60.9377,106.857 L60.9377,108.585 L57.2785,108.585 C54.1208,108.585 51.6712,109.219 49.9297,110.486 C48.1882,111.753 47.3175,113.532 47.3175,115.822 C47.3175,117.706 48.012,119.261 49.4012,120.488 C50.7903,121.714 52.569,122.328 54.7374,122.328 C57.1633,122.328 59.2504,121.42 60.9987,119.604 C61.1342,120.715 61.3104,121.487 61.5272,121.921 L65.471,121.921 Z M55.2863,119.055 C54.053,119.055 53.0434,118.723 52.2573,118.059 C51.4713,117.394 51.0783,116.473 51.0783,115.294 C51.0783,112.597 53.3822,111.248 57.99,111.248 L60.9377,111.248 L60.9377,115.761 C60.4633,116.737 59.6976,117.53 58.6405,118.14 C57.5834,118.75 56.4654,119.055 55.2863,119.055 Z M70.5938,99.9254 L70.5938,121.921 L74.3546,121.921 L74.3546,106.248 C74.8696,105.191 75.5879,104.337 76.5094,103.686 C77.431,103.036 78.5016,102.71 79.7213,102.71 C81.2257,102.71 82.3336,103.09 83.0451,103.849 C83.7566,104.608 84.1191,105.78 84.1327,107.366 L84.1327,121.921 L87.8935,121.921 L87.8935,107.386 C87.8528,102.141 85.5082,99.5188 80.8598,99.5188 C78.1493,99.5188 75.9538,100.576 74.2733,102.69 L74.1513,99.9254 L70.5938,99.9254 Z M111.088,121.921 L111.088,121.596 C110.573,120.403 110.316,118.797 110.316,116.778 L110.316,106.654 C110.262,104.432 109.516,102.687 108.08,101.42 C106.643,100.152 104.658,99.5188 102.124,99.5188 C100.524,99.5188 99.0573,99.817 97.7224,100.413 C96.3875,101.01 95.3304,101.819 94.5511,102.843 C93.7718,103.866 93.3822,104.926 93.3822,106.024 L97.1633,106.024 C97.1633,105.062 97.6173,104.242 98.5253,103.564 C99.4334,102.887 100.558,102.548 101.9,102.548 C103.431,102.548 104.59,102.937 105.376,103.717 C106.162,104.496 106.555,105.543 106.555,106.857 L106.555,108.585 L102.896,108.585 C99.7383,108.585 97.2887,109.219 95.5472,110.486 C93.8057,111.753 92.935,113.532 92.935,115.822 C92.935,117.706 93.6295,119.261 95.0187,120.488 C96.4078,121.714 98.1865,122.328 100.355,122.328 C102.781,122.328 104.868,121.42 106.616,119.604 C106.752,120.715 106.928,121.487 107.145,121.921 L111.088,121.921 Z M100.904,119.055 C99.6705,119.055 98.6609,118.723 97.8748,118.059 C97.0888,117.394 96.6958,116.473 96.6958,115.294 C96.6958,112.597 98.9997,111.248 103.608,111.248 L106.555,111.248 L106.555,115.761 C106.081,116.737 105.315,117.53 104.258,118.14 C103.201,118.75 102.083,119.055 100.904,119.055 Z M115.317,110.74 C115.317,114.318 116.113,117.144 117.705,119.217 C119.298,121.291 121.382,122.328 123.956,122.328 C126.559,122.328 128.612,121.46 130.116,119.726 L130.116,121.616 C130.116,123.486 129.604,124.936 128.581,125.966 C127.558,126.996 126.132,127.511 124.302,127.511 C121.971,127.511 119.999,126.515 118.386,124.523 L116.435,126.78 C117.234,127.959 118.393,128.887 119.911,129.565 C121.429,130.242 122.981,130.581 124.566,130.581 C127.412,130.581 129.679,129.761 131.366,128.121 C133.054,126.481 133.897,124.238 133.897,121.392 L133.897,99.9254 L130.462,99.9254 L130.279,102.365 C128.774,100.467 126.681,99.5188 123.997,99.5188 C121.382,99.5188 119.281,100.532 117.695,102.558 C116.11,104.584 115.317,107.311 115.317,110.74 Z M119.098,111.167 C119.098,108.375 119.613,106.268 120.643,104.845 C121.673,103.422 123.103,102.71 124.932,102.71 C127.236,102.71 128.964,103.761 130.116,105.861 L130.116,115.904 C129.005,118.059 127.263,119.136 124.892,119.136 C123.062,119.136 121.639,118.428 120.623,117.012 C119.606,115.595 119.098,113.647 119.098,111.167 Z M148.696,122.328 C152.383,122.328 155.147,120.911 156.991,118.079 L154.693,116.29 C154.002,117.184 153.196,117.903 152.274,118.445 C151.353,118.987 150.228,119.258 148.9,119.258 C147.03,119.258 145.488,118.59 144.275,117.256 C143.062,115.921 142.428,114.169 142.374,112.001 L157.275,112.001 L157.275,110.435 C157.275,106.925 156.482,104.228 154.897,102.345 C153.311,100.461 151.088,99.5188 148.229,99.5188 C146.481,99.5188 144.858,100.003 143.36,100.972 C141.863,101.941 140.697,103.283 139.864,104.997 C139.03,106.712 138.613,108.66 138.613,110.842 L138.613,111.533 C138.613,114.813 139.549,117.432 141.419,119.39 C143.289,121.348 145.715,122.328 148.696,122.328 Z M148.229,102.609 C149.801,102.609 151.048,103.134 151.969,104.184 C152.891,105.235 153.406,106.715 153.514,108.626 L153.514,108.911 L142.496,108.911 C142.74,106.918 143.377,105.37 144.407,104.266 C145.437,103.161 146.711,102.609 148.229,102.609 Z M161.605,99.9254 L161.605,121.921 L165.366,121.921 L165.366,105.861 C166.274,103.761 167.961,102.71 170.428,102.71 C173.558,102.71 175.124,104.31 175.124,107.508 L175.124,121.921 L178.905,121.921 L178.905,107.325 C179.054,105.916 179.589,104.794 180.511,103.961 C181.432,103.127 182.591,102.71 183.987,102.71 C185.681,102.71 186.887,103.1 187.605,103.879 C188.324,104.659 188.683,105.834 188.683,107.406 L188.683,121.921 L192.444,121.921 L192.444,107.183 C192.362,102.073 189.909,99.5188 185.085,99.5188 C183.486,99.5188 182.1,99.8441 180.928,100.495 C179.755,101.145 178.803,101.999 178.071,103.056 C176.96,100.698 174.866,99.5188 171.79,99.5188 C169.052,99.5188 166.877,100.467 165.264,102.365 L165.163,99.9254 L161.605,99.9254 Z M207.243,122.328 C210.929,122.328 213.694,120.911 215.537,118.079 L213.24,116.29 C212.549,117.184 211.742,117.903 210.821,118.445 C209.899,118.987 208.774,119.258 207.446,119.258 C205.576,119.258 204.034,118.59 202.821,117.256 C201.609,115.921 200.975,114.169 200.921,112.001 L215.822,112.001 L215.822,110.435 C215.822,106.925 215.029,104.228 213.443,102.345 C211.858,100.461 209.635,99.5188 206.775,99.5188 C205.027,99.5188 203.404,100.003 201.907,100.972 C200.409,101.941 199.244,103.283 198.41,104.997 C197.577,106.712 197.16,108.66 197.16,110.842 L197.16,111.533 C197.16,114.813 198.095,117.432 199.965,119.39 C201.836,121.348 204.261,122.328 207.243,122.328 Z M206.775,102.609 C208.347,102.609 209.594,103.134 210.516,104.184 C211.437,105.235 211.952,106.715 212.061,108.626 L212.061,108.911 L201.043,108.911 C201.287,106.918 201.924,105.37 202.954,104.266 C203.984,103.161 205.258,102.609 206.775,102.609 Z M220.172,99.9254 L220.172,121.921 L223.933,121.921 L223.933,106.248 C224.448,105.191 225.166,104.337 226.088,103.686 C227.009,103.036 228.08,102.71 229.3,102.71 C230.804,102.71 231.912,103.09 232.623,103.849 C233.335,104.608 233.697,105.78 233.711,107.366 L233.711,121.921 L237.472,121.921 L237.472,107.386 C237.431,102.141 235.086,99.5188 230.438,99.5188 C227.727,99.5188 225.532,100.576 223.851,102.69 L223.73,99.9254 L220.172,99.9254 Z M244.485,94.5993 L244.485,99.9254 L240.48,99.9254 L240.48,102.832 L244.485,102.832 L244.485,116.473 C244.485,118.343 244.912,119.786 245.766,120.803 C246.62,121.819 247.887,122.328 249.567,122.328 C250.502,122.328 251.465,122.192 252.454,121.921 L252.454,118.872 C251.695,119.034 251.099,119.116 250.665,119.116 C249.784,119.116 249.161,118.895 248.795,118.455 C248.429,118.015 248.246,117.354 248.246,116.473 L248.246,102.832 L252.352,102.832 L252.352,99.9254 L248.246,99.9254 L248.246,94.5993 L244.485,94.5993 Z M279.857,116.087 C279.857,117.049 279.427,117.818 278.566,118.394 C277.705,118.97 276.564,119.258 275.141,119.258 C273.596,119.258 272.352,118.889 271.41,118.15 C270.468,117.411 269.964,116.412 269.896,115.152 L266.135,115.152 C266.135,116.453 266.518,117.662 267.284,118.78 C268.049,119.898 269.11,120.769 270.465,121.392 C271.82,122.016 273.379,122.328 275.141,122.328 C277.648,122.328 279.688,121.735 281.26,120.549 C282.832,119.363 283.618,117.788 283.618,115.822 C283.618,114.643 283.336,113.644 282.774,112.824 C282.212,112.004 281.348,111.303 280.182,110.72 C279.017,110.137 277.495,109.636 275.618,109.216 C273.741,108.795 272.444,108.355 271.725,107.894 C271.007,107.433 270.648,106.749 270.648,105.841 C270.648,104.879 271.034,104.1 271.807,103.503 C272.579,102.907 273.65,102.609 275.019,102.609 C276.347,102.609 277.448,102.981 278.322,103.727 C279.196,104.472 279.633,105.36 279.633,106.39 L283.414,106.39 C283.414,104.384 282.639,102.738 281.087,101.45 C279.535,100.163 277.512,99.5188 275.019,99.5188 C272.647,99.5188 270.699,100.142 269.174,101.389 C267.65,102.636 266.887,104.161 266.887,105.963 C266.887,107.047 267.155,107.982 267.69,108.768 C268.226,109.554 269.052,110.232 270.17,110.801 C271.288,111.37 272.799,111.858 274.704,112.265 C276.608,112.671 277.943,113.156 278.708,113.718 C279.474,114.281 279.857,115.07 279.857,116.087 Z M290.225,99.9254 L286.118,99.9254 L293.965,121.677 L293.132,123.913 C292.671,125.282 292.085,126.224 291.373,126.739 C290.662,127.254 289.669,127.511 288.395,127.511 L287.379,127.43 L287.379,130.479 L288.781,130.744 L289.493,130.805 C292.474,130.805 294.649,128.975 296.018,125.316 L304.861,99.9254 L300.836,99.9254 L295.713,116.412 L290.225,99.9254 Z M321.022,116.087 C321.022,117.049 320.592,117.818 319.732,118.394 C318.871,118.97 317.729,119.258 316.306,119.258 C314.761,119.258 313.518,118.889 312.576,118.15 C311.634,117.411 311.129,116.412 311.061,115.152 L307.301,115.152 C307.301,116.453 307.683,117.662 308.449,118.78 C309.215,119.898 310.275,120.769 311.631,121.392 C312.986,122.016 314.544,122.328 316.306,122.328 C318.813,122.328 320.853,121.735 322.425,120.549 C323.997,119.363 324.783,117.788 324.783,115.822 C324.783,114.643 324.502,113.644 323.94,112.824 C323.377,112.004 322.513,111.303 321.348,110.72 C320.182,110.137 318.661,109.636 316.784,109.216 C314.907,108.795 313.609,108.355 312.891,107.894 C312.173,107.433 311.814,106.749 311.814,105.841 C311.814,104.879 312.2,104.1 312.972,103.503 C313.745,102.907 314.815,102.609 316.184,102.609 C317.512,102.609 318.613,102.981 319.488,103.727 C320.362,104.472 320.799,105.36 320.799,106.39 L324.58,106.39 C324.58,104.384 323.804,102.738 322.252,101.45 C320.701,100.163 318.678,99.5188 316.184,99.5188 C313.813,99.5188 311.864,100.142 310.34,101.389 C308.815,102.636 308.053,104.161 308.053,105.963 C308.053,107.047 308.32,107.982 308.856,108.768 C309.391,109.554 310.218,110.232 311.336,110.801 C312.454,111.37 313.965,111.858 315.869,112.265 C317.773,112.671 319.108,113.156 319.874,113.718 C320.64,114.281 321.022,115.07 321.022,116.087 Z M331.024,94.5993 L331.024,99.9254 L327.019,99.9254 L327.019,102.832 L331.024,102.832 L331.024,116.473 C331.024,118.343 331.451,119.786 332.305,120.803 C333.159,121.819 334.426,122.328 336.106,122.328 C337.041,122.328 338.004,122.192 338.993,121.921 L338.993,118.872 C338.234,119.034 337.638,119.116 337.204,119.116 C336.323,119.116 335.7,118.895 335.334,118.455 C334.968,118.015 334.785,117.354 334.785,116.473 L334.785,102.832 L338.891,102.832 L338.891,99.9254 L334.785,99.9254 L334.785,94.5993 L331.024,94.5993 Z M352.41,122.328 C356.096,122.328 358.861,120.911 360.704,118.079 L358.407,116.29 C357.716,117.184 356.909,117.903 355.988,118.445 C355.066,118.987 353.941,119.258 352.613,119.258 C350.743,119.258 349.201,118.59 347.988,117.256 C346.775,115.921 346.142,114.169 346.088,112.001 L360.989,112.001 L360.989,110.435 C360.989,106.925 360.196,104.228 358.61,102.345 C357.024,100.461 354.802,99.5188 351.942,99.5188 C350.194,99.5188 348.571,100.003 347.074,100.972 C345.576,101.941 344.411,103.283 343.577,104.997 C342.744,106.712 342.327,108.66 342.327,110.842 L342.327,111.533 C342.327,114.813 343.262,117.432 345.132,119.39 C347.002,121.348 349.428,122.328 352.41,122.328 Z M351.942,102.609 C353.514,102.609 354.761,103.134 355.683,104.184 C356.604,105.235 357.119,106.715 357.228,108.626 L357.228,108.911 L346.21,108.911 C346.454,106.918 347.091,105.37 348.121,104.266 C349.151,103.161 350.424,102.609 351.942,102.609 Z M365.319,99.9254 L365.319,121.921 L369.079,121.921 L369.079,105.861 C369.987,103.761 371.675,102.71 374.141,102.71 C377.272,102.71 378.837,104.31 378.837,107.508 L378.837,121.921 L382.618,121.921 L382.618,107.325 C382.767,105.916 383.303,104.794 384.224,103.961 C385.146,103.127 386.304,102.71 387.7,102.71 C389.394,102.71 390.601,103.1 391.319,103.879 C392.037,104.659 392.396,105.834 392.396,107.406 L392.396,121.921 L396.157,121.921 L396.157,107.183 C396.076,102.073 393.623,99.5188 388.798,99.5188 C387.199,99.5188 385.813,99.8441 384.641,100.495 C383.469,101.145 382.517,101.999 381.785,103.056 C380.673,100.698 378.58,99.5188 375.503,99.5188 C372.766,99.5188 370.59,100.467 368.978,102.365 L368.876,99.9254 L365.319,99.9254 Z " fill="#168bd8" fill-opacity="1.00" />				<g>					<path d="M-16.0163,-54.8019 C9.91125,-51.3534 30.219,-30.9179 33.7952,-4.99038 C34.0507,-1.92505 38.5209,-1.92505 39.0318,-4.99038 C42.608,-30.9179 62.9158,-51.3534 88.8434,-54.8019 C91.9087,-55.0573 91.9087,-59.5276 88.8434,-60.0385 C62.9158,-63.6147 42.4803,-83.9225 39.0318,-109.85 C38.7764,-112.915 34.3061,-112.915 33.7952,-109.85 C30.219,-83.9225 9.91125,-63.487 -16.0163,-60.0385 C-19.0816,-59.783 -19.0816,-55.3128 -16.0163,-54.8019 Z " fill="#168bd8" fill-opacity="1.00" />					<path d="M30.3914,-130.043 C45.0904,-128.088 56.6034,-116.503 58.6308,-101.804 C58.7756,-100.066 61.3099,-100.066 61.5996,-101.804 C63.627,-116.503 75.14,-128.088 89.839,-130.043 C91.5768,-130.188 91.5768,-132.722 89.839,-133.012 C75.14,-135.039 63.5546,-146.552 61.5996,-161.251 C61.4547,-162.989 58.9204,-162.989 58.6308,-161.251 C56.6034,-146.552 45.0904,-134.967 30.3914,-133.012 C28.6536,-132.867 28.6536,-130.333 30.3914,-130.043 Z " fill="#168bd8" fill-opacity="1.00" />					<path d="M72.6498,-88.6467 C93.3426,-85.8944 109.55,-69.5848 112.404,-48.892 C112.608,-46.4456 116.176,-46.4456 116.584,-48.892 C119.438,-69.5848 135.646,-85.8944 156.338,-88.6467 C158.785,-88.8505 158.785,-92.4182 156.338,-92.826 C135.646,-95.6802 119.336,-111.888 116.584,-132.581 C116.38,-135.027 112.812,-135.027 112.404,-132.581 C109.55,-111.888 93.3426,-95.5782 72.6498,-92.826 C70.2033,-92.6221 70.2033,-89.0544 72.6498,-88.6467 Z " fill="#168bd8" fill-opacity="1.00" />				</g>				<path d="M-296.323,183.882 L-296.323,183.91 L-319.568,183.91 L-319.568,163.521 L-296.401,163.521 L-296.401,163.478 C-279.465,163.478 -265.795,149.808 -265.795,132.873 L-265.795,128.259 L-245.391,128.259 L-245.391,132.873 C-245.391,161.004 -268.201,183.84 -296.323,183.882 L-296.323,183.882 Z " fill="#168bd8" fill-opacity="1.00" />			</g>		</g>	</svg>