<svg xmlns="http://www.w3.org/2000/svg" xmlns:xlink="http://www.w3.org/1999/xlink" width="2048" height="1146.88" version="1.1" viewBox="0 0 2048 1146.88"><g id="document"><path fill="#000" fill-opacity=".39" d="M-1042.63,589.539 L1039.28,589.539 L1039.28,-585.123 L-1042.63,-585.123 L-1042.63,589.539 Z M327.327,132.589 L360.333,132.589 L360.333,-129.788 L-360.415,-129.788 L-360.415,132.589 L-329.119,132.589 L-329.119,-48.3073 L-299.592,-48.3073 L-299.592,-34.6136 L-299.164,-34.6136 C-297.88,-36.4679 -296.204,-38.358 -294.136,-40.2836 C-292.067,-42.2093 -289.642,-43.9567 -286.861,-45.5258 C-284.079,-47.0949 -281.048,-48.3786 -277.767,-49.3771 C-274.487,-50.3756 -270.992,-50.8749 -267.283,-50.8749 C-259.58,-50.8749 -252.591,-49.5554 -246.315,-46.9165 C-240.038,-44.2776 -234.653,-40.5689 -230.16,-35.7904 C-225.667,-31.0118 -222.208,-25.3418 -219.783,-18.7802 C-217.358,-12.2186 -216.145,-5.01514 -216.145,2.83023 C-216.145,10.105 -217.251,17.0589 -219.462,23.6918 C-221.673,30.3247 -224.811,36.2087 -228.876,41.3439 C-232.942,46.479 -237.899,50.58 -243.747,53.6468 C-249.595,56.7137 -256.228,58.2471 -263.646,58.2471 C-270.35,58.2471 -276.591,57.2129 -282.368,55.1446 C-288.145,53.0763 -292.887,49.5458 -296.596,44.5533 L-297.024,44.5533 L-297.024,132.589 L295.233,132.589 L295.233,-6.15628 C295.233,-11.0061 294.198,-15.1785 292.13,-18.6732 C290.062,-22.168 286.389,-23.9153 281.111,-23.9153 C277.402,-23.9153 274.3,-23.3091 271.803,-22.0966 C269.307,-20.8842 267.31,-19.2081 265.812,-17.0685 C264.315,-14.9288 263.245,-12.4326 262.603,-9.57972 C261.961,-6.72685 261.64,-3.73135 261.64,-0.593203 L261.64,54.3957 L229.545,54.3957 L229.545,-0.593203 C229.545,-2.44756 229.474,-4.72985 229.331,-7.44007 C229.189,-10.1503 228.69,-12.7179 227.834,-15.1428 C226.978,-17.5677 225.587,-19.6361 223.661,-21.3478 C221.736,-23.0595 218.919,-23.9153 215.21,-23.9153 C211.073,-23.9153 207.721,-23.1665 205.153,-21.6687 C202.586,-20.171 200.625,-18.174 199.269,-15.6777 C197.914,-13.1815 197.023,-10.3643 196.595,-7.22611 C196.167,-4.08796 195.953,-0.807168 195.953,2.61627 L195.953,54.3957 L163.858,54.3957 L163.858,-49.5911 L194.669,-49.5911 L194.669,-35.4694 L195.097,-35.4694 C196.096,-37.4664 197.522,-39.4634 199.376,-41.4604 C201.231,-43.4575 203.442,-45.2405 206.009,-46.8096 C208.577,-48.3786 211.501,-49.6624 214.782,-50.6609 C218.063,-51.6594 221.629,-52.1587 225.48,-52.1587 C232.755,-52.1587 239.21,-50.6609 244.844,-47.6654 C250.478,-44.6699 254.722,-39.9627 257.575,-33.5437 C261.284,-40.248 265.777,-45.0265 271.055,-47.8794 C276.332,-50.7322 282.823,-52.1587 290.525,-52.1587 C297.515,-52.1587 303.399,-50.9819 308.177,-48.6283 C312.956,-46.2746 316.736,-43.0652 319.518,-38.9999 C322.299,-34.9345 324.296,-30.156 325.509,-24.6642 C326.721,-19.1725 327.327,-13.2884 327.327,-7.01214 L327.327,132.589 Z M376.215,164.353 L-376.297,164.353 L-392.179,164.353 L-392.179,148.471 L-392.179,-145.67 L-392.179,-161.552 L-376.297,-161.552 L376.215,-161.552 L392.097,-161.552 L392.097,-145.67 L392.097,148.471 L392.097,164.353 L376.215,164.353 Z M-299.592,3.68609 C-299.592,11.5315 -297.345,17.8791 -292.852,22.7289 C-288.359,27.5788 -282.047,30.0037 -273.916,30.0037 C-265.785,30.0037 -259.473,27.5788 -254.98,22.7289 C-250.487,17.8791 -248.24,11.5315 -248.24,3.68609 C-248.24,-4.15928 -250.487,-10.5069 -254.98,-15.3568 C-259.473,-20.2066 -265.785,-22.6316 -273.916,-22.6316 C-282.047,-22.6316 -288.359,-20.2066 -292.852,-15.3568 C-297.345,-10.5069 -299.592,-4.15928 -299.592,3.68609 Z M-97.1812,-48.3073 L-97.1812,55.6795 L-127.992,55.6795 L-127.992,41.5578 L-128.42,41.5578 C-129.561,43.5548 -131.023,45.5518 -132.806,47.5488 C-134.589,49.5458 -136.765,51.3289 -139.332,52.8979 C-141.9,54.467 -144.824,55.7508 -148.105,56.7493 C-151.386,57.7478 -154.952,58.2471 -158.803,58.2471 C-166.934,58.2471 -173.531,56.9989 -178.595,54.5027 C-183.659,52.0064 -187.581,48.5473 -190.363,44.1254 C-193.144,39.7035 -194.999,34.497 -195.926,28.506 C-196.853,22.515 -197.317,16.0247 -197.317,9.0352 L-197.317,-48.3073 L-165.222,-48.3073 L-165.222,2.61627 C-165.222,5.61177 -165.115,8.71426 -164.901,11.9237 C-164.687,15.1332 -164.045,18.093 -162.975,20.8033 C-161.905,23.5135 -160.265,25.7244 -158.054,27.4362 C-155.843,29.1479 -152.669,30.0037 -148.533,30.0037 C-144.396,30.0037 -141.044,29.2549 -138.476,27.7571 C-135.909,26.2594 -133.947,24.2624 -132.592,21.7661 C-131.237,19.2698 -130.346,16.4526 -129.918,13.3145 C-129.49,10.1764 -129.276,6.89556 -129.276,3.47212 L-129.276,-48.3073 L-97.1812,-48.3073 Z M-74.5009,55.6795 L-74.5009,-48.3073 L-42.4062,-48.3073 L-42.4062,-31.6181 L-41.9783,-31.6181 C-38.5549,-38.037 -34.4896,-42.8512 -29.7823,-46.0607 C-25.0751,-49.2702 -19.1554,-50.8749 -12.0233,-50.8749 C-10.1689,-50.8749 -8.31455,-50.8036 -6.46018,-50.6609 C-4.60584,-50.5183 -2.8941,-50.233 -1.32504,-49.8051 L-1.32504,-20.4919 C-3.60733,-21.2051 -5.85396,-21.74 -8.06491,-22.0966 C-10.2759,-22.4533 -12.5939,-22.6316 -15.0188,-22.6316 C-21.1524,-22.6316 -26.0023,-21.7757 -29.5684,-20.064 C-33.1344,-18.3523 -35.8803,-15.963 -37.806,-12.8962 C-39.7317,-9.82934 -40.9798,-6.15628 -41.5504,-1.87699 C-42.121,2.4023 -42.4062,7.10953 -42.4062,12.2447 L-42.4062,55.6795 L-74.5009,55.6795 Z M9.58984,54.3957 L9.58984,-49.5911 L41.6845,-49.5911 L41.6845,54.3957 L9.58984,54.3957 Z M143.318,-38.4649 L123.633,-18.9942 C118.926,-24.8425 112.721,-27.7667 105.018,-27.7667 C102.308,-27.7667 99.6689,-27.1248 97.1014,-25.841 C94.5338,-24.5572 93.25,-22.3463 93.25,-19.2081 C93.25,-16.6405 94.5694,-14.7505 97.2084,-13.5381 C99.8473,-12.3256 103.199,-11.2558 107.265,-10.3286 C111.33,-9.40142 115.681,-8.40291 120.317,-7.33309 C124.952,-6.26327 129.303,-4.58721 133.368,-2.30492 C137.434,-0.0226323 140.786,3.07986 143.425,7.00254 C146.064,10.9252 147.383,16.1674 147.383,22.7289 C147.383,29.4332 145.921,34.9606 142.997,39.3112 C140.073,43.6618 136.328,47.1566 131.764,49.7955 C127.199,52.4344 122.064,54.2887 116.358,55.3585 C110.652,56.4284 105.018,56.9633 99.455,56.9633 C92.1802,56.9633 84.8341,55.9291 77.4166,53.8608 C69.9992,51.7925 63.7229,48.1194 58.5877,42.8416 L78.0585,21.2312 C81.054,24.9399 84.3705,27.7571 88.0079,29.6828 C91.6453,31.6085 95.8889,32.5713 100.739,32.5713 C104.447,32.5713 107.8,32.0364 110.795,30.9666 C113.791,29.8968 115.288,27.9354 115.288,25.0825 C115.288,22.3723 113.969,20.3397 111.33,18.9846 C108.691,17.6294 105.339,16.4883 101.274,15.5611 C97.2084,14.6339 92.8577,13.6354 88.2218,12.5656 C83.5859,11.4958 79.2353,9.89106 75.17,7.75141 C71.1047,5.61177 67.7525,2.5806 65.1137,-1.34208 C62.4748,-5.26477 61.1553,-10.5069 61.1553,-17.0685 C61.1553,-23.2021 62.4034,-28.4799 64.8997,-32.9019 C67.3959,-37.3238 70.6767,-40.9612 74.7421,-43.8141 C78.8074,-46.6669 83.479,-48.7709 88.7567,-50.126 C94.0345,-51.4811 99.3837,-52.1587 104.804,-52.1587 C111.651,-52.1587 118.569,-51.1602 125.559,-49.1632 C132.548,-47.1662 138.468,-43.6001 143.318,-38.4649 Z" transform="matrix(1,0,0,1,1024.0,573.4400054687501)"/></g></svg>