<?xml version="1.0" encoding="utf-8" ?>	<!-- Generator: Assembly 2.2 - http://assemblyapp.co -->	<svg version="1.1" xmlns="http://www.w3.org/2000/svg" xmlns:xlink="http://www.w3.org/1999/xlink" width="2048.00" height="1638.40" viewBox="0 0 2048.0 1638.4">		<g id="document" transform="matrix(1,0,0,1,1024.0,819.2)">			<path d="M-973.344,777.372 L973.344,777.372 L973.344,-777.372 L-973.344,-777.372 L-973.344,777.372 Z " fill="#ffffff" fill-opacity="1.00" />			<path d="M-41.2064,329.366 L42.5894,329.366 L42.5894,116.171 L-41.2064,116.171 L-41.2064,329.366 Z " fill="#52382b" fill-opacity="1.00" stroke-width="8.51" stroke="#313131" stroke-linecap="round" stroke-linejoin="round" />			<path d="M-26.6799,121.526 L-26.6799,309.303 " fill="none" stroke-width="10.74" stroke="#685748" stroke-linecap="round" stroke-linejoin="round" />			<path d="M-155.178,76.0091 C-172.697,106.555 -150.686,143.84 -116.546,144.289 L117.043,144.289 C152.082,144.289 174.093,106.555 156.574,76.4583 L39.7791,-125.686 C22.7091,-155.783 -20.8643,-155.783 -38.3835,-125.686 L-155.178,76.0091 Z " fill="#529866" fill-opacity="1.00" stroke-width="8.51" stroke="#313131" stroke-linecap="round" stroke-linejoin="round" />			<path d="M-138.51,-26.43 C-154.157,0.852283 -134.498,34.1527 -104.006,34.5539 L104.623,34.5539 C135.917,34.5539 155.576,0.852283 139.929,-26.0287 L35.6146,-206.573 C20.3686,-233.454 -18.5487,-233.454 -34.1959,-206.573 L-138.51,-26.43 Z " fill="#529866" fill-opacity="1.00" stroke-width="8.51" stroke="#313131" stroke-linecap="round" stroke-linejoin="round" />			<path d="M-115.834,-118.647 C-128.93,-95.8123 -112.476,-67.941 -86.9555,-67.6052 L87.6595,-67.6052 C113.852,-67.6052 130.306,-95.8123 117.21,-118.311 L29.9023,-269.42 C17.1419,-291.918 -15.4305,-291.918 -28.5266,-269.42 L-115.834,-118.647 Z " fill="#529866" fill-opacity="1.00" stroke-width="8.51" stroke="#313131" stroke-linecap="round" stroke-linejoin="round" />			<path d="M-78.1452,-214.736 C-87.0046,-199.289 -75.8736,-180.434 -58.6092,-180.207 L59.5159,-180.207 C77.2347,-180.207 88.3657,-199.289 79.5063,-214.509 L20.4438,-316.733 C11.8116,-331.952 -10.2233,-331.952 -19.0827,-316.733 L-78.1452,-214.736 Z " fill="#529866" fill-opacity="1.00" stroke-width="8.51" stroke="#313131" stroke-linecap="round" stroke-linejoin="round" />			<path d="M-37.4492,-151.869 C-26.9832,-151.869 -18.5107,-160.342 -18.5107,-170.808 C-18.5107,-181.274 -26.9832,-189.746 -37.4492,-189.746 C-47.9153,-189.746 -56.3878,-181.274 -56.3878,-170.808 C-56.3878,-160.342 -47.9153,-151.869 -37.4492,-151.869 Z " fill="#cf332f" fill-opacity="1.00" stroke-width="8.51" stroke="#313131" stroke-linecap="round" stroke-linejoin="round" />			<path d="M30.0516,-244.122 C42.4675,-244.122 52.5185,-254.173 52.5185,-266.589 C52.5185,-279.004 42.4675,-289.055 30.0516,-289.055 C17.6357,-289.055 7.58469,-279.004 7.58469,-266.589 C7.58469,-254.173 17.6357,-244.122 30.0516,-244.122 Z " fill="#cf332f" fill-opacity="1.00" stroke-width="8.51" stroke="#313131" stroke-linecap="round" stroke-linejoin="round" />			<path d="M-35.0808,-87.7728 L87.8197,-87.7728 " fill="none" stroke-width="12.43" stroke="#4a885c" stroke-linecap="round" stroke-linejoin="round" />			<path d="M-64.8789,16.1029 L107.328,16.1029 " fill="none" stroke-width="12.43" stroke="#4a885c" stroke-linecap="round" stroke-linejoin="round" />			<path d="M-89.652,125.212 L121.88,125.212 " fill="none" stroke-width="12.43" stroke="#4a885c" stroke-linecap="round" stroke-linejoin="round" />			<path d="M60.0676,-91.3827 C73.135,-91.3827 83.7133,-101.961 83.7133,-115.028 C83.7133,-128.096 73.135,-138.674 60.0676,-138.674 C47.0002,-138.674 36.4218,-128.096 36.4218,-115.028 C36.4218,-101.961 47.0002,-91.3827 60.0676,-91.3827 Z " fill="#cf332f" fill-opacity="1.00" stroke-width="8.51" stroke="#313131" stroke-linecap="round" stroke-linejoin="round" />			<path d="M-59.1974,-20.3137 C-46.13,-20.3137 -35.5517,-30.8921 -35.5517,-43.9595 C-35.5517,-57.0269 -46.13,-67.6052 -59.1974,-67.6052 C-72.2648,-67.6052 -82.8431,-57.0269 -82.8431,-43.9595 C-82.8431,-30.8921 -72.2648,-20.3137 -59.1974,-20.3137 Z " fill="#cf332f" fill-opacity="1.00" stroke-width="8.51" stroke="#313131" stroke-linecap="round" stroke-linejoin="round" />			<path d="M60.0283,39.7486 C73.0957,39.7486 83.674,29.1703 83.674,16.1029 C83.674,3.03549 73.0957,-7.54287 60.0283,-7.54287 C46.9609,-7.54287 36.3825,3.03549 36.3825,16.1029 C36.3825,29.1703 46.9609,39.7486 60.0283,39.7486 Z " fill="#cf332f" fill-opacity="1.00" stroke-width="8.51" stroke="#313131" stroke-linecap="round" stroke-linejoin="round" />			<path d="M-83.7988,121.602 C-70.7314,121.602 -60.153,111.024 -60.153,97.9562 C-60.153,84.8888 -70.7314,74.3104 -83.7988,74.3104 C-96.8662,74.3104 -107.445,84.8888 -107.445,97.9562 C-107.445,111.024 -96.8662,121.602 -83.7988,121.602 Z " fill="#cf332f" fill-opacity="1.00" stroke-width="8.51" stroke="#313131" stroke-linecap="round" stroke-linejoin="round" />			<path d="M110.93,159.852 C123.997,159.852 134.575,149.274 134.575,136.206 C134.575,123.139 123.997,112.561 110.93,112.561 C97.8623,112.561 87.2839,123.139 87.2839,136.206 C87.2839,149.274 97.8623,159.852 110.93,159.852 Z " fill="#cf332f" fill-opacity="1.00" stroke-width="8.51" stroke="#313131" stroke-linecap="round" stroke-linejoin="round" />			<path d="M34.0848,-308.301 L25.4052,-335.534 L25.4052,-335.534 L48.717,-353.264 C53.4995,-356.893 51.0265,-364.52 45.0242,-364.652 L16.4917,-365.385 L16.4917,-365.385 L6.667,-392.551 C4.69657,-398.234 -3.34188,-398.234 -5.31231,-392.551 L-16.207,-365.385 L-16.207,-365.385 L-43.6695,-364.652 C-49.6718,-364.52 -52.1448,-356.893 -47.3623,-353.264 L-24.0313,-336.731 L-24.0313,-336.731 L-32.7301,-308.301 C-34.4757,-302.552 -27.989,-297.826 -23.0516,-301.25 L0.942777,-317.533 L0.942777,-317.533 L24.4063,-301.25 C29.3437,-297.826 35.8304,-302.552 34.0848,-308.301 Z " fill="#fff674" fill-opacity="1.00" stroke-width="8.51" stroke="#313131" stroke-linecap="round" stroke-linejoin="round" />			<path d="M-12.2946,-199.572 L60.8878,-199.572 " fill="none" stroke-width="12.43" stroke="#4a885c" stroke-linecap="round" stroke-linejoin="round" />			<path d="M20.1096,-273.564 C23.4588,-279.365 30.8725,-281.352 36.6735,-278.003 C42.4745,-274.653 44.461,-267.24 41.1118,-261.439 " fill="none" stroke-width="3.87" stroke="#de6663" stroke-linecap="round" stroke-linejoin="round" />			<path d="M-45.9375,-175.829 C-43.315,-180.371 -37.5101,-181.927 -32.9679,-179.304 C-28.4257,-176.682 -26.8703,-170.877 -29.4927,-166.335 " fill="none" stroke-width="3.87" stroke="#de6663" stroke-linecap="round" stroke-linejoin="round" />			<path d="M48.529,-122.023 C52.2848,-128.528 60.5983,-130.756 67.1035,-127 C73.6086,-123.245 75.8362,-114.931 72.0805,-108.426 " fill="none" stroke-width="3.87" stroke="#de6663" stroke-linecap="round" stroke-linejoin="round" />			<path d="M48.4869,8.72155 C52.2426,2.21642 60.5562,-0.0111941 67.0613,3.74455 C73.5664,7.50028 75.794,15.8138 72.0383,22.319 " fill="none" stroke-width="3.87" stroke="#de6663" stroke-linecap="round" stroke-linejoin="round" />			<path d="M99.2341,128.852 C102.99,122.347 111.303,120.12 117.808,123.875 C124.314,127.631 126.541,135.945 122.785,142.45 " fill="none" stroke-width="3.87" stroke="#de6663" stroke-linecap="round" stroke-linejoin="round" />			<path d="M-95.834,90.8159 C-92.0783,84.3107 -83.7647,82.0831 -77.2596,85.8389 C-70.7545,89.5946 -68.5269,97.9081 -72.2826,104.413 " fill="none" stroke-width="3.87" stroke="#de6663" stroke-linecap="round" stroke-linejoin="round" />			<path d="M-70.8373,-51.2424 C-67.0815,-57.7475 -58.768,-59.9751 -52.2629,-56.2194 C-45.7577,-52.4637 -43.5301,-44.1501 -47.2859,-37.645 " fill="none" stroke-width="3.87" stroke="#de6663" stroke-linecap="round" stroke-linejoin="round" />			<path d="M153.071,212.775 L153.071,195.131 C153.071,181.862 142.326,171.116 129.056,171.116 C115.787,171.116 105.041,181.862 105.041,195.131 C105.041,208.4 115.787,219.146 129.056,219.146 L146.7,219.146 L153.071,219.146 L153.071,212.775 Z M140.329,195.131 L140.329,206.404 L129.056,206.404 C122.825,206.404 117.784,201.363 117.784,195.131 C117.784,188.899 122.825,183.858 129.056,183.858 C135.288,183.858 140.329,188.899 140.329,195.131 Z " fill="#fff674" fill-opacity="1.00" stroke-width="6.77" stroke="#313131" stroke-linecap="round" stroke-linejoin="round" />			<path d="M152.804,212.775 L152.804,190.28 C152.804,174.331 165.72,161.415 181.67,161.415 C197.619,161.415 210.535,174.331 210.535,190.28 C210.535,206.23 197.619,219.146 181.67,219.146 L159.175,219.146 L152.804,219.146 L152.804,212.775 Z M165.546,206.404 L181.67,206.404 C190.582,206.404 197.793,199.193 197.793,190.28 C197.793,181.368 190.582,174.157 181.67,174.157 C172.757,174.157 165.546,181.368 165.546,190.28 L165.546,206.404 Z " fill="#fff674" fill-opacity="1.00" stroke-width="6.77" stroke="#313131" stroke-linecap="round" stroke-linejoin="round" />			<path d="M71.7735,324.675 L169.5,324.675 L169.5,226.948 L71.7735,226.948 L71.7735,324.675 Z " fill="#cf332f" fill-opacity="1.00" stroke-width="6.77" stroke="#313131" stroke-linecap="round" stroke-linejoin="round" />			<path d="M-93.496,211.358 L-93.496,235.003 L-84.0377,235.003 L-84.0377,211.358 C-84.0377,198.305 -94.631,187.712 -107.683,187.712 C-120.736,187.712 -131.329,198.305 -131.329,211.358 L-131.329,235.003 L-121.871,235.003 L-121.871,211.358 C-121.871,203.507 -115.534,197.17 -107.683,197.17 C-99.8331,197.17 -93.496,203.507 -93.496,211.358 Z " fill="#892623" fill-opacity="1.00" stroke-width="4.25" stroke="#313131" stroke-linecap="round" stroke-linejoin="round" />			<path d="M-123.507,211.358 L-123.507,235.003 L-114.049,235.003 L-114.049,211.358 C-114.049,198.305 -124.642,187.712 -137.695,187.712 C-150.747,187.712 -161.34,198.305 -161.34,211.358 L-161.34,235.003 L-151.882,235.003 L-151.882,211.358 C-151.882,203.507 -145.545,197.17 -137.695,197.17 C-129.844,197.17 -123.507,203.507 -123.507,211.358 Z " fill="#ae2925" fill-opacity="1.00" stroke-width="5.03" stroke="#313131" stroke-linecap="round" stroke-linejoin="round" />			<path d="M-89.805,323.068 L-51.7701,323.068 L-51.7701,225.341 L-89.805,225.341 L-89.805,323.068 Z " fill="#295e38" fill-opacity="1.00" stroke-width="8.51" stroke="#313131" stroke-linecap="round" stroke-linejoin="round" />			<path d="M-187.531,323.068 L-89.805,323.068 L-89.805,225.341 L-187.531,225.341 L-187.531,323.068 Z " fill="#347d49" fill-opacity="1.00" stroke-width="8.51" stroke="#313131" stroke-linecap="round" stroke-linejoin="round" />			<path d="M169.223,324.675 L231.497,324.675 L231.497,226.948 L169.223,226.948 L169.223,324.675 Z " fill="#ae2925" fill-opacity="1.00" stroke-width="6.77" stroke="#313131" stroke-linecap="round" stroke-linejoin="round" />			<path d="M206.174,216.345 L194.546,216.345 L194.546,324.675 L206.174,324.675 L206.174,216.345 Z " fill="#cec657" fill-opacity="1.00" stroke-width="6.77" stroke="#313131" stroke-linecap="round" stroke-linejoin="round" />			<path d="M169.223,226.948 L237.251,226.948 L237.251,216.282 L169.223,216.282 L169.223,226.948 Z " fill="#ae2925" fill-opacity="1.00" stroke-width="6.77" stroke="#313131" stroke-linecap="round" stroke-linejoin="round" />			<path d="M126.451,216.282 L114.823,216.282 L114.823,324.611 L126.451,324.611 L126.451,216.282 Z " fill="#fff674" fill-opacity="1.00" stroke-width="6.77" stroke="#313131" stroke-linecap="round" stroke-linejoin="round" />			<path d="M64.4564,226.955 L169.95,226.955 L169.95,216.288 L64.4564,216.288 L64.4564,226.955 Z " fill="#cf332f" fill-opacity="1.00" stroke-width="6.77" stroke="#313131" stroke-linecap="round" stroke-linejoin="round" />			<path d="M71.7735,269.998 L71.7735,281.625 L169.5,281.625 L169.5,269.998 L71.7735,269.998 Z " fill="#fff674" fill-opacity="1.00" stroke-width="6.77" stroke="#313131" stroke-linecap="round" stroke-linejoin="round" />			<path d="M169.223,269.998 L169.223,281.625 L231.497,281.625 L231.497,269.998 L169.223,269.998 Z " fill="#cec657" fill-opacity="1.00" stroke-width="6.77" stroke="#313131" stroke-linecap="round" stroke-linejoin="round" />			<path d="M-284.947,-4.25834 L-293.656,48.4832 L-346.397,57.1919 L-293.656,65.9006 L-284.947,118.642 L-276.238,65.9006 L-223.497,57.1919 L-276.238,48.4832 L-284.947,-4.25834 Z " fill="#d1d1d1" fill-opacity="1.00" />			<path d="M365.579,-315.843 L350.082,-221.995 L256.234,-206.499 L350.082,-191.003 L365.579,-97.1549 L381.075,-191.003 L474.923,-206.499 L381.075,-221.995 L365.579,-315.843 Z " fill="#d1d1d1" fill-opacity="1.00" />			<path d="M373.997,324.675 L365.288,377.416 L312.547,386.125 L365.288,394.834 L373.997,447.575 L382.706,394.834 L435.447,386.125 L382.706,377.416 L373.997,324.675 Z " fill="#d1d1d1" fill-opacity="1.00" />			<path d="M-832.188,-206.71 L-843.8,-136.383 L-914.126,-124.771 L-843.8,-113.159 L-832.187,-42.8322 L-820.575,-113.159 L-750.249,-124.771 L-820.575,-136.383 L-832.188,-206.71 Z " fill="#d1d1d1" fill-opacity="1.00" />			<path d="M-54.8626,-699.869 L-70.3588,-606.021 L-164.207,-590.525 L-70.3588,-575.029 L-54.8626,-481.181 L-39.3663,-575.029 L54.4817,-590.525 L-39.3663,-606.021 L-54.8626,-699.869 Z " fill="#d1d1d1" fill-opacity="1.00" />			<path d="M-613.341,133.077 L-624.953,203.404 L-695.28,215.016 L-624.953,226.628 L-613.341,296.955 L-601.729,226.628 L-531.402,215.016 L-601.729,203.404 L-613.341,133.077 Z " fill="#d1d1d1" fill-opacity="1.00" />			<path d="M-332.095,-356.606 C-336.687,-322.082 -363.898,-295.041 -398.422,-290.279 C-402.504,-289.938 -402.504,-283.986 -398.422,-283.306 C-363.898,-278.544 -336.687,-251.503 -332.095,-216.978 C-331.755,-212.897 -325.802,-212.897 -325.122,-216.978 C-320.36,-251.503 -293.319,-278.714 -258.794,-283.306 C-254.713,-283.646 -254.713,-289.598 -258.794,-290.279 C-293.319,-295.041 -320.53,-322.082 -325.122,-356.606 C-325.462,-360.688 -331.414,-360.688 -332.095,-356.606 Z " fill="#d1d1d1" fill-opacity="1.00" />			<path d="M717.185,137.373 C712.593,171.897 685.382,198.938 650.858,203.7 C646.776,204.04 646.776,209.993 650.858,210.673 C685.382,215.435 712.593,242.476 717.185,277 C717.525,281.082 723.478,281.082 724.158,277 C728.92,242.476 755.961,215.265 790.486,210.673 C794.567,210.333 794.567,204.38 790.486,203.7 C755.961,198.938 728.75,171.897 724.158,137.373 C723.818,133.291 717.865,133.291 717.185,137.373 Z " fill="#d1d1d1" fill-opacity="1.00" />			<path d="M501.843,-623.87 C497.251,-589.345 470.04,-562.304 435.515,-557.542 C431.434,-557.202 431.434,-551.25 435.515,-550.569 C470.04,-545.807 497.251,-518.766 501.843,-484.242 C502.183,-480.16 508.135,-480.16 508.816,-484.242 C513.578,-518.766 540.619,-545.977 575.143,-550.569 C579.225,-550.909 579.225,-556.862 575.143,-557.542 C540.619,-562.304 513.408,-589.345 508.816,-623.87 C508.476,-627.951 502.523,-627.951 501.843,-623.87 Z " fill="#d1d1d1" fill-opacity="1.00" />			<path d="M-606.903,-592.071 C-608.524,-579.888 -618.126,-570.345 -630.309,-568.665 C-631.749,-568.545 -631.749,-566.444 -630.309,-566.204 C-618.126,-564.524 -608.524,-554.982 -606.903,-542.799 C-606.783,-541.359 -604.683,-541.359 -604.443,-542.799 C-602.762,-554.982 -593.22,-564.584 -581.037,-566.204 C-579.597,-566.324 -579.597,-568.425 -581.037,-568.665 C-593.22,-570.345 -602.822,-579.888 -604.443,-592.071 C-604.563,-593.511 -606.663,-593.511 -606.903,-592.071 Z " fill="#d1d1d1" fill-opacity="1.00" />			<path d="M508.764,643.314 C507.143,655.496 497.541,665.039 485.358,666.719 C483.918,666.839 483.918,668.94 485.358,669.18 C497.541,670.86 507.143,680.402 508.764,692.585 C508.884,694.026 510.984,694.026 511.224,692.585 C512.905,680.402 522.447,670.8 534.63,669.18 C536.07,669.06 536.07,666.959 534.63,666.719 C522.447,665.039 512.845,655.496 511.224,643.314 C511.104,641.873 509.004,641.873 508.764,643.314 Z " fill="#d1d1d1" fill-opacity="1.00" />			<path d="M745.058,-346.301 C742.011,-323.391 723.953,-305.446 701.043,-302.286 C698.334,-302.061 698.334,-298.111 701.043,-297.659 C723.953,-294.499 742.011,-276.555 745.058,-253.644 C745.284,-250.936 749.234,-250.936 749.685,-253.644 C752.845,-276.555 770.79,-294.612 793.7,-297.659 C796.409,-297.885 796.409,-301.835 793.7,-302.286 C770.79,-305.446 752.732,-323.391 749.685,-346.301 C749.459,-349.01 745.509,-349.01 745.058,-346.301 Z " fill="#d1d1d1" fill-opacity="1.00" />			<path d="M-352.966,522.144 C-355.606,541.993 -371.251,557.54 -391.1,560.278 C-393.446,560.473 -393.446,563.895 -391.1,564.287 C-371.251,567.024 -355.606,582.571 -352.966,602.42 C-352.771,604.767 -349.348,604.767 -348.957,602.42 C-346.219,582.571 -330.673,566.927 -310.824,564.287 C-308.477,564.091 -308.477,560.669 -310.824,560.278 C-330.673,557.54 -346.317,541.993 -348.957,522.144 C-349.153,519.798 -352.575,519.798 -352.966,522.144 Z " fill="#d1d1d1" fill-opacity="1.00" />			<path d="M-125.861,274.553 C-126.448,278.962 -129.923,282.416 -134.333,283.024 C-134.854,283.067 -134.854,283.828 -134.333,283.914 C-129.923,284.523 -126.448,287.976 -125.861,292.386 C-125.818,292.907 -125.058,292.907 -124.971,292.386 C-124.363,287.976 -120.909,284.501 -116.5,283.914 C-115.978,283.871 -115.978,283.111 -116.5,283.024 C-120.909,282.416 -124.384,278.962 -124.971,274.553 C-125.014,274.031 -125.775,274.031 -125.861,274.553 Z " fill="#ffffff" fill-opacity="1.00" />			<path d="M-158.427,242.465 C-159.447,250.135 -165.491,256.141 -173.16,257.199 C-174.067,257.275 -174.067,258.597 -173.16,258.748 C-165.491,259.806 -159.447,265.813 -158.427,273.482 C-158.351,274.388 -157.029,274.388 -156.878,273.482 C-155.82,265.813 -149.813,259.768 -142.144,258.748 C-141.237,258.672 -141.237,257.35 -142.144,257.199 C-149.813,256.141 -155.858,250.135 -156.878,242.465 C-156.953,241.559 -158.276,241.559 -158.427,242.465 Z " fill="#ffffff" fill-opacity="1.00" />			<path d="M-115.566,241.088 C-116.009,244.419 -118.634,247.027 -121.964,247.487 C-122.358,247.519 -122.358,248.094 -121.964,248.159 C-118.634,248.619 -116.009,251.227 -115.566,254.558 C-115.533,254.952 -114.959,254.952 -114.893,254.558 C-114.434,251.227 -111.825,248.602 -108.494,248.159 C-108.101,248.127 -108.101,247.552 -108.494,247.487 C-111.825,247.027 -114.45,244.419 -114.893,241.088 C-114.926,240.694 -115.5,240.694 -115.566,241.088 Z " fill="#ffffff" fill-opacity="1.00" />			<path d="M-158.098,288.317 C-158.684,292.726 -162.159,296.18 -166.569,296.788 C-167.09,296.832 -167.09,297.592 -166.569,297.679 C-162.159,298.287 -158.684,301.741 -158.098,306.15 C-158.054,306.671 -157.294,306.671 -157.207,306.15 C-156.599,301.741 -153.145,298.265 -148.736,297.679 C-148.214,297.635 -148.214,296.875 -148.736,296.788 C-153.145,296.18 -156.621,292.726 -157.207,288.317 C-157.25,287.796 -158.011,287.796 -158.098,288.317 Z " fill="#ffffff" fill-opacity="1.00" />			<path d="M-115.031,294.712 C-115.428,297.695 -117.78,300.032 -120.763,300.444 C-121.116,300.473 -121.116,300.987 -120.763,301.046 C-117.78,301.458 -115.428,303.794 -115.031,306.778 C-115.002,307.13 -114.488,307.13 -114.429,306.778 C-114.017,303.794 -111.681,301.443 -108.697,301.046 C-108.345,301.017 -108.345,300.502 -108.697,300.444 C-111.681,300.032 -114.032,297.695 -114.429,294.712 C-114.458,294.359 -114.973,294.359 -115.031,294.712 Z " fill="#ffffff" fill-opacity="1.00" />			<path d="M-37.3609,462.147 L11.5895,413.197 L-37.3609,364.247 L-86.3112,413.197 L-37.3609,462.147 Z " fill="#313131" fill-opacity="1.00" />			<path d="M38.7438,462.147 L87.6941,413.197 L38.7438,364.247 L-10.2066,413.197 L38.7438,462.147 Z " fill="#313131" fill-opacity="1.00" />			<path d="M-0.447175,462.851 L48.5032,413.901 L-0.447175,364.95 L-49.3975,413.901 L-0.447175,462.851 Z " fill="#313131" fill-opacity="1.00" />			<path d="M-274.918,329.663 L287.219,329.663 " fill="none" stroke-width="8.51" stroke="#313131" stroke-linecap="round" stroke-linejoin="round" />			<path d="M-61.1557,419.796 L-56.4023,419.796 C-55.4206,419.796 -54.4606,419.653 -53.5224,419.367 C-52.5841,419.081 -51.736,418.662 -50.978,418.109 C-50.2199,417.556 -49.583,416.872 -49.0673,416.058 C-48.5516,415.244 -48.2192,414.303 -48.07,413.234 C-47.9085,412.029 -47.9737,411.004 -48.2658,410.159 C-48.5578,409.314 -49.0238,408.627 -49.6638,408.099 C-50.3038,407.571 -51.0805,407.189 -51.9939,406.953 C-52.9072,406.716 -53.8921,406.598 -54.9484,406.598 L-59.3103,406.598 L-61.1557,419.796 Z M-56.7752,409.283 L-55.0602,409.283 C-54.4513,409.283 -53.8828,409.36 -53.3546,409.516 C-52.8265,409.671 -52.376,409.904 -52.0032,410.215 C-51.6304,410.525 -51.3601,410.92 -51.1923,411.398 C-51.0246,411.877 -50.9842,412.439 -51.0712,413.085 C-51.183,413.831 -51.3943,414.462 -51.7049,414.977 C-52.0156,415.493 -52.404,415.909 -52.87,416.226 C-53.336,416.543 -53.8672,416.77 -54.4637,416.907 C-55.0602,417.043 -55.694,417.112 -56.3651,417.112 L-57.8749,417.112 L-56.7752,409.283 Z M-46.8957,419.796 L-37.5941,419.796 L-37.2213,417.112 L-43.615,417.112 L-43.2421,414.427 L-37.5195,414.427 L-37.1467,411.743 L-42.8693,411.743 L-42.5152,409.283 L-36.457,409.283 L-36.0842,406.598 L-45.0503,406.598 L-46.8957,419.796 Z M-25.049,407.642 C-25.5337,407.145 -26.1084,406.791 -26.7732,406.58 C-27.4381,406.368 -28.1433,406.263 -28.8889,406.263 C-29.5351,406.263 -30.1751,406.353 -30.8089,406.533 C-31.4427,406.713 -32.0206,406.984 -32.5425,407.344 C-33.0644,407.704 -33.5025,408.152 -33.8566,408.686 C-34.2108,409.22 -34.4376,409.842 -34.537,410.55 C-34.6364,411.283 -34.565,411.874 -34.3227,412.321 C-34.0803,412.768 -33.7479,413.129 -33.3254,413.402 C-32.9029,413.676 -32.4369,413.893 -31.9273,414.055 C-31.4178,414.216 -30.9456,414.378 -30.5107,414.539 C-30.0757,414.701 -29.7184,414.896 -29.4388,415.126 C-29.1592,415.356 -29.0505,415.67 -29.1126,416.068 C-29.1499,416.304 -29.24,416.509 -29.3829,416.683 C-29.5258,416.857 -29.7029,417 -29.9142,417.112 C-30.1254,417.223 -30.3553,417.307 -30.6039,417.363 C-30.8524,417.419 -31.0947,417.447 -31.3309,417.447 C-31.8155,417.447 -32.266,417.338 -32.6823,417.121 C-33.0986,416.903 -33.431,416.596 -33.6796,416.198 L-36.0842,418.472 C-35.525,419.056 -34.8974,419.479 -34.2015,419.74 C-33.5056,420.001 -32.7289,420.131 -31.8714,420.131 C-31.1879,420.131 -30.5262,420.044 -29.8862,419.87 C-29.2462,419.696 -28.6684,419.429 -28.1526,419.069 C-27.6369,418.708 -27.202,418.255 -26.8478,417.708 C-26.4936,417.161 -26.2668,416.521 -26.1674,415.788 C-26.0804,415.216 -26.096,414.729 -26.214,414.325 C-26.3321,413.921 -26.5154,413.585 -26.7639,413.318 C-27.0125,413.051 -27.3076,412.83 -27.6494,412.657 C-27.9911,412.483 -28.3422,412.333 -28.7025,412.209 C-29.0629,412.085 -29.4202,411.973 -29.7744,411.874 C-30.1285,411.774 -30.4392,411.659 -30.7064,411.529 C-30.9736,411.398 -31.1786,411.237 -31.3215,411.044 C-31.4644,410.851 -31.5173,410.606 -31.48,410.308 C-31.4427,410.059 -31.3495,409.848 -31.2004,409.674 C-31.0512,409.5 -30.8742,409.36 -30.6691,409.255 C-30.4641,409.149 -30.2435,409.071 -30.0074,409.022 C-29.7713,408.972 -29.5476,408.947 -29.3363,408.947 C-28.9759,408.947 -28.6031,409.018 -28.2179,409.161 C-27.8326,409.304 -27.5406,409.525 -27.3418,409.823 L-25.049,407.642 Z M-24.6016,419.796 L-21.6937,419.796 L-19.8483,406.598 L-22.7562,406.598 L-24.6016,419.796 Z M-5.99839,411.967 L-11.1618,411.967 L-11.5533,414.651 L-9.18592,414.651 L-9.48417,416.795 C-9.76999,416.944 -10.1552,417.09 -10.6399,417.233 C-11.1245,417.376 -11.6837,417.447 -12.3175,417.447 C-12.9389,417.447 -13.4857,417.341 -13.9579,417.13 C-14.4301,416.919 -14.8185,416.624 -15.1229,416.245 C-15.4274,415.866 -15.6418,415.418 -15.766,414.903 C-15.8903,414.387 -15.9089,413.818 -15.8219,413.197 C-15.735,412.588 -15.5579,412.023 -15.2907,411.501 C-15.0235,410.979 -14.6849,410.528 -14.2748,410.149 C-13.8647,409.77 -13.3925,409.475 -12.8581,409.264 C-12.3237,409.053 -11.7459,408.947 -11.1245,408.947 C-10.3789,408.947 -9.76999,409.053 -9.29776,409.264 C-8.82554,409.475 -8.42166,409.786 -8.08613,410.196 L-5.71878,407.959 C-6.30285,407.338 -7.02051,406.9 -7.87176,406.645 C-8.72301,406.39 -9.67679,406.263 -10.7331,406.263 C-11.7645,406.263 -12.74,406.424 -13.6596,406.747 C-14.5792,407.071 -15.3963,407.533 -16.1109,408.136 C-16.8254,408.739 -17.4219,409.469 -17.9004,410.326 C-18.3788,411.184 -18.6926,412.141 -18.8417,413.197 C-18.9908,414.253 -18.9473,415.21 -18.7112,416.068 C-18.4751,416.925 -18.0837,417.655 -17.5369,418.258 C-16.9901,418.861 -16.3035,419.324 -15.4771,419.647 C-14.6507,419.97 -13.7218,420.131 -12.6903,420.131 C-11.721,420.131 -10.7579,420.032 -9.80106,419.833 C-8.84418,419.634 -7.89972,419.311 -6.9677,418.864 L-5.99839,411.967 Z M-4.54443,419.796 L-1.63651,419.796 L-0.331674,410.401 L-0.294393,410.401 L4.16069,419.796 L7.96336,419.796 L9.80877,406.598 L6.90085,406.598 L5.61465,415.769 L5.57737,415.769 L1.25277,406.598 L-2.69902,406.598 L-4.54443,419.796 Z " fill="#ffffff" fill-opacity="1.00" />			<path d="M11.2402,420.332 L15.9936,420.332 C16.9753,420.332 17.9353,420.189 18.8735,419.903 C19.8118,419.617 20.6599,419.198 21.418,418.645 C22.176,418.092 22.8129,417.408 23.3286,416.594 C23.8443,415.78 24.1767,414.839 24.3259,413.77 C24.4874,412.565 24.4222,411.539 24.1301,410.694 C23.8381,409.849 23.3721,409.163 22.7321,408.635 C22.0921,408.106 21.3154,407.724 20.402,407.488 C19.4887,407.252 18.5038,407.134 17.4475,407.134 L13.0856,407.134 L11.2402,420.332 Z M15.6208,409.818 L17.3357,409.818 C17.9446,409.818 18.5131,409.896 19.0413,410.051 C19.5694,410.207 20.0199,410.44 20.3927,410.75 C20.7655,411.061 21.0358,411.456 21.2036,411.934 C21.3714,412.412 21.4117,412.975 21.3248,413.621 C21.2129,414.367 21.0016,414.997 20.691,415.513 C20.3803,416.029 19.992,416.445 19.5259,416.762 C19.0599,417.079 18.5287,417.306 17.9322,417.442 C17.3357,417.579 16.7019,417.647 16.0308,417.647 L14.521,417.647 L15.6208,409.818 Z M38.3622,407.134 L35.4543,407.134 L34.3358,415.131 C34.2737,415.541 34.1525,415.92 33.9723,416.268 C33.7921,416.616 33.5654,416.917 33.292,417.172 C33.0186,417.427 32.711,417.626 32.3693,417.768 C32.0275,417.911 31.664,417.983 31.2788,417.983 C30.8935,417.983 30.5487,417.911 30.2442,417.768 C29.9398,417.626 29.685,417.427 29.48,417.172 C29.2749,416.917 29.132,416.616 29.0512,416.268 C28.9705,415.92 28.9611,415.541 29.0233,415.131 L30.1417,407.134 L27.2338,407.134 L26.0967,415.243 C25.9849,416.026 26.0004,416.746 26.1433,417.405 C26.2862,418.064 26.5565,418.635 26.9542,419.12 C27.3519,419.605 27.88,419.984 28.5386,420.257 C29.1973,420.53 29.9864,420.667 30.906,420.667 C31.8131,420.667 32.6333,420.53 33.3665,420.257 C34.0997,419.984 34.7335,419.605 35.2679,419.12 C35.8022,418.635 36.2341,418.064 36.5634,417.405 C36.8927,416.746 37.1133,416.026 37.2251,415.243 L38.3622,407.134 Z M39.3128,420.332 L48.6145,420.332 L48.9873,417.647 L42.5936,417.647 L42.9664,414.963 L48.689,414.963 L49.0618,412.279 L43.3392,412.279 L43.6934,409.818 L49.7515,409.818 L50.1243,407.134 L41.1583,407.134 L39.3128,420.332 Z M51.0564,420.332 L59.3514,420.332 L59.7242,417.647 L54.3371,417.647 L55.8097,407.134 L52.9018,407.134 L51.0564,420.332 Z " fill="#ffffff" fill-opacity="1.00" />		</g>	</svg>