<?xml version="1.0" encoding="utf-8" ?>	<!-- Generator: Assembly 2.2 - http://assemblyapp.co -->	<svg version="1.1" xmlns="http://www.w3.org/2000/svg" xmlns:xlink="http://www.w3.org/1999/xlink" width="2048.00" height="1638.40" viewBox="0 0 2048.0 1638.4">		<g id="document" transform="matrix(1,0,0,1,1024.0,819.2)">			<path d="M-1032.9,830.727 L1045.87,830.727 L1045.87,-830.56 L-1032.9,-830.56 L-1032.9,830.727 Z " fill="#40b25e" fill-opacity="1.00" />			<path d="M-368.462,99.6739 L-294.37,99.6739 L-173.213,-126.796 L-243.577,-126.796 L-318.601,26.9799 L-319.533,26.9799 L-354.948,-126.796 L-430.438,-126.796 L-368.462,99.6739 Z " fill="#40b25e" fill-opacity="1.00" stroke-width="12.38" stroke="#ffffff" stroke-linecap="round" stroke-linejoin="round" />			<path d="M-96.7914,24.65 C-103.937,32.7271 -111.781,39.3285 -120.324,44.4544 C-128.867,49.5803 -138.886,52.1432 -150.38,52.1432 C-164.049,52.1432 -175,48.1823 -183.232,40.2605 C-191.464,32.3387 -196.047,21.6987 -196.979,8.34041 L-34.8152,8.34041 L-31.5533,-13.561 C-29.068,-31.5792 -29.301,-47.8887 -32.2522,-62.4896 C-35.2035,-77.0906 -40.5623,-89.5945 -48.3288,-100.002 C-56.0952,-110.409 -66.1916,-118.408 -78.618,-124 C-91.0443,-129.592 -105.335,-132.388 -121.489,-132.388 C-138.886,-132.388 -155.661,-129.592 -171.815,-124 C-187.97,-118.408 -202.415,-110.409 -215.152,-100.002 C-227.889,-89.5945 -238.529,-77.0906 -247.072,-62.4896 C-255.615,-47.8887 -261.13,-31.5792 -263.615,-13.561 C-266.1,4.45718 -265.09,20.7667 -260.586,35.3677 C-256.081,49.9686 -248.936,62.4726 -239.151,72.8796 C-229.365,83.2867 -217.171,91.2861 -202.571,96.878 C-187.97,102.47 -171.971,105.266 -154.574,105.266 C-136.245,105.266 -117.994,101.382 -99.8204,93.616 C-81.6469,85.8496 -66.0363,74.8212 -52.9887,60.531 L-96.7914,24.65 Z M-190.455,-39.1903 C-189.212,-44.7821 -187.038,-50.141 -183.931,-55.2668 C-180.824,-60.3927 -176.941,-64.8972 -172.281,-68.7805 C-167.621,-72.6637 -162.185,-75.8479 -155.972,-78.3332 C-149.759,-80.8185 -142.769,-82.0611 -135.002,-82.0611 C-122.265,-82.0611 -112.48,-77.8672 -105.645,-69.4794 C-98.8107,-61.0917 -96.3255,-50.9953 -98.1894,-39.1903 L-190.455,-39.1903 Z " fill="#40b25e" fill-opacity="1.00" stroke-width="12.38" stroke="#ffffff" stroke-linecap="round" stroke-linejoin="round" />			<path d="M-126.615,99.6739 L-45.0669,99.6739 L18.3074,24.184 L57.4503,99.6739 L139.93,99.6739 L69.5659,-21.4828 L158.103,-126.796 L80.2836,-126.796 L32.753,-65.2856 L1.53182,-126.796 L-80.9479,-126.796 L-20.3696,-21.4828 L-126.615,99.6739 Z " fill="#40b25e" fill-opacity="1.00" stroke-width="12.38" stroke="#ffffff" stroke-linecap="round" stroke-linejoin="round" />			<path d="M58.8482,99.6739 L260.155,99.6739 L267.61,43.7554 L141.794,43.7554 L279.726,-59.6937 L289.046,-126.796 L93.3313,-126.796 L85.4095,-70.8774 L200.042,-70.8774 L68.634,29.7758 L58.8482,99.6739 Z " fill="#40b25e" fill-opacity="1.00" stroke-width="12.38" stroke="#ffffff" stroke-linecap="round" stroke-linejoin="round" />			<path d="M342.736,94.3452 L404.016,94.3452 L419.114,-15.3372 C421.779,-33.3956 422.593,-49.3077 421.557,-63.0735 C420.521,-76.8393 416.894,-88.4588 410.677,-97.9321 C404.46,-107.405 395.357,-114.584 383.368,-119.469 C371.378,-124.354 355.614,-126.796 336.075,-126.796 C318.313,-126.796 300.773,-123.909 283.455,-118.137 C266.136,-112.364 250.52,-103.705 236.606,-92.1593 L266.802,-55.7465 C275.091,-63.7396 284.047,-70.0304 293.668,-74.619 C303.289,-79.2076 313.576,-81.5019 324.53,-81.5019 C336.075,-81.5019 345.549,-78.0234 352.95,-71.0665 C360.351,-64.1096 363.311,-54.7104 361.831,-42.8688 C347.917,-42.8688 332.449,-42.4248 315.427,-41.5367 C298.404,-40.6485 282.122,-37.7622 266.58,-32.8775 C251.038,-27.9929 237.569,-20.4439 226.171,-10.2305 C214.774,-0.0172079 207.743,14.4147 205.078,33.0651 C203.598,44.0186 204.338,53.6398 207.299,61.9289 C210.259,70.218 214.922,77.1749 221.286,82.7997 C227.651,88.4244 235.274,92.6429 244.155,95.4553 C253.037,98.2677 262.51,99.6739 272.575,99.6739 C286.193,99.6739 299.515,97.1575 312.54,92.1249 C325.566,87.0922 336.52,78.8031 345.401,67.2576 L346.289,67.2576 L342.736,94.3452 Z M355.614,-0.239236 L353.838,13.9706 C352.95,20.7795 350.729,26.7003 347.177,31.733 C343.624,36.7656 339.258,40.9102 334.077,44.1666 C328.896,47.423 323.124,49.9393 316.759,51.7156 C310.394,53.4918 303.955,54.3799 297.442,54.3799 C293.89,54.3799 290.263,53.9359 286.563,53.0478 C282.862,52.1596 279.68,50.6794 277.016,48.6072 C274.351,46.5349 272.279,44.0926 270.799,41.2802 C269.319,38.4678 268.875,34.9894 269.467,30.8448 C270.355,23.4439 273.537,17.6711 279.014,13.5266 C284.491,9.38203 290.856,6.27362 298.108,4.20135 C305.361,2.12907 312.762,0.870908 320.311,0.42685 C327.86,-0.0172079 334.151,-0.239236 339.184,-0.239236 L355.614,-0.239236 Z " fill="#40b25e" fill-opacity="1.00" stroke-width="12.38" stroke="#ffffff" stroke-linecap="round" stroke-linejoin="round" />			<path d="M-348.961,176.208 L-353.29,176.208 L-354.083,181.836 L-354.228,181.836 C-355.19,179.816 -356.657,178.228 -358.629,177.074 C-360.601,175.92 -363.03,175.342 -365.916,175.342 C-368.369,175.342 -370.738,175.799 -373.022,176.713 C-375.307,177.627 -377.363,178.854 -379.191,180.393 C-381.019,181.932 -382.546,183.736 -383.773,185.804 C-384.999,187.872 -385.781,190.085 -386.118,192.442 C-386.454,194.799 -386.298,197.011 -385.649,199.079 C-384.999,201.148 -383.977,202.964 -382.582,204.527 C-381.187,206.09 -379.468,207.317 -377.424,208.206 C-375.379,209.096 -373.131,209.541 -370.678,209.541 C-367.792,209.541 -365.206,208.964 -362.922,207.81 C-360.637,206.655 -358.725,205.068 -357.186,203.048 L-357.041,203.048 L-357.691,207.665 C-357.787,208.291 -357.931,209.108 -358.124,210.118 C-358.316,211.128 -358.617,212.199 -359.026,213.329 C-359.434,214.459 -360,215.59 -360.721,216.72 C-361.443,217.85 -362.368,218.884 -363.499,219.822 C-364.629,220.76 -365.988,221.518 -367.575,222.095 C-369.163,222.672 -371.062,222.961 -373.275,222.961 C-375.872,222.961 -378.253,222.456 -380.418,221.446 C-382.582,220.436 -384.266,218.848 -385.468,216.684 L-389.364,219.858 C-387.969,222.071 -385.865,223.791 -383.051,225.017 C-380.237,226.244 -377.147,226.857 -373.78,226.857 C-372.097,226.857 -370.185,226.616 -368.044,226.135 C-365.904,225.654 -363.848,224.717 -361.875,223.322 C-359.903,221.927 -358.124,219.955 -356.536,217.405 C-354.949,214.856 -353.867,211.513 -353.29,207.377 L-348.961,176.208 Z M-355.382,192.442 C-355.622,194.27 -356.2,195.989 -357.114,197.6 C-358.027,199.212 -359.17,200.607 -360.541,201.785 C-361.912,202.964 -363.451,203.901 -365.158,204.599 C-366.866,205.296 -368.633,205.645 -370.461,205.645 C-372.289,205.645 -373.948,205.296 -375.439,204.599 C-376.931,203.901 -378.193,202.964 -379.227,201.785 C-380.261,200.607 -381.007,199.212 -381.464,197.6 C-381.921,195.989 -382.029,194.27 -381.789,192.442 C-381.548,190.614 -380.971,188.894 -380.057,187.283 C-379.143,185.672 -378.001,184.277 -376.63,183.098 C-375.259,181.92 -373.72,180.982 -372.012,180.285 C-370.305,179.587 -368.537,179.238 -366.709,179.238 C-364.882,179.238 -363.222,179.587 -361.731,180.285 C-360.24,180.982 -358.977,181.92 -357.943,183.098 C-356.909,184.277 -356.164,185.672 -355.707,187.283 C-355.25,188.894 -355.141,190.614 -355.382,192.442 Z M-284.098,192.875 C-284.483,195.424 -284.387,197.769 -283.81,199.909 C-283.233,202.05 -282.283,203.901 -280.96,205.465 C-279.637,207.028 -277.954,208.242 -275.91,209.108 C-273.865,209.974 -271.569,210.407 -269.019,210.407 C-266.47,210.407 -264.065,209.974 -261.804,209.108 C-259.544,208.242 -257.523,207.028 -255.744,205.465 C-253.964,203.901 -252.497,202.05 -251.343,199.909 C-250.188,197.769 -249.419,195.424 -249.034,192.875 C-248.697,190.325 -248.805,187.98 -249.359,185.84 C-249.912,183.7 -250.862,181.848 -252.208,180.285 C-253.555,178.721 -255.239,177.507 -257.259,176.641 C-259.279,175.775 -261.564,175.342 -264.113,175.342 C-266.662,175.342 -269.079,175.775 -271.364,176.641 C-273.649,177.507 -275.669,178.721 -277.425,180.285 C-279.18,181.848 -280.647,183.7 -281.826,185.84 C-283.004,187.98 -283.762,190.325 -284.098,192.875 Z M-279.77,192.875 C-279.481,190.999 -278.916,189.231 -278.074,187.572 C-277.232,185.912 -276.15,184.469 -274.827,183.243 C-273.505,182.016 -271.977,181.042 -270.246,180.321 C-268.514,179.599 -266.638,179.238 -264.618,179.238 C-262.598,179.238 -260.818,179.599 -259.279,180.321 C-257.74,181.042 -256.489,182.016 -255.527,183.243 C-254.565,184.469 -253.892,185.912 -253.507,187.572 C-253.122,189.231 -253.074,190.999 -253.363,192.875 C-253.651,194.751 -254.217,196.518 -255.058,198.178 C-255.9,199.837 -256.982,201.28 -258.305,202.507 C-259.628,203.733 -261.155,204.707 -262.887,205.429 C-264.618,206.15 -266.494,206.511 -268.514,206.511 C-270.534,206.511 -272.314,206.15 -273.853,205.429 C-275.392,204.707 -276.643,203.733 -277.605,202.507 C-278.567,201.28 -279.24,199.837 -279.625,198.178 C-280.01,196.518 -280.058,194.751 -279.77,192.875 Z M-106.034,209.541 L-101.705,209.541 L-99.3963,192.875 C-99.0596,190.566 -98.4704,188.558 -97.6286,186.85 C-96.7869,185.143 -95.7648,183.724 -94.5623,182.593 C-93.3598,181.463 -92.013,180.621 -90.5219,180.068 C-89.0308,179.515 -87.4917,179.238 -85.9044,179.238 C-84.1728,179.238 -82.814,179.539 -81.8279,180.14 C-80.8419,180.742 -80.1084,181.547 -79.6274,182.557 C-79.1464,183.567 -78.8818,184.71 -78.8337,185.984 C-78.7856,187.259 -78.8578,188.57 -79.0502,189.917 L-81.7919,209.541 L-77.4629,209.541 L-74.7212,189.7 C-74.4807,187.872 -74.4086,186.093 -74.5048,184.361 C-74.601,182.629 -75.0219,181.102 -75.7674,179.78 C-76.5129,178.457 -77.6553,177.387 -79.1945,176.569 C-80.7337,175.751 -82.802,175.342 -85.3993,175.342 C-86.7461,175.342 -88.0448,175.523 -89.2954,175.883 C-90.546,176.244 -91.7004,176.725 -92.7586,177.326 C-93.8167,177.928 -94.7667,178.637 -95.6085,179.455 C-96.4502,180.273 -97.1597,181.138 -97.7369,182.052 L-97.8812,182.052 L-94.0572,154.996 L-98.3862,154.996 L-106.034,209.541 Z M-6.7566,209.541 L-2.42764,209.541 L2.18992,176.208 L-2.13904,176.208 L-6.7566,209.541 Z M-1.3454,163.005 C-1.4416,163.919 -1.22515,164.688 -0.696056,165.314 C-0.166961,165.939 0.554532,166.252 1.46842,166.252 C2.38231,166.252 3.20001,165.939 3.9215,165.314 C4.64299,164.688 5.05184,163.919 5.14804,163.005 C5.29234,162.091 5.08791,161.321 4.53477,160.696 C3.98162,160.071 3.24811,159.758 2.33421,159.758 C1.42032,159.758 0.614656,160.071 -0.0827871,160.696 C-0.78023,161.321 -1.2011,162.091 -1.3454,163.005 Z M106.374,176.208 L102.045,176.208 L101.251,181.836 L101.107,181.836 C100.145,179.816 98.6776,178.228 96.7055,177.074 C94.7334,175.92 92.3044,175.342 89.4184,175.342 C86.9653,175.342 84.5964,175.799 82.3117,176.713 C80.027,177.627 77.9707,178.854 76.1429,180.393 C74.3152,181.932 72.788,183.736 71.5615,185.804 C70.3349,187.872 69.5533,190.085 69.2166,192.442 C68.8799,194.799 69.0362,197.011 69.6856,199.079 C70.3349,201.148 71.357,202.964 72.7519,204.527 C74.1468,206.09 75.8664,207.317 77.9106,208.206 C79.9548,209.096 82.2035,209.541 84.6566,209.541 C87.5425,209.541 90.1279,208.964 92.4126,207.81 C94.6973,206.655 96.6093,205.068 98.1485,203.048 L98.2928,203.048 L97.6434,207.665 C97.5472,208.291 97.4029,209.108 97.2105,210.118 C97.0181,211.128 96.7175,212.199 96.3087,213.329 C95.8998,214.459 95.3347,215.59 94.6132,216.72 C93.8917,217.85 92.9658,218.884 91.8354,219.822 C90.7051,220.76 89.3463,221.518 87.759,222.095 C86.1717,222.672 84.2718,222.961 82.0592,222.961 C79.4618,222.961 77.0809,222.456 74.9164,221.446 C72.7519,220.436 71.0684,218.848 69.866,216.684 L65.9699,219.858 C67.3648,222.071 69.4691,223.791 72.283,225.017 C75.0968,226.244 78.1872,226.857 81.5541,226.857 C83.2376,226.857 85.1496,226.616 87.29,226.135 C89.4304,225.654 91.4867,224.717 93.4588,223.322 C95.4309,221.927 97.2105,219.955 98.7978,217.405 C100.385,214.856 101.467,211.513 102.045,207.377 L106.374,176.208 Z M99.9522,192.442 C99.7117,194.27 99.1345,195.989 98.2206,197.6 C97.3067,199.212 96.1644,200.607 94.7935,201.785 C93.4227,202.964 91.8835,203.901 90.176,204.599 C88.4684,205.296 86.7008,205.645 84.873,205.645 C83.0452,205.645 81.3858,205.296 79.8947,204.599 C78.4036,203.901 77.141,202.964 76.1069,201.785 C75.0727,200.607 74.3272,199.212 73.8702,197.6 C73.4133,195.989 73.3051,194.27 73.5456,192.442 C73.7861,190.614 74.3633,188.894 75.2771,187.283 C76.191,185.672 77.3334,184.277 78.7042,183.098 C80.0751,181.92 81.6143,180.982 83.3218,180.285 C85.0293,179.587 86.797,179.238 88.6248,179.238 C90.4526,179.238 92.112,179.587 93.6031,180.285 C95.0942,180.982 96.3568,181.92 97.3909,183.098 C98.4251,184.277 99.1706,185.672 99.6275,187.283 C100.084,188.894 100.193,190.614 99.9522,192.442 Z M170.803,209.541 L175.132,209.541 L177.441,192.875 C177.777,190.566 178.366,188.558 179.208,186.85 C180.05,185.143 181.072,183.724 182.275,182.593 C183.477,181.463 184.824,180.621 186.315,180.068 C187.806,179.515 189.345,179.238 190.932,179.238 C192.664,179.238 194.023,179.539 195.009,180.14 C195.995,180.742 196.728,181.547 197.209,182.557 C197.69,183.567 197.955,184.71 198.003,185.984 C198.051,187.259 197.979,188.57 197.787,189.917 L195.045,209.541 L199.374,209.541 L202.116,189.7 C202.356,187.872 202.428,186.093 202.332,184.361 C202.236,182.629 201.815,181.102 201.069,179.78 C200.324,178.457 199.182,177.387 197.642,176.569 C196.103,175.751 194.035,175.342 191.438,175.342 C190.091,175.342 188.792,175.523 187.541,175.883 C186.291,176.244 185.136,176.725 184.078,177.326 C183.02,177.928 182.07,178.637 181.228,179.455 C180.387,180.273 179.677,181.138 179.1,182.052 L178.956,182.052 L182.78,154.996 L178.451,154.996 L170.803,209.541 Z M296.848,200.595 C295.501,202.422 293.709,203.865 291.473,204.924 C289.236,205.982 287.011,206.511 284.799,206.511 C282.249,206.511 280.241,206.03 278.774,205.068 C277.307,204.106 276.189,202.951 275.419,201.605 C274.65,200.258 274.181,198.875 274.012,197.456 C273.844,196.037 273.832,194.871 273.976,193.957 L301.97,193.957 L302.403,190.927 C302.692,189.003 302.632,187.103 302.223,185.227 C301.814,183.351 301.044,181.679 299.914,180.212 C298.784,178.745 297.305,177.567 295.477,176.677 C293.649,175.787 291.46,175.342 288.911,175.342 C286.458,175.342 284.161,175.787 282.021,176.677 C279.881,177.567 277.957,178.793 276.249,180.357 C274.541,181.92 273.123,183.76 271.992,185.876 C270.862,187.993 270.128,190.301 269.792,192.802 C269.407,195.4 269.467,197.769 269.972,199.909 C270.477,202.05 271.367,203.901 272.642,205.465 C273.916,207.028 275.528,208.242 277.476,209.108 C279.424,209.974 281.672,210.407 284.222,210.407 C287.204,210.407 290.005,209.854 292.627,208.747 C295.248,207.641 297.593,205.813 299.661,203.264 L296.848,200.595 Z M274.481,190.061 C274.529,189.628 274.83,188.822 275.383,187.644 C275.936,186.465 276.766,185.251 277.872,184 C278.979,182.75 280.386,181.643 282.093,180.681 C283.801,179.719 285.833,179.238 288.19,179.238 C289.777,179.238 291.232,179.527 292.555,180.104 C293.877,180.681 294.996,181.463 295.91,182.449 C296.824,183.435 297.473,184.577 297.858,185.876 C298.243,187.175 298.339,188.57 298.146,190.061 L274.481,190.061 Z M367.915,209.541 L372.244,209.541 L374.769,191.359 C375.009,189.724 375.442,188.197 376.068,186.778 C376.693,185.359 377.535,184.121 378.593,183.062 C379.651,182.004 380.902,181.174 382.345,180.573 C383.788,179.972 385.447,179.671 387.323,179.671 C387.852,179.671 388.381,179.768 388.91,179.96 L389.992,175.703 C389.127,175.463 388.309,175.342 387.539,175.342 C385.038,175.342 382.838,175.968 380.938,177.218 C379.038,178.469 377.39,180.08 375.995,182.052 C375.947,181.716 375.995,180.97 376.14,179.816 C376.284,178.661 376.404,177.459 376.5,176.208 L372.172,176.208 C372.123,176.641 372.063,177.254 371.991,178.048 C371.919,178.842 371.847,179.695 371.775,180.609 C371.703,181.523 371.618,182.425 371.522,183.315 C371.426,184.205 371.33,184.962 371.234,185.588 L367.915,209.541 Z " fill="#ffffff" fill-opacity="1.00" stroke-width="2.71" stroke="#ffffff" stroke-linecap="round" stroke-linejoin="round" />		</g>	</svg>